<svg width="108" height="108" viewBox="0 0 108 108" fill="none" xmlns="http://www.w3.org/2000/svg">
<circle cx="54" cy="54" r="54" fill="#42C2FF"/>
<path d="M68.9996 24.0008V26.0024H72.5878L51.9984 46.5917L42.0027 36.5839L29.2976 49.289L30.7012 50.7047L42.0027 39.4154L51.9984 49.411L74.0035 27.4181V30.9941H76.0051V24.0008H68.9996Z" fill="white"/>
<path d="M82.9984 81.9976V37.9996H73.0028V81.9976H71.0012V44.0043H61.0055V82.0098H59.0039V58.0031H48.9961V81.9976H46.9945V51.9984H36.9988V81.9976H34.9972V67.9988H25.0016V81.9976H23V83.9992H85V81.9976H82.9984ZM33.0079 81.9976H27.0031V70.0004H33.0079V81.9976ZM45.0051 81.9976H39.0004V54H45.0051V81.9976ZM57.0024 82.0098H50.9976V60.0047H57.0024V82.0098ZM68.9996 82.0098H62.9949V46.0059H68.9996V82.0098ZM81.0091 81.9976H75.0043V40.0012H81.0091V81.9976Z" fill="white"/>
</svg>
