<svg width="108" height="108" viewBox="0 0 108 108" fill="none" xmlns="http://www.w3.org/2000/svg">
<circle cx="54" cy="54" r="54" fill="#42C2FF"/>
<path d="M75.3125 43.3437C80.1204 43.3437 84.0312 39.4329 84.0312 34.625V33.6562H79.1875C76.4498 33.6562 74.0057 34.9272 72.4062 36.9064V32.6875C72.4062 27.8796 68.4954 23.9687 63.6875 23.9687C58.8796 23.9687 54.9688 27.8796 54.9688 32.6875V75.3125C54.9688 79.0509 51.9259 82.0937 48.1875 82.0937H46.25C42.5116 82.0937 39.4688 79.0509 39.4688 75.3125V72.3394C43.2856 71.8599 46.25 68.601 46.25 64.6562V62.5405C47.3747 62.1394 48.1875 61.0738 48.1875 59.8125C48.1875 58.5512 47.3747 57.4856 46.25 57.0845V50.7702C50.3178 48.1923 53.0312 43.6615 53.0312 38.499C53.0312 30.4865 46.5125 23.9678 38.5 23.9678C30.4875 23.9678 23.9688 30.4875 23.9688 38.5C23.9688 43.6625 26.6822 48.1923 30.75 50.7711V57.0855C29.6253 57.4856 28.8125 58.5512 28.8125 59.8125C28.8125 61.0738 29.6253 62.1394 30.75 62.5405V64.6562C30.75 68.601 33.7144 71.8599 37.5312 72.3394V75.3125C37.5312 80.1204 41.4421 84.0312 46.25 84.0312H48.1875C52.9954 84.0312 56.9062 80.1204 56.9062 75.3125V32.6875C56.9062 28.9491 59.9491 25.9062 63.6875 25.9062C67.4259 25.9062 70.4688 28.9491 70.4688 32.6875V37.6388C69.2365 36.3784 67.5218 35.5937 65.625 35.5937H60.7812V36.5625C60.7812 40.3009 63.8241 43.3437 67.5625 43.3437H70.4688V49.2638C69.2365 48.0034 67.5218 47.2187 65.625 47.2187H60.7812V48.1875C60.7812 51.9259 63.8241 54.9687 67.5625 54.9687H70.4688V55.9375V56.9062V58.8437H67.8008L63.3717 74.3437H69.1667L67.207 80.876C66.9822 81.6249 67.1208 82.4154 67.5877 83.0431C68.0546 83.6699 68.7715 84.0312 69.5533 84.0312C70.4881 84.0312 71.328 83.513 71.7456 82.6779L79.7862 66.5937H74.616L76.5535 58.8437H72.4062V56.9062H75.3125C80.1204 56.9062 84.0312 52.9954 84.0312 48.1875V47.2187H79.1875C76.4498 47.2187 74.0057 48.4897 72.4062 50.4689V43.3437H75.3125ZM44.3125 56.9062H42.375V52.4907C43.0405 52.3056 43.6886 52.0828 44.3125 51.8096V56.9062ZM38.5 53.0312C39.1587 53.0312 39.802 52.9721 40.4375 52.8869V56.9062H36.5625V52.8869C37.198 52.9721 37.8413 53.0312 38.5 53.0312ZM50.7421 35.5937H46.25C45.7153 35.5937 45.2812 35.1597 45.2812 34.625C45.2812 33.0227 43.9773 31.7187 42.375 31.7187H39.4688C38.934 31.7187 38.5 31.2847 38.5 30.75C38.5 30.2152 38.934 29.7812 39.4688 29.7812H47.5665C49.1001 31.3758 50.2132 33.3714 50.7421 35.5937ZM38.5 25.9062C40.9558 25.9062 43.2411 26.6231 45.1805 27.8437H39.4688C37.8664 27.8437 36.5625 29.1477 36.5625 30.75C36.5625 32.3523 37.8664 33.6562 39.4688 33.6562H42.375C42.9097 33.6562 43.3438 34.0902 43.3438 34.625C43.3438 36.2273 44.6477 37.5312 46.25 37.5312H51.0443C51.0695 37.8519 51.0938 38.1726 51.0938 38.5C51.0938 45.444 45.444 51.0937 38.5 51.0937C36.0442 51.0937 33.7589 50.3769 31.8195 49.1562H40.4375C42.0398 49.1562 43.3438 47.8523 43.3438 46.25C43.3438 44.6477 42.0398 43.3437 40.4375 43.3437H32.6875C32.1528 43.3437 31.7188 42.9097 31.7188 42.375C31.7188 41.8402 32.1528 41.4062 32.6875 41.4062H34.625C36.2273 41.4062 37.5312 40.1023 37.5312 38.5C37.5312 36.8977 36.2273 35.5937 34.625 35.5937H26.876C26.657 35.5937 26.4449 35.6228 26.2395 35.6683C27.5289 30.0854 32.5306 25.9062 38.5 25.9062ZM25.9062 38.5C25.9062 38.4767 25.9092 38.4545 25.9101 38.4312C25.9217 37.9333 26.3499 37.5312 26.876 37.5312H34.625C35.1597 37.5312 35.5938 37.9652 35.5938 38.5C35.5938 39.0347 35.1597 39.4687 34.625 39.4687H32.6875C31.0852 39.4687 29.7812 40.7727 29.7812 42.375C29.7812 43.9773 31.0852 45.2812 32.6875 45.2812H40.4375C40.9722 45.2812 41.4062 45.7152 41.4062 46.25C41.4062 46.7847 40.9722 47.2187 40.4375 47.2187H29.4335C27.2547 44.9538 25.9062 41.8838 25.9062 38.5ZM34.625 52.4907V56.9062H32.6875V51.8096C33.3114 52.0828 33.9595 52.3056 34.625 52.4907ZM31.7188 58.8437H45.2812C45.816 58.8437 46.25 59.2777 46.25 59.8125C46.25 60.3472 45.816 60.7812 45.2812 60.7812H31.7188C31.184 60.7812 30.75 60.3472 30.75 59.8125C30.75 59.2777 31.184 58.8437 31.7188 58.8437ZM32.6875 64.6562V62.7187H44.3125V64.6562C44.3125 67.8618 41.7056 70.4687 38.5 70.4687C35.2944 70.4687 32.6875 67.8618 32.6875 64.6562ZM67.5625 41.4062C65.223 41.4062 63.2661 39.739 62.8166 37.5312H65.625C67.9645 37.5312 69.9214 39.1985 70.3709 41.4062H67.5625ZM67.5625 53.0312C65.223 53.0312 63.2661 51.364 62.8166 49.1562H65.625C67.9645 49.1562 69.9214 50.8235 70.3709 53.0312H67.5625ZM76.6513 68.5312L70.0115 81.8109C69.9253 81.9833 69.7461 82.0937 69.5533 82.0937C69.3305 82.0937 69.1997 81.9639 69.1425 81.8874C69.0844 81.8099 68.9992 81.6481 69.0631 81.4331L71.7708 72.4062H65.9408L69.2617 60.7812H74.0715L72.134 68.5312H76.6513ZM79.1875 49.1562H82.025C81.5542 52.4384 78.7235 54.9687 75.3125 54.9687H72.475C72.9468 51.6866 75.7765 49.1562 79.1875 49.1562ZM79.1875 35.5937H82.025C81.5542 38.8759 78.7235 41.4062 75.3125 41.4062H72.475C72.9468 38.1241 75.7765 35.5937 79.1875 35.5937Z" fill="white"/>
</svg>
