<svg width="108" height="108" viewBox="0 0 108 108" fill="none" xmlns="http://www.w3.org/2000/svg">
<circle cx="54" cy="54" r="54" fill="#42C2FF"/>
<g clip-path="url(#clip0_482_3585)">
<path d="M84.4239 42.5855L54.7091 23.2105C54.4992 23.0735 54.2539 23.0006 54.0032 23.0006C53.7525 23.0006 53.5073 23.0735 53.2973 23.2105L23.589 42.5855C23.3125 42.7772 23.1218 43.0691 23.0572 43.3992C22.9927 43.7293 23.0594 44.0716 23.2433 44.3532C23.4272 44.6349 23.7137 44.8337 24.0419 44.9074C24.3701 44.9811 24.7141 44.9238 25.0008 44.7478L28.1667 42.6811V81.125C28.1667 82.1527 28.5749 83.1383 29.3016 83.865C30.0283 84.5917 31.0139 85 32.0417 85H75.9674C76.9951 85 77.9807 84.5917 78.7074 83.865C79.4341 83.1383 79.8424 82.1527 79.8424 81.125V42.6811C80.3435 42.9201 83.1749 45.0888 83.7174 44.9583C83.9929 44.9529 84.2595 44.8601 84.4788 44.6932C84.6981 44.5263 84.8587 44.2941 84.9373 44.03C85.0159 43.7659 85.0086 43.4836 84.9163 43.224C84.824 42.9643 84.6516 42.7408 84.4239 42.5855ZM68.2148 82.4167H65.6315V73.375C65.6315 73.0324 65.4954 72.7039 65.2531 72.4616C65.0109 72.2194 64.6824 72.0833 64.3398 72.0833H60.4583V63.0417C60.4583 62.6991 60.3222 62.3705 60.08 62.1283C59.8378 61.8861 59.5092 61.75 59.1667 61.75H48.8333C48.4908 61.75 48.1622 61.8861 47.92 62.1283C47.6777 62.3705 47.5417 62.6991 47.5417 63.0417V72.0833H43.6667C43.3241 72.0833 42.9955 72.2194 42.7533 72.4616C42.5111 72.7039 42.375 73.0324 42.375 73.375V82.4167H39.7917V59.1667H68.2083L68.2148 82.4167ZM50.125 72.0833V64.3333H57.875V72.0833H50.125ZM44.9583 74.6667H52.7083V82.4167H44.9583V74.6667ZM55.2917 82.4167V74.6667H63.0417V82.4167H55.2917ZM77.25 81.125C77.25 81.4676 77.1139 81.7961 76.8717 82.0383C76.6294 82.2806 76.3009 82.4167 75.9583 82.4167H70.7917V57.875C70.7917 57.5324 70.6556 57.2039 70.4133 56.9616C70.1711 56.7194 69.8426 56.5833 69.5 56.5833H38.5C38.1574 56.5833 37.8289 56.7194 37.5866 56.9616C37.3444 57.2039 37.2083 57.5324 37.2083 57.875V82.4167H32.0417C31.6991 82.4167 31.3705 82.2806 31.1283 82.0383C30.8861 81.7961 30.75 81.4676 30.75 81.125V40.9968L54 25.8339L77.25 40.9968V81.125ZM64.3333 48.8333C64.3333 49.1759 64.1972 49.5044 63.955 49.7467C63.7128 49.9889 63.3842 50.125 63.0417 50.125H44.9583C44.6158 50.125 44.2872 49.9889 44.045 49.7467C43.8027 49.5044 43.6667 49.1759 43.6667 48.8333C43.6667 48.4908 43.8027 48.1622 44.045 47.92C44.2872 47.6777 44.6158 47.5417 44.9583 47.5417H63.0417C63.2118 47.5408 63.3805 47.5736 63.5379 47.6381C63.6954 47.7027 63.8386 47.7977 63.9592 47.9177C64.0798 48.0377 64.1755 48.1804 64.2408 48.3375C64.3062 48.4947 64.3398 48.6632 64.3398 48.8333H64.3333ZM44.9583 41.0833H63.0417C63.3842 41.0833 63.7128 41.2194 63.955 41.4616C64.1972 41.7039 64.3333 42.0324 64.3333 42.375C64.3333 42.7176 64.1972 43.0461 63.955 43.2883C63.7128 43.5306 63.3842 43.6667 63.0417 43.6667H44.9583C44.6158 43.6667 44.2872 43.5306 44.045 43.2883C43.8027 43.0461 43.6667 42.7176 43.6667 42.375C43.6667 42.0324 43.8027 41.7039 44.045 41.4616C44.2872 41.2194 44.6158 41.0833 44.9583 41.0833Z" fill="white"/>
</g>
<defs>
<clipPath id="clip0_482_3585">
<rect width="62" height="62" fill="white" transform="translate(23 23)"/>
</clipPath>
</defs>
</svg>
