<svg width="108" height="108" viewBox="0 0 108 108" fill="none" xmlns="http://www.w3.org/2000/svg">
<circle cx="54" cy="54" r="54" fill="#42C2FF"/>
<g clip-path="url(#clip0_482_3598)">
<path d="M60.075 75.8404H62.1104V77.8758H60.075V75.8404Z" fill="white"/>
<path d="M41.7559 63.6279H47.8621V65.6633H41.7559V63.6279Z" fill="white"/>
<path d="M30.5607 85H77.3762C77.9387 85.0024 78.3956 84.5488 78.398 83.9863C78.3984 83.9547 78.397 83.9225 78.3942 83.8908L76.0106 57.7099C75.601 52.9821 71.6333 49.3587 66.8879 49.3795H60.075V46.5726C61.38 45.093 62.1033 43.1896 62.1104 41.2166V37.0653C62.1917 37.0275 62.2703 36.9844 62.3455 36.9371C62.8407 36.553 63.1297 35.9618 63.1283 35.335V33.3587C63.1279 32.6331 62.7395 31.9633 62.1104 31.6019V27.5079C62.1061 26.1461 61.2041 24.9503 59.8957 24.5714L54.8069 23.1183C54.2587 22.9607 53.6773 22.9607 53.1286 23.1183L48.0403 24.5714C46.7324 24.9507 45.8313 26.1461 45.8266 27.5079V31.6019C45.1975 31.9633 44.8096 32.6331 44.8091 33.3587V35.335C44.8067 35.9622 45.0958 36.5549 45.5915 36.939C45.6667 36.9925 45.7452 37.0407 45.8266 37.0833V41.2204C45.8337 43.1938 46.5569 45.0968 47.862 46.5769V49.3795H41.0495C36.3037 49.3592 32.336 52.9825 31.9268 57.7109L29.5433 83.8908C29.4926 84.4504 29.9056 84.9452 30.4652 84.9958C30.4969 84.9991 30.529 85 30.5607 85ZM31.6804 82.9646L32.6983 71.7696H37.6849V73.9923C37.359 73.8717 37.0146 73.8083 36.6675 73.805C34.9811 73.805 33.6141 75.172 33.6141 76.8584V82.9646H31.6804ZM51.9333 61.5925H56.0041V71.7696H51.9333V61.5925ZM58.0396 73.805V61.5925H68.2166V78.8938H64.1458C62.4595 78.8938 61.0924 80.2603 61.0924 81.9467C61.0958 82.2943 61.1591 82.6387 61.2798 82.9646H46.6572C46.7778 82.6387 46.8412 82.2943 46.8445 81.9467C46.8445 80.2608 45.4775 78.8938 43.7912 78.8938H39.7203V61.5925H49.8979V73.805H58.0396ZM42.7737 82.9646H35.6495V76.8584C35.6495 76.2964 36.105 75.8404 36.6675 75.8404C37.2294 75.8404 37.6849 76.2964 37.6849 76.8584V80.9292H43.7912C44.3536 80.9292 44.8091 81.3847 44.8091 81.9471C44.8091 82.5091 44.3536 82.9646 43.7912 82.9646H42.7737ZM64.1458 82.9646C63.5838 82.9646 63.1279 82.5091 63.1279 81.9467C63.1279 81.3847 63.5838 80.9292 64.1458 80.9292H70.252V76.8584C70.252 76.2959 70.7076 75.8404 71.27 75.8404C71.8319 75.8404 72.2875 76.2959 72.2875 76.8584V82.9646H64.1458ZM74.3229 82.9646V76.8584C74.3229 75.172 72.9563 73.805 71.27 73.805C70.9223 73.8083 70.578 73.8717 70.252 73.9923V71.7696H75.2439L76.2618 82.9646H74.3229ZM49.8979 48.2651C49.9088 48.2722 49.9182 48.2807 49.9291 48.2868C52.4342 49.7102 55.5032 49.7102 58.0079 48.2868C58.0192 48.2807 58.0282 48.2722 58.0396 48.2651V50.0706L53.9687 55.7701L49.8974 50.0706V48.2651H49.8979ZM56.9984 46.5187C54.0704 48.1922 50.3402 47.1752 48.6671 44.2472C48.1397 43.3244 47.862 42.2795 47.862 41.2166V37.1751L50.0199 36.6358C52.613 35.9887 55.3253 35.9887 57.9185 36.6358L60.075 37.1751V41.2166C60.0726 43.4071 58.899 45.4298 56.9984 46.5187ZM47.0479 36.1491L46.8445 35.335V33.3587L50.0199 32.565C52.6126 31.9174 55.3244 31.9174 57.9175 32.565L61.0924 33.3587V35.335L58.4118 34.6652C55.4947 33.9382 52.4432 33.9382 49.5261 34.6652L46.8445 35.335L47.0479 36.1491ZM48.599 26.5288L53.6877 25.0742C53.8699 25.0217 54.0633 25.0217 54.2454 25.0742L59.3342 26.5278C59.7727 26.6517 60.0754 27.0519 60.075 27.5079V31.0059L58.4123 30.5906C55.4947 29.8631 52.4432 29.8631 49.5251 30.5906L47.8625 31.0059V27.5079C47.862 27.0533 48.1633 26.6536 48.6004 26.5288H48.599ZM41.0495 51.4149H48.3558L53.139 58.1129C53.5004 58.5704 54.1641 58.6484 54.6215 58.2875C54.6863 58.2364 54.745 58.1778 54.796 58.1129L59.5811 51.4149H66.8874C70.5784 51.3993 73.6644 54.2167 73.9832 57.8939L75.0589 69.7342H70.252V59.5571H37.6849V69.7342H32.8781L33.9542 57.8949C34.2725 54.2176 37.3585 51.3993 41.0495 51.4149Z" fill="white"/>
<path d="M64.1458 75.8404H66.1812V77.8758H64.1458V75.8404Z" fill="white"/>
</g>
<defs>
<clipPath id="clip0_482_3598">
<rect width="62" height="62" fill="white" transform="translate(23 23)"/>
</clipPath>
</defs>
</svg>
