<svg width="30" height="30" viewBox="0 0 30 30" fill="none" xmlns="http://www.w3.org/2000/svg">
<g clip-path="url(#clip0_449_3099)">
<path d="M23.7094 18.5839C23.0952 17.9444 22.3544 17.6025 21.5693 17.6025C20.7904 17.6025 20.0433 17.9381 19.4038 18.5776L17.403 20.5721C17.2384 20.4834 17.0737 20.4011 16.9154 20.3188C16.6875 20.2048 16.4722 20.0972 16.2886 19.9832C14.4144 18.7928 12.7112 17.2416 11.0776 15.2344C10.2861 14.234 9.75429 13.3919 9.36805 12.5371C9.88725 12.0622 10.3685 11.5684 10.837 11.0935C11.0143 10.9162 11.1916 10.7326 11.3689 10.5553C12.6985 9.22564 12.6985 7.50341 11.3689 6.17375L9.64032 4.4452C9.44403 4.24892 9.24142 4.0463 9.05147 3.84369C8.67157 3.45112 8.27267 3.04589 7.86111 2.66599C7.24693 2.05815 6.51245 1.73523 5.73999 1.73523C4.96752 1.73523 4.22038 2.05815 3.58721 2.66599C3.58087 2.67232 3.58087 2.67232 3.57454 2.67865L1.42176 4.85043C0.611304 5.66089 0.14909 6.64863 0.0477825 7.79467C-0.104178 9.64353 0.440348 11.3658 0.858241 12.4928C1.88398 15.2598 3.41625 17.8241 5.702 20.5721C8.47528 23.8835 11.8121 26.4985 15.6238 28.3411C17.0801 29.0312 19.0239 29.848 21.1957 29.9873C21.3286 29.9936 21.4679 30 21.5946 30C23.0572 30 24.2856 29.4744 25.248 28.4297C25.2543 28.417 25.267 28.4107 25.2733 28.398C25.6025 27.9991 25.9824 27.6382 26.3813 27.252C26.6536 26.9924 26.9322 26.7201 27.2045 26.4352C27.8313 25.783 28.1606 25.0232 28.1606 24.2444C28.1606 23.4593 27.825 22.7058 27.1855 22.0727L23.7094 18.5839ZM25.9761 25.2512C25.9698 25.2512 25.9698 25.2575 25.9761 25.2512C25.7292 25.5171 25.4759 25.7577 25.2036 26.0237C24.7921 26.4162 24.3742 26.8278 23.9816 27.29C23.3421 27.9738 22.5887 28.2967 21.6009 28.2967C21.5059 28.2967 21.4046 28.2967 21.3096 28.2904C19.4291 28.1701 17.6816 27.4356 16.3709 26.8088C12.7872 25.0739 9.64032 22.6109 7.02532 19.4893C4.86621 16.887 3.42258 14.481 2.46649 11.8976C1.87765 10.321 1.66237 9.09267 1.75734 7.93397C1.82066 7.19316 2.10559 6.57898 2.63112 6.05345L4.79023 3.89434C5.10048 3.60308 5.42973 3.44479 5.75265 3.44479C6.15155 3.44479 6.47446 3.68539 6.67708 3.88801C6.68341 3.89434 6.68974 3.90067 6.69607 3.907C7.08231 4.26791 7.44955 4.64148 7.83578 5.04038C8.03206 5.24299 8.23468 5.44561 8.43729 5.65456L10.1658 7.38311C10.837 8.05427 10.837 8.67478 10.1658 9.34594C9.98223 9.52956 9.80494 9.71318 9.62132 9.89046C9.08946 10.435 8.58292 10.9415 8.03206 11.4354C8.0194 11.4481 8.00674 11.4544 8.0004 11.4671C7.45588 12.0116 7.55719 12.5435 7.67116 12.9044C7.67749 12.9234 7.68382 12.9423 7.69015 12.9613C8.1397 14.0504 8.77287 15.0761 9.73529 16.2982L9.74162 16.3045C11.4892 18.4573 13.3317 20.1352 15.3642 21.4205C15.6238 21.5851 15.8897 21.7181 16.143 21.8447C16.3709 21.9587 16.5862 22.0663 16.7698 22.1803C16.7951 22.193 16.8205 22.212 16.8458 22.2246C17.0611 22.3323 17.2637 22.3829 17.4726 22.3829C17.9982 22.3829 18.3274 22.0537 18.4351 21.946L20.6005 19.7806C20.8158 19.5653 21.1577 19.3057 21.5566 19.3057C21.9492 19.3057 22.2721 19.5526 22.4683 19.7679C22.4747 19.7743 22.4747 19.7743 22.481 19.7806L25.9698 23.2694C26.622 23.9152 26.622 24.58 25.9761 25.2512Z" fill="white"/>
<path d="M16.2126 7.13623C17.8715 7.41482 19.3785 8.19996 20.5815 9.40298C21.7845 10.606 22.5633 12.113 22.8482 13.7719C22.9179 14.1898 23.2788 14.481 23.6904 14.481C23.741 14.481 23.7853 14.4747 23.836 14.4683C24.3045 14.3924 24.6148 13.9491 24.5388 13.4806C24.1969 11.4734 23.2471 9.64359 21.7972 8.19362C20.3472 6.74366 18.5174 5.79391 16.5102 5.452C16.0417 5.37602 15.6048 5.68627 15.5225 6.14848C15.4402 6.6107 15.7441 7.06025 16.2126 7.13623Z" fill="white"/>
<path d="M29.9652 13.2336C29.4016 9.92848 27.844 6.92092 25.4507 4.52754C23.0573 2.13415 20.0497 0.576553 16.7446 0.0130316C16.2823 -0.0692806 15.8455 0.247305 15.7631 0.709519C15.6872 1.17807 15.9974 1.61495 16.466 1.69727C19.4165 2.19747 22.1075 3.59678 24.2476 5.73056C26.3877 7.87068 27.7807 10.5617 28.2809 13.5122C28.3506 13.9301 28.7115 14.2214 29.123 14.2214C29.1737 14.2214 29.218 14.215 29.2687 14.2087C29.7309 14.1391 30.0475 13.6958 29.9652 13.2336Z" fill="white"/>
</g>
<defs>
<clipPath id="clip0_449_3099">
<rect width="30" height="30" fill="white"/>
</clipPath>
</defs>
</svg>
