<svg width="137" height="58" viewBox="0 0 137 58" fill="none" xmlns="http://www.w3.org/2000/svg">
<g clip-path="url(#clip0_264_3704)">
<path d="M23.6963 28.1614C23.1038 28.1614 22.5113 28.1618 21.9187 28.1613C21.2495 28.1607 21.0441 28.0213 20.8149 27.4022C20.2939 25.9951 19.7692 24.5892 19.2617 23.1772C19.181 22.953 19.0772 22.8855 18.8432 22.886C15.2771 22.8938 11.711 22.8947 8.14491 22.8847C7.8871 22.884 7.79301 22.9737 7.71044 23.2035C7.2032 24.6156 6.67962 26.0218 6.15794 27.4287C5.9419 28.0113 5.72216 28.1606 5.10136 28.1611C3.8834 28.1621 2.66543 28.1628 1.44746 28.1609C0.654582 28.1596 0.440234 27.8419 0.738347 27.0966C4.15112 18.5643 7.5654 10.0326 10.9806 1.50117C11.2049 0.940773 11.4576 0.771433 12.0541 0.770091C13.0197 0.767918 13.9853 0.768184 14.9508 0.770049C15.5595 0.771222 15.8084 0.933173 16.0306 1.48986C19.4321 10.015 22.8321 18.5407 26.232 27.0664C26.2644 27.1477 26.2954 27.2302 26.3184 27.3144C26.4544 27.8117 26.2219 28.145 25.7042 28.1562C25.0352 28.1706 24.3656 28.1597 23.6963 28.1597C23.6963 28.1603 23.6963 28.1608 23.6963 28.1614ZM17.4449 18.2698C16.1076 14.6556 14.7795 11.066 13.4909 7.58342C12.2005 11.0728 10.874 14.6598 9.53894 18.2698C12.1924 18.2698 14.7983 18.2698 17.4449 18.2698Z" fill="white"/>
<path d="M46.6147 0.248646C50.3723 0.220682 53.585 1.1694 56.355 3.43942C56.8887 3.87682 56.9162 4.15239 56.4817 4.67769C55.8314 5.46386 55.1811 6.25007 54.5278 7.03376C54.0834 7.56689 53.7753 7.61182 53.2114 7.18698C51.982 6.26064 50.6167 5.64124 49.107 5.3518C47.8288 5.10674 46.5492 5.09178 45.3062 5.52477C44.9004 5.66612 44.4945 5.87955 44.1642 6.15167C43.1063 7.023 43.057 8.59299 44.0229 9.56419C44.6324 10.177 45.3934 10.5525 46.1872 10.8426C47.6885 11.3913 49.2104 11.8834 50.7134 12.4274C51.9732 12.8834 53.1759 13.4623 54.2993 14.2022C56.3805 15.573 57.4236 17.5094 57.5282 19.9869C57.6132 22.0005 57.1623 23.8423 55.8579 25.4186C54.5616 26.9851 52.86 27.9244 50.9071 28.3426C45.6405 29.4704 41.0261 28.2323 37.1774 24.3893C36.6854 23.898 36.6885 23.5778 37.1855 23.076C37.9114 22.3432 38.6417 21.6148 39.3731 20.8875C39.8524 20.411 40.1409 20.4007 40.6314 20.8767C41.7837 21.995 43.1011 22.8408 44.6426 23.308C46.4615 23.8592 48.2943 23.956 50.1 23.2814C52.0272 22.5615 52.7358 20.4592 51.6252 18.858C51.1052 18.1082 50.3538 17.6382 49.5294 17.3259C48.2917 16.8572 47.0275 16.4576 45.7692 16.045C44.1935 15.5283 42.6563 14.9351 41.2407 14.0496C38.7215 12.4738 37.7754 10.1413 37.9443 7.27058C38.1317 4.08444 40.2293 1.57529 43.8064 0.650734C44.23 0.541248 44.6615 0.451039 45.0949 0.393566C45.6704 0.317251 46.2513 0.281904 46.6147 0.248646Z" fill="white"/>
<path d="M134.647 6.94404C134.833 6.06895 135.009 5.12889 135.16 4.19018C135.21 3.87986 135.014 3.58288 134.709 3.50726L133.026 3.09016C132.683 3.0051 132.339 3.2322 132.285 3.5816C132.142 4.49359 131.984 5.37395 131.811 6.2227C131.748 6.53042 131.934 6.83427 132.236 6.92106L133.889 7.39646C134.225 7.49306 134.574 7.28596 134.647 6.94404Z" fill="#00C4FF"/>
<path d="M131.061 11.3916C130.744 11.2447 130.369 11.397 130.243 11.723C127.596 18.6263 123.804 22.7152 118.847 23.4534C113.622 24.2315 109.228 21.6356 108.132 16.6019C107.301 12.7837 108.621 8.62397 111.707 6.55836C116.314 3.47511 124.785 4.64972 126.058 13.6981C126.199 15.536 128.178 15.2533 128.32 12.1429C128.885 5.498 123.227 0.309633 116.699 0.248702C108.735 0.174371 102.507 6.43094 102.475 14.4193C102.442 22.4015 108.689 28.722 116.639 28.7513C122.551 28.7513 128.178 26.1396 131.758 20.3206C131.945 20.0177 131.887 19.6273 131.582 19.4443L130.575 18.8404C130.277 18.6613 130.193 18.2686 130.389 17.9811C130.903 17.2288 131.354 16.2951 131.758 15.4713C131.896 15.1896 132.227 15.0608 132.519 15.175L133.797 15.6749C134.097 15.7919 134.434 15.6535 134.568 15.3614C135.134 14.1281 135.645 12.8061 136.092 11.3953C136.195 11.0733 136.017 10.7293 135.694 10.631L134.263 10.1957C133.951 10.1008 133.625 10.2754 133.521 10.5845C133.403 10.9354 133.268 11.273 133.117 11.5981C132.976 11.9026 132.617 12.0378 132.313 11.8965L131.061 11.3916Z" fill="white"/>
<path d="M2.66181 52.6474C2.78476 52.7431 2.93498 52.8697 3.11267 53.0266C3.29009 53.1838 3.49505 53.3442 3.72749 53.5082C4.06886 53.7407 4.4141 53.9216 4.76251 54.0512C5.11092 54.1813 5.46955 54.246 5.83847 54.246C6.54869 54.246 7.03033 54.1025 7.28334 53.8156C7.53601 53.5287 7.66248 53.1941 7.66248 52.8113C7.66248 52.593 7.58046 52.4015 7.41651 52.2375C7.25255 52.0736 7.05788 51.9269 6.83242 51.7969C6.60702 51.6672 6.36782 51.558 6.11515 51.469C5.86215 51.3803 5.6402 51.3018 5.44905 51.2333C3.79569 50.6594 2.56254 49.9831 1.74981 49.2043C0.936733 48.4256 0.5304 47.4351 0.5304 46.2326C0.5304 45.5905 0.660044 45.01 0.91975 44.4906C1.17918 43.9715 1.54485 43.5273 2.01621 43.1584C2.48757 42.7895 3.05793 42.5061 3.72749 42.3079C4.39677 42.11 5.14164 42.0107 5.96142 42.0107C6.57623 42.0107 7.17379 42.0793 7.7547 42.2157C8.33528 42.3525 8.89887 42.5779 9.44548 42.892C9.90979 43.1655 10.313 43.4454 10.6547 43.7323C10.996 44.0192 11.167 44.2584 11.167 44.4496C11.167 44.5726 11.078 44.7365 10.9006 44.9415L9.32253 46.622C9.21297 46.7315 9.09706 46.7859 8.97411 46.7859C8.87836 46.7859 8.79283 46.7587 8.71793 46.704C8.64268 46.6495 8.55715 46.581 8.46175 46.499L8.3593 46.4171C8.08579 46.1849 7.7547 45.9559 7.36528 45.7305C6.97587 45.5051 6.56249 45.3924 6.12537 45.3924C5.67451 45.3924 5.28509 45.4676 4.95718 45.6178C4.62927 45.7683 4.46532 46.0414 4.46532 46.4376C4.46532 46.8202 4.65647 47.1139 5.0392 47.3188C5.4215 47.5238 5.98861 47.7492 6.74018 47.9951C7.46421 48.2411 8.13384 48.494 8.74865 48.7535C9.36353 49.0132 9.89281 49.3241 10.337 49.686C10.7809 50.0481 11.126 50.4785 11.372 50.9771C11.6179 51.476 11.7408 52.0806 11.7408 52.7908C11.7408 53.5425 11.5872 54.2223 11.2798 54.8301C10.9724 55.4382 10.5522 55.9573 10.0194 56.3876C9.48648 56.818 8.85786 57.153 8.13384 57.3918C7.40947 57.6308 6.6307 57.7505 5.79746 57.7505C5.26459 57.7505 4.73848 57.682 4.21935 57.5456C3.69994 57.4092 3.19786 57.2247 2.71304 56.9922C2.22787 56.7601 1.77349 56.4869 1.35017 56.1724C0.926514 55.8583 0.550834 55.5166 0.222923 55.1477L0.181988 55.1272C0.16818 55.1 0.154443 55.083 0.140982 55.076C0.127174 55.0693 0.113437 55.059 0.0999759 55.0453C-0.0505193 54.8813 -0.125488 54.7449 -0.125488 54.6353C-0.125488 54.5262 -0.0505193 54.3965 0.0999759 54.246L1.88298 52.5449C2.01946 52.4495 2.13564 52.4015 2.23139 52.4015C2.3406 52.4015 2.48405 52.4834 2.66181 52.6474Z" fill="white"/>
<path d="M22.6356 57.0949V51.6392L17.9402 42.7897C17.8717 42.6396 17.8685 42.5268 17.93 42.4516C17.9915 42.3767 18.0972 42.3389 18.2477 42.3389H21.4695C21.7154 42.3389 21.9203 42.4894 22.0843 42.7897L24.6235 47.9134L27.1628 42.7897C27.2992 42.4894 27.5042 42.3389 27.7776 42.3389H31.0404C31.1906 42.3389 31.2966 42.3767 31.358 42.4516C31.4196 42.5268 31.4093 42.6396 31.3273 42.7897L26.6115 51.6187V57.0949C26.6115 57.3956 26.461 57.5458 26.1606 57.5458H23.0864C22.7858 57.5458 22.6356 57.3956 22.6356 57.0949Z" fill="white"/>
<path d="M39.9104 52.6474C40.0333 52.7431 40.1835 52.8697 40.3612 53.0266C40.5386 53.1838 40.7436 53.3442 40.976 53.5082C41.3174 53.7407 41.6626 53.9216 42.011 54.0512C42.3595 54.1813 42.7181 54.246 43.087 54.246C43.7972 54.246 44.2789 54.1025 44.5319 53.8156C44.7845 53.5287 44.911 53.1941 44.911 52.8113C44.911 52.593 44.829 52.4015 44.665 52.2375C44.5011 52.0736 44.3064 51.9269 44.081 51.7969C43.8556 51.6672 43.6164 51.558 43.3637 51.469C43.1107 51.3803 42.8887 51.3018 42.6976 51.2333C41.0442 50.6594 39.8111 49.9831 38.9984 49.2043C38.1853 48.4256 37.7789 47.4351 37.7789 46.2326C37.7789 45.5905 37.9086 45.01 38.1683 44.4906C38.4277 43.9715 38.7934 43.5273 39.2647 43.1584C39.7361 42.7895 40.3065 42.5061 40.976 42.3079C41.6453 42.11 42.3902 42.0107 43.21 42.0107C43.8248 42.0107 44.4223 42.0793 45.0032 42.2157C45.5838 42.3525 46.1474 42.5779 46.694 42.892C47.1583 43.1655 47.5615 43.4454 47.9032 43.7323C48.2446 44.0192 48.4156 44.2584 48.4156 44.4496C48.4156 44.5726 48.3265 44.7365 48.1491 44.9415L46.5711 46.622C46.4615 46.7315 46.3456 46.7859 46.2227 46.7859C46.1269 46.7859 46.0414 46.7587 45.9665 46.704C45.8912 46.6495 45.8057 46.581 45.7103 46.499L45.6078 46.4171C45.3343 46.1849 45.0032 45.9559 44.6138 45.7305C44.2244 45.5051 43.811 45.3924 43.3739 45.3924C42.9231 45.3924 42.5336 45.4676 42.2057 45.6178C41.8778 45.7683 41.7139 46.0414 41.7139 46.4376C41.7139 46.8202 41.905 47.1139 42.2877 47.3188C42.67 47.5238 43.2372 47.7492 43.9887 47.9951C44.7128 48.2411 45.3824 48.494 45.9972 48.7535C46.6121 49.0132 47.1414 49.3241 47.5855 49.686C48.0294 50.0481 48.3746 50.4785 48.6205 50.9771C48.8664 51.476 48.9894 52.0806 48.9894 52.7908C48.9894 53.5425 48.8357 54.2223 48.5283 54.8301C48.2209 55.4382 47.8008 55.9573 47.2679 56.3876C46.735 56.818 46.1064 57.153 45.3824 57.3918C44.658 57.6308 43.8792 57.7505 43.046 57.7505C42.5131 57.7505 41.987 57.682 41.4679 57.5456C40.9485 57.4092 40.4464 57.2247 39.9616 56.9922C39.4764 56.7601 39.022 56.4869 38.5987 56.1724C38.1751 55.8583 37.7994 55.5166 37.4715 55.1477L37.4305 55.1272C37.4167 55.1 37.403 55.083 37.3895 55.076C37.3757 55.0693 37.362 55.059 37.3485 55.0453C37.198 54.8813 37.123 54.7449 37.123 54.6353C37.123 54.5262 37.198 54.3965 37.3485 54.246L39.1315 52.5449C39.268 52.4495 39.3842 52.4015 39.4799 52.4015C39.5891 52.4015 39.7326 52.4834 39.9104 52.6474Z" fill="white"/>
<path d="M55.0952 45.3926V42.7897C55.0952 42.4894 55.2454 42.3389 55.5461 42.3389H66.6541C66.9545 42.3389 67.105 42.4894 67.105 42.7897V45.3926C67.105 45.6933 66.9545 45.8434 66.6541 45.8434H63.0266V57.0949C63.0266 57.3956 62.8694 57.5458 62.5552 57.5458H59.604C59.3033 57.5458 59.1532 57.3956 59.1532 57.0949V45.8434H55.5461C55.2454 45.8434 55.0952 45.6933 55.0952 45.3926Z" fill="white"/>
<path d="M75.585 57.0949V42.7897C75.585 42.4894 75.7352 42.3389 76.0358 42.3389H86.2216C86.522 42.3389 86.6725 42.4894 86.6725 42.7897V45.4131C86.6725 45.7137 86.522 45.8639 86.2216 45.8639H79.5404V48.3848H84.6231C84.951 48.3848 85.1149 48.542 85.1149 48.8561V50.967C85.1149 51.2677 84.951 51.418 84.6231 51.418H79.5404V54.0412H86.4266C86.7269 54.0412 86.8775 54.1917 86.8775 54.4921V57.0949C86.8775 57.3956 86.7269 57.5458 86.4266 57.5458H76.0358C75.7352 57.5458 75.585 57.3956 75.585 57.0949Z" fill="white"/>
<path d="M102.744 57.0744L100.366 48.8561L99.5057 57.0949C99.4919 57.3956 99.3418 57.5458 99.0549 57.5458H96.1446C95.8302 57.5458 95.6799 57.3956 95.6937 57.0949L97.2309 42.7897C97.2442 42.4894 97.3948 42.3389 97.6817 42.3389H101.268C101.418 42.3389 101.517 42.3767 101.565 42.4516C101.613 42.5268 101.664 42.6396 101.719 42.7897L104.506 51.9918L107.294 42.7897C107.348 42.6396 107.399 42.5268 107.447 42.4516C107.495 42.3767 107.594 42.3389 107.745 42.3389H111.331C111.618 42.3389 111.768 42.4894 111.782 42.7897L113.319 57.0949C113.332 57.3956 113.182 57.5458 112.868 57.5458H109.958C109.671 57.5458 109.52 57.3956 109.507 57.0949L108.667 49.0611L106.269 57.0744C106.214 57.2659 106.156 57.392 106.095 57.4536C106.033 57.5151 105.927 57.5458 105.777 57.5458H103.236C103.085 57.5458 102.976 57.5151 102.908 57.4536C102.839 57.392 102.785 57.2659 102.744 57.0744Z" fill="white"/>
<path d="M122.335 52.6474C122.458 52.7431 122.608 52.8697 122.786 53.0266C122.963 53.1838 123.168 53.3442 123.4 53.5082C123.742 53.7407 124.087 53.9216 124.435 54.0512C124.784 54.1813 125.142 54.246 125.511 54.246C126.222 54.246 126.703 54.1025 126.956 53.8156C127.209 53.5287 127.335 53.1941 127.335 52.8113C127.335 52.593 127.253 52.4015 127.089 52.2375C126.925 52.0736 126.731 51.9269 126.505 51.7969C126.28 51.6672 126.041 51.558 125.788 51.469C125.535 51.3803 125.313 51.3018 125.122 51.2333C123.469 50.6594 122.235 49.9831 121.423 49.2043C120.61 48.4256 120.203 47.4351 120.203 46.2326C120.203 45.5905 120.333 45.01 120.593 44.4906C120.852 43.9715 121.218 43.5273 121.689 43.1584C122.16 42.7895 122.731 42.5061 123.4 42.3079C124.07 42.11 124.814 42.0107 125.634 42.0107C126.249 42.0107 126.847 42.0793 127.428 42.2157C128.008 42.3525 128.572 42.5779 129.118 42.892C129.583 43.1655 129.986 43.4454 130.328 43.7323C130.669 44.0192 130.84 44.2584 130.84 44.4496C130.84 44.5726 130.751 44.7365 130.573 44.9415L128.995 46.622C128.886 46.7315 128.77 46.7859 128.647 46.7859C128.551 46.7859 128.466 46.7587 128.391 46.704C128.316 46.6495 128.23 46.581 128.135 46.499L128.032 46.4171C127.759 46.1849 127.428 45.9559 127.038 45.7305C126.649 45.5051 126.235 45.3924 125.798 45.3924C125.347 45.3924 124.958 45.4676 124.63 45.6178C124.302 45.7683 124.138 46.0414 124.138 46.4376C124.138 46.8202 124.329 47.1139 124.712 47.3188C125.094 47.5238 125.661 47.7492 126.413 47.9951C127.137 48.2411 127.807 48.494 128.422 48.7535C129.036 49.0132 129.566 49.3241 130.01 49.686C130.454 50.0481 130.799 50.4785 131.045 50.9771C131.291 51.476 131.414 52.0806 131.414 52.7908C131.414 53.5425 131.26 54.2223 130.953 54.8301C130.645 55.4382 130.225 55.9573 129.692 56.3876C129.159 56.818 128.531 57.153 127.807 57.3918C127.082 57.6308 126.304 57.7505 125.47 57.7505C124.937 57.7505 124.411 57.682 123.892 57.5456C123.373 57.4092 122.871 57.2247 122.386 56.9922C121.901 56.7601 121.446 56.4869 121.023 56.1724C120.599 55.8583 120.224 55.5166 119.896 55.1477L119.855 55.1272C119.841 55.1 119.827 55.083 119.814 55.076C119.8 55.0693 119.786 55.059 119.773 55.0453C119.622 54.8813 119.547 54.7449 119.547 54.6353C119.547 54.5262 119.622 54.3965 119.773 54.246L121.556 52.5449C121.692 52.4495 121.808 52.4015 121.904 52.4015C122.013 52.4015 122.157 52.4834 122.335 52.6474Z" fill="white"/>
<path d="M93.0014 27.0238C91.482 25.3115 85.3708 18.4 82.2757 14.8992C82.0674 14.6635 82.0678 14.3103 82.2761 14.0747C86.2467 9.58308 91.2279 3.94928 93.0014 1.95062C93.1318 1.80362 93.267 1.65383 93.3624 1.48421C93.5427 1.1637 93.4221 0.901295 93.0652 0.806581C92.9507 0.776204 92.8269 0.771346 92.7073 0.771183C91.1383 0.768991 89.5692 0.774659 88.0002 0.766626C87.5518 0.764332 87.2096 0.922495 86.9114 1.26475C85.1406 3.29661 78.911 10.3945 76.1635 13.5254C76.0603 13.643 75.867 13.5693 75.867 13.4128L75.8669 1.68408C75.8667 0.889852 75.5757 0.714863 74.6256 0.783833C73.6876 0.851932 72.745 0.862628 71.8074 0.787929C70.7966 0.707387 70.4809 0.878945 70.4808 1.69566C70.4797 10.2101 70.4796 18.7245 70.481 27.2389C70.4811 28.0282 70.8189 28.2265 71.7908 28.1438C72.6605 28.0699 73.5342 28.063 74.404 28.1361C75.5435 28.2318 75.8669 28.084 75.8672 27.19L75.8671 15.541C75.8671 15.3845 76.0605 15.3108 76.1636 15.4286C78.9112 18.5645 85.1406 25.6778 86.9114 27.7097C87.2096 28.0519 87.5518 28.2101 88.0002 28.2078C89.5692 28.1998 91.1383 28.2054 92.7073 28.2032C92.8269 28.2031 92.9507 28.1982 93.0652 28.1678C93.4221 28.0731 93.5427 27.8107 93.3624 27.4902C93.267 27.3206 93.1318 27.1708 93.0014 27.0238Z" fill="white"/>
<path d="M116.639 28.7513C122.551 28.7513 128.178 26.1397 131.758 20.3207C131.944 20.0177 131.887 19.6274 131.582 19.4444L130.575 18.8405C130.277 18.6613 130.193 18.2687 130.389 17.9811C130.903 17.2289 131.354 16.2952 131.758 15.4713C131.896 15.1896 132.227 15.0609 132.519 15.1751L133.797 15.675C134.097 15.792 134.434 15.6536 134.568 15.3615C135.134 14.1281 135.645 12.8062 136.092 11.3953C136.195 11.0733 136.017 10.7293 135.694 10.631L134.263 10.1958C133.951 10.1009 133.625 10.2755 133.521 10.5845C133.403 10.9354 133.268 11.273 133.117 11.5981C132.976 11.9027 132.617 12.0378 132.313 11.8966L131.06 11.3917C130.744 11.2448 130.369 11.397 130.243 11.723C127.596 18.6264 123.804 22.7152 118.847 23.4534L116.639 28.7513Z" fill="url(#paint0_linear_264_3704)"/>
<path d="M132.138 14.342C132.014 14.6905 132.192 15.0745 132.539 15.2034L133.802 15.6723C134.101 15.7893 134.438 15.6509 134.572 15.3588C135.139 14.1254 135.649 12.8034 136.097 11.3925C136.199 11.0706 136.021 10.7266 135.698 10.6283L134.267 10.1931C133.961 10.1 133.632 10.2635 133.53 10.5669C133.411 10.9231 133.274 11.2657 133.122 11.5954L132.138 14.342Z" fill="#42C2FF"/>
</g>
<defs>
<linearGradient id="paint0_linear_264_3704" x1="120.164" y1="30.7869" x2="132.782" y2="8.93204" gradientUnits="userSpaceOnUse">
<stop offset="0.292" stop-color="white"/>
<stop offset="1" stop-color="#00ACE7"/>
</linearGradient>
<clipPath id="clip0_264_3704">
<rect width="137" height="58" fill="white"/>
</clipPath>
</defs>
</svg>
