<svg width="137" height="58" viewBox="0 0 137 58" fill="none" xmlns="http://www.w3.org/2000/svg">
<g clip-path="url(#clip0_507_1320)">
<path d="M23.6963 28.1619C23.1038 28.1619 22.5113 28.1623 21.9187 28.1618C21.2495 28.1612 21.0441 28.0218 20.8149 27.4027C20.2939 25.9956 19.7692 24.5897 19.2617 23.1777C19.181 22.9535 19.0772 22.886 18.8432 22.8865C15.2771 22.8943 11.711 22.8951 8.14491 22.8852C7.8871 22.8845 7.79301 22.9741 7.71044 23.204C7.2032 24.6161 6.67962 26.0223 6.15794 27.4292C5.9419 28.0118 5.72216 28.1611 5.10136 28.1616C3.8834 28.1626 2.66543 28.1633 1.44746 28.1614C0.654582 28.1601 0.440234 27.8424 0.738347 27.0971C4.15112 18.5648 7.5654 10.033 10.9806 1.50166C11.2049 0.941262 11.4576 0.771922 12.0541 0.770579C13.0197 0.768407 13.9853 0.768672 14.9508 0.770537C15.5595 0.77171 15.8084 0.933661 16.0306 1.49035C19.4321 10.0154 22.8321 18.5412 26.232 27.0669C26.2644 27.1482 26.2954 27.2306 26.3184 27.3149C26.4544 27.8122 26.2219 28.1455 25.7042 28.1566C25.0352 28.1711 24.3656 28.1602 23.6963 28.1602C23.6963 28.1607 23.6963 28.1613 23.6963 28.1619ZM17.4449 18.2703C16.1076 14.6561 14.7795 11.0665 13.4909 7.58391C12.2005 11.0733 10.874 14.6602 9.53894 18.2703C12.1924 18.2703 14.7983 18.2703 17.4449 18.2703Z" fill="#191919"/>
<path d="M46.6148 0.249135C50.3725 0.22117 53.5851 1.16989 56.3551 3.43991C56.8888 3.87731 56.9163 4.15287 56.4818 4.67817C55.8315 5.46435 55.1812 6.25056 54.528 7.03424C54.0835 7.56738 53.7754 7.6123 53.2116 7.18747C51.9822 6.26113 50.6168 5.64173 49.1071 5.35229C47.8289 5.10723 46.5493 5.09227 45.3064 5.52525C44.9006 5.66661 44.4947 5.88004 44.1643 6.15216C43.1064 7.02349 43.0571 8.59348 44.023 9.56467C44.6325 10.1775 45.3936 10.553 46.1874 10.8431C47.6886 11.3918 49.2105 11.8839 50.7136 12.4279C51.9733 12.8839 53.1761 13.4628 54.2994 14.2027C56.3806 15.5734 57.4237 17.5099 57.5283 19.9874C57.6133 22.001 57.1624 23.8428 55.858 25.4191C54.5617 26.9856 52.8601 27.9249 50.9072 28.3431C45.6406 29.4709 41.0263 28.2328 37.1775 24.3898C36.6855 23.8985 36.6886 23.5783 37.1857 23.0764C37.9115 22.3437 38.6418 21.6153 39.3732 20.888C39.8525 20.4115 40.141 20.4012 40.6315 20.8772C41.7838 21.9955 43.1013 22.8413 44.6428 23.3085C46.4616 23.8597 48.2944 23.9565 50.1001 23.2819C52.0273 22.562 52.7359 20.4597 51.6253 18.8585C51.1053 18.1087 50.354 17.6387 49.5295 17.3264C48.2919 16.8577 47.0276 16.4581 45.7693 16.0455C44.1936 15.5288 42.6564 14.9355 41.2409 14.0501C38.7216 12.4743 37.7755 10.1418 37.9444 7.27106C38.1319 4.08493 40.2294 1.57578 43.8065 0.651222C44.2301 0.541736 44.6616 0.451527 45.095 0.394054C45.6705 0.317739 46.2514 0.282393 46.6148 0.249135Z" fill="#191919"/>
<path  d="M134.647 6.94452C134.833 6.06944 135.009 5.12937 135.16 4.19067C135.21 3.88035 135.014 3.58337 134.709 3.50775L133.026 3.09065C132.683 3.00559 132.339 3.23269 132.285 3.58209C132.142 4.49408 131.984 5.37444 131.811 6.22319C131.748 6.5309 131.934 6.83476 132.236 6.92155L133.889 7.39694C134.225 7.49355 134.574 7.28645 134.647 6.94452Z" fill="#00C4FF"/>
<path d="M131.061 11.3921C130.744 11.2452 130.369 11.3975 130.243 11.7235C127.596 18.6268 123.804 22.7157 118.847 23.4539C113.622 24.232 109.228 21.6361 108.132 16.6024C107.301 12.7842 108.621 8.62446 111.707 6.55885C116.314 3.4756 124.785 4.65021 126.058 13.6986C126.199 15.5365 128.178 15.2538 128.32 12.1434C128.885 5.49849 123.227 0.310121 116.699 0.249191C108.735 0.174859 102.507 6.43143 102.475 14.4198C102.442 22.4019 108.689 28.7224 116.639 28.7518C122.551 28.7518 128.178 26.1401 131.758 20.3211C131.945 20.0181 131.887 19.6278 131.582 19.4448L130.575 18.8409C130.277 18.6618 130.193 18.2691 130.389 17.9816C130.903 17.2293 131.354 16.2956 131.758 15.4718C131.896 15.1901 132.227 15.0613 132.519 15.1755L133.797 15.6754C134.097 15.7924 134.434 15.654 134.568 15.3619C135.134 14.1286 135.645 12.8066 136.092 11.3958C136.195 11.0738 136.017 10.7298 135.694 10.6315L134.263 10.1962C133.951 10.1013 133.625 10.2759 133.521 10.585C133.403 10.9359 133.268 11.2734 133.117 11.5986C132.976 11.9031 132.617 12.0383 132.313 11.897L131.061 11.3921Z" fill="#191919"/>
<path d="M2.66181 52.6483C2.78476 52.7441 2.93498 52.8706 3.11267 53.0276C3.29009 53.1847 3.49505 53.3452 3.72749 53.5091C4.06886 53.7416 4.4141 53.9226 4.76251 54.0522C5.11092 54.1823 5.46955 54.247 5.83847 54.247C6.54869 54.247 7.03033 54.1035 7.28334 53.8165C7.53601 53.5296 7.66248 53.195 7.66248 52.8123C7.66248 52.594 7.58046 52.4025 7.41651 52.2385C7.25255 52.0745 7.05788 51.9278 6.83242 51.7979C6.60702 51.6681 6.36782 51.5589 6.11515 51.4699C5.86215 51.3812 5.6402 51.3028 5.44905 51.2343C3.79569 50.6604 2.56254 49.9841 1.74981 49.2053C0.936733 48.4265 0.5304 47.436 0.5304 46.2336C0.5304 45.5915 0.660044 45.011 0.91975 44.4915C1.17918 43.9725 1.54485 43.5283 2.01621 43.1594C2.48757 42.7905 3.05793 42.5071 3.72749 42.3089C4.39677 42.111 5.14164 42.0117 5.96142 42.0117C6.57623 42.0117 7.17379 42.0803 7.7547 42.2167C8.33528 42.3534 8.89887 42.5788 9.44548 42.893C9.90979 43.1664 10.313 43.4464 10.6547 43.7333C10.996 44.0202 11.167 44.2594 11.167 44.4505C11.167 44.5736 11.078 44.7375 10.9006 44.9425L9.32253 46.623C9.21297 46.7325 9.09706 46.7869 8.97411 46.7869C8.87836 46.7869 8.79283 46.7597 8.71793 46.705C8.64268 46.6505 8.55715 46.582 8.46175 46.5L8.3593 46.4181C8.08579 46.1859 7.7547 45.9569 7.36528 45.7315C6.97587 45.5061 6.56249 45.3933 6.12537 45.3933C5.67451 45.3933 5.28509 45.4686 4.95718 45.6187C4.62927 45.7693 4.46532 46.0424 4.46532 46.4386C4.46532 46.8212 4.65647 47.1149 5.0392 47.3198C5.4215 47.5247 5.98861 47.7502 6.74018 47.9961C7.46421 48.2421 8.13384 48.495 8.74865 48.7544C9.36353 49.0141 9.89281 49.3251 10.337 49.6869C10.7809 50.0491 11.126 50.4795 11.372 50.9781C11.6179 51.477 11.7408 52.0816 11.7408 52.7918C11.7408 53.5434 11.5872 54.2233 11.2798 54.8311C10.9724 55.4392 10.5522 55.9582 10.0194 56.3886C9.48648 56.819 8.85786 57.154 8.13384 57.3928C7.40947 57.6318 6.6307 57.7515 5.79746 57.7515C5.26459 57.7515 4.73848 57.683 4.21935 57.5466C3.69994 57.4102 3.19786 57.2257 2.71304 56.9932C2.22787 56.761 1.77349 56.4879 1.35017 56.1734C0.926514 55.8593 0.550834 55.5176 0.222923 55.1487L0.181988 55.1282C0.16818 55.101 0.154443 55.084 0.140982 55.077C0.127174 55.0703 0.113437 55.06 0.0999759 55.0462C-0.0505193 54.8823 -0.125488 54.7459 -0.125488 54.6363C-0.125488 54.5272 -0.0505193 54.3975 0.0999759 54.247L1.88298 52.5459C2.01946 52.4505 2.13564 52.4025 2.23139 52.4025C2.3406 52.4025 2.48405 52.4844 2.66181 52.6483Z" fill="#191919"/>
<path d="M22.6356 57.0954V51.6397L17.9402 42.7902C17.8717 42.6401 17.8685 42.5273 17.93 42.4521C17.9915 42.3772 18.0972 42.3394 18.2477 42.3394H21.4695C21.7154 42.3394 21.9203 42.4899 22.0843 42.7902L24.6235 47.9139L27.1628 42.7902C27.2992 42.4899 27.5042 42.3394 27.7776 42.3394H31.0404C31.1906 42.3394 31.2966 42.3772 31.358 42.4521C31.4196 42.5273 31.4093 42.6401 31.3273 42.7902L26.6115 51.6192V57.0954C26.6115 57.3961 26.461 57.5463 26.1606 57.5463H23.0864C22.7858 57.5463 22.6356 57.3961 22.6356 57.0954Z" fill="#191919"/>
<path d="M39.9104 52.6483C40.0333 52.7441 40.1835 52.8706 40.3612 53.0276C40.5386 53.1847 40.7436 53.3452 40.976 53.5091C41.3174 53.7416 41.6626 53.9226 42.011 54.0522C42.3595 54.1823 42.7181 54.247 43.087 54.247C43.7972 54.247 44.2789 54.1035 44.5319 53.8165C44.7845 53.5296 44.911 53.195 44.911 52.8123C44.911 52.594 44.829 52.4025 44.665 52.2385C44.5011 52.0745 44.3064 51.9278 44.081 51.7979C43.8556 51.6681 43.6164 51.5589 43.3637 51.4699C43.1107 51.3812 42.8887 51.3028 42.6976 51.2343C41.0442 50.6604 39.8111 49.9841 38.9984 49.2053C38.1853 48.4265 37.7789 47.436 37.7789 46.2336C37.7789 45.5915 37.9086 45.011 38.1683 44.4915C38.4277 43.9725 38.7934 43.5283 39.2647 43.1594C39.7361 42.7905 40.3065 42.5071 40.976 42.3089C41.6453 42.111 42.3902 42.0117 43.21 42.0117C43.8248 42.0117 44.4223 42.0803 45.0032 42.2167C45.5838 42.3534 46.1474 42.5788 46.694 42.893C47.1583 43.1664 47.5615 43.4464 47.9032 43.7333C48.2446 44.0202 48.4156 44.2594 48.4156 44.4505C48.4156 44.5736 48.3265 44.7375 48.1491 44.9425L46.5711 46.623C46.4615 46.7325 46.3456 46.7869 46.2227 46.7869C46.1269 46.7869 46.0414 46.7597 45.9665 46.705C45.8912 46.6505 45.8057 46.582 45.7103 46.5L45.6078 46.4181C45.3343 46.1859 45.0032 45.9569 44.6138 45.7315C44.2244 45.5061 43.811 45.3933 43.3739 45.3933C42.9231 45.3933 42.5336 45.4686 42.2057 45.6187C41.8778 45.7693 41.7139 46.0424 41.7139 46.4386C41.7139 46.8212 41.905 47.1149 42.2877 47.3198C42.67 47.5247 43.2372 47.7502 43.9887 47.9961C44.7128 48.2421 45.3824 48.495 45.9972 48.7544C46.6121 49.0141 47.1414 49.3251 47.5855 49.6869C48.0294 50.0491 48.3746 50.4795 48.6205 50.9781C48.8664 51.477 48.9894 52.0816 48.9894 52.7918C48.9894 53.5434 48.8357 54.2233 48.5283 54.8311C48.2209 55.4392 47.8008 55.9582 47.2679 56.3886C46.735 56.819 46.1064 57.154 45.3824 57.3928C44.658 57.6318 43.8792 57.7515 43.046 57.7515C42.5131 57.7515 41.987 57.683 41.4679 57.5466C40.9485 57.4102 40.4464 57.2257 39.9616 56.9932C39.4764 56.761 39.022 56.4879 38.5987 56.1734C38.1751 55.8593 37.7994 55.5176 37.4715 55.1487L37.4305 55.1282C37.4167 55.101 37.403 55.084 37.3895 55.077C37.3757 55.0703 37.362 55.06 37.3485 55.0462C37.198 54.8823 37.123 54.7459 37.123 54.6363C37.123 54.5272 37.198 54.3975 37.3485 54.247L39.1315 52.5459C39.268 52.4505 39.3842 52.4025 39.4799 52.4025C39.5891 52.4025 39.7326 52.4844 39.9104 52.6483Z" fill="#191919"/>
<path d="M55.0952 45.3931V42.7902C55.0952 42.4899 55.2454 42.3394 55.5461 42.3394H66.6541C66.9545 42.3394 67.105 42.4899 67.105 42.7902V45.3931C67.105 45.6938 66.9545 45.8439 66.6541 45.8439H63.0266V57.0954C63.0266 57.3961 62.8694 57.5463 62.5552 57.5463H59.604C59.3033 57.5463 59.1532 57.3961 59.1532 57.0954V45.8439H55.5461C55.2454 45.8439 55.0952 45.6938 55.0952 45.3931Z" fill="#191919"/>
<path d="M75.585 57.0954V42.7902C75.585 42.4899 75.7352 42.3394 76.0358 42.3394H86.2216C86.522 42.3394 86.6725 42.4899 86.6725 42.7902V45.4136C86.6725 45.7142 86.522 45.8644 86.2216 45.8644H79.5404V48.3852H84.6231C84.951 48.3852 85.1149 48.5425 85.1149 48.8566V50.9675C85.1149 51.2682 84.951 51.4184 84.6231 51.4184H79.5404V54.0417H86.4266C86.7269 54.0417 86.8775 54.1922 86.8775 54.4926V57.0954C86.8775 57.3961 86.7269 57.5463 86.4266 57.5463H76.0358C75.7352 57.5463 75.585 57.3961 75.585 57.0954Z" fill="#191919"/>
<path d="M102.744 57.0749L100.366 48.8566L99.5057 57.0954C99.4919 57.3961 99.3418 57.5463 99.0549 57.5463H96.1446C95.8302 57.5463 95.6799 57.3961 95.6937 57.0954L97.2309 42.7902C97.2442 42.4899 97.3948 42.3394 97.6817 42.3394H101.268C101.418 42.3394 101.517 42.3772 101.565 42.4521C101.613 42.5273 101.664 42.6401 101.719 42.7902L104.506 51.9922L107.294 42.7902C107.348 42.6401 107.399 42.5273 107.447 42.4521C107.495 42.3772 107.594 42.3394 107.745 42.3394H111.331C111.618 42.3394 111.768 42.4899 111.782 42.7902L113.319 57.0954C113.332 57.3961 113.182 57.5463 112.868 57.5463H109.958C109.671 57.5463 109.52 57.3961 109.507 57.0954L108.667 49.0616L106.269 57.0749C106.214 57.2664 106.156 57.3925 106.095 57.454C106.033 57.5156 105.927 57.5463 105.777 57.5463H103.236C103.085 57.5463 102.976 57.5156 102.908 57.454C102.839 57.3925 102.785 57.2664 102.744 57.0749Z" fill="#191919"/>
<path d="M122.335 52.6483C122.458 52.7441 122.608 52.8706 122.786 53.0276C122.963 53.1847 123.168 53.3452 123.4 53.5091C123.742 53.7416 124.087 53.9226 124.435 54.0522C124.784 54.1823 125.142 54.247 125.511 54.247C126.222 54.247 126.703 54.1035 126.956 53.8165C127.209 53.5296 127.335 53.195 127.335 52.8123C127.335 52.594 127.253 52.4025 127.089 52.2385C126.925 52.0745 126.731 51.9278 126.505 51.7979C126.28 51.6681 126.041 51.5589 125.788 51.4699C125.535 51.3812 125.313 51.3028 125.122 51.2343C123.469 50.6604 122.235 49.9841 121.423 49.2053C120.61 48.4265 120.203 47.436 120.203 46.2336C120.203 45.5915 120.333 45.011 120.593 44.4915C120.852 43.9725 121.218 43.5283 121.689 43.1594C122.16 42.7905 122.731 42.5071 123.4 42.3089C124.07 42.111 124.814 42.0117 125.634 42.0117C126.249 42.0117 126.847 42.0803 127.428 42.2167C128.008 42.3534 128.572 42.5788 129.118 42.893C129.583 43.1664 129.986 43.4464 130.328 43.7333C130.669 44.0202 130.84 44.2594 130.84 44.4505C130.84 44.5736 130.751 44.7375 130.573 44.9425L128.995 46.623C128.886 46.7325 128.77 46.7869 128.647 46.7869C128.551 46.7869 128.466 46.7597 128.391 46.705C128.316 46.6505 128.23 46.582 128.135 46.5L128.032 46.4181C127.759 46.1859 127.428 45.9569 127.038 45.7315C126.649 45.5061 126.235 45.3933 125.798 45.3933C125.347 45.3933 124.958 45.4686 124.63 45.6187C124.302 45.7693 124.138 46.0424 124.138 46.4386C124.138 46.8212 124.329 47.1149 124.712 47.3198C125.094 47.5247 125.661 47.7502 126.413 47.9961C127.137 48.2421 127.807 48.495 128.422 48.7544C129.036 49.0141 129.566 49.3251 130.01 49.6869C130.454 50.0491 130.799 50.4795 131.045 50.9781C131.291 51.477 131.414 52.0816 131.414 52.7918C131.414 53.5434 131.26 54.2233 130.953 54.8311C130.645 55.4392 130.225 55.9582 129.692 56.3886C129.159 56.819 128.531 57.154 127.807 57.3928C127.082 57.6318 126.304 57.7515 125.47 57.7515C124.937 57.7515 124.411 57.683 123.892 57.5466C123.373 57.4102 122.871 57.2257 122.386 56.9932C121.901 56.761 121.446 56.4879 121.023 56.1734C120.599 55.8593 120.224 55.5176 119.896 55.1487L119.855 55.1282C119.841 55.101 119.827 55.084 119.814 55.077C119.8 55.0703 119.786 55.06 119.773 55.0462C119.622 54.8823 119.547 54.7459 119.547 54.6363C119.547 54.5272 119.622 54.3975 119.773 54.247L121.556 52.5459C121.692 52.4505 121.808 52.4025 121.904 52.4025C122.013 52.4025 122.157 52.4844 122.335 52.6483Z" fill="#191919"/>
<path d="M93.0015 27.0238C91.4821 25.3115 85.3709 18.4 82.2759 14.8992C82.0676 14.6635 82.0679 14.3103 82.2762 14.0747C86.2468 9.58308 91.228 3.94928 93.0015 1.95062C93.132 1.80362 93.2671 1.65383 93.3625 1.48421C93.5428 1.1637 93.4223 0.901295 93.0653 0.806581C92.9508 0.776204 92.827 0.771346 92.7074 0.771183C91.1384 0.768991 89.5694 0.774659 88.0004 0.766626C87.5519 0.764332 87.2097 0.922495 86.9115 1.26475C85.1407 3.29661 78.9112 10.3945 76.1636 13.5254C76.0604 13.643 75.8672 13.5693 75.8672 13.4128L75.8671 1.68408C75.8668 0.889852 75.5758 0.714863 74.6258 0.783833C73.6877 0.851932 72.7451 0.862628 71.8076 0.787929C70.7968 0.707387 70.481 0.878945 70.481 1.69566C70.4798 10.2101 70.4798 18.7245 70.4811 27.2389C70.4812 28.0282 70.819 28.2265 71.7909 28.1438C72.6606 28.0699 73.5343 28.063 74.4041 28.1361C75.5436 28.2318 75.8671 28.084 75.8673 27.19L75.8672 15.541C75.8672 15.3845 76.0606 15.3108 76.1637 15.4286C78.9113 18.5645 85.1407 25.6778 86.9115 27.7097C87.2097 28.0519 87.5519 28.2101 88.0004 28.2078C89.5694 28.1998 91.1384 28.2054 92.7074 28.2032C92.827 28.2031 92.9508 28.1982 93.0653 28.1678C93.4223 28.0731 93.5428 27.8107 93.3625 27.4902C93.2671 27.3206 93.132 27.1708 93.0015 27.0238Z" fill="#191919"/>
<path  d="M116.639 28.7518C122.551 28.7518 128.178 26.1401 131.758 20.3211C131.944 20.0182 131.887 19.6279 131.582 19.4449L130.575 18.841C130.277 18.6618 130.193 18.2691 130.389 17.9816C130.903 17.2293 131.354 16.2957 131.758 15.4718C131.896 15.1901 132.227 15.0614 132.519 15.1756L133.797 15.6754C134.097 15.7925 134.434 15.654 134.568 15.362C135.134 14.1286 135.645 12.8066 136.092 11.3958C136.195 11.0738 136.017 10.7298 135.694 10.6315L134.263 10.1963C133.951 10.1014 133.625 10.276 133.521 10.585C133.403 10.9359 133.268 11.2735 133.117 11.5986C132.976 11.9031 132.617 12.0383 132.313 11.8971L131.06 11.3921C130.744 11.2452 130.369 11.3975 130.243 11.7235C127.596 18.6268 123.804 22.7157 118.847 23.4539L116.639 28.7518Z" fill="url(#paint0_linear_507_1320)"/>
<path d="M132.138 14.3425C132.014 14.6909 132.192 15.075 132.539 15.2038L133.802 15.6728C134.101 15.7898 134.438 15.6514 134.572 15.3593C135.139 14.1259 135.649 12.8039 136.097 11.393C136.199 11.071 136.021 10.7271 135.698 10.6288L134.267 10.1936C133.961 10.1005 133.632 10.264 133.53 10.5673C133.411 10.9236 133.274 11.2662 133.122 11.5959L132.138 14.3425Z" fill="#42C2FF"/>
<g clip-path="url(#clip1_507_1320)">
<path d="M23.6963 28.1619C23.1038 28.1619 22.5113 28.1623 21.9187 28.1618C21.2495 28.1612 21.0441 28.0218 20.8149 27.4027C20.2939 25.9956 19.7692 24.5897 19.2617 23.1777C19.181 22.9535 19.0772 22.886 18.8432 22.8865C15.2771 22.8943 11.711 22.8951 8.14491 22.8852C7.8871 22.8845 7.79301 22.9741 7.71044 23.204C7.2032 24.6161 6.67962 26.0223 6.15794 27.4292C5.9419 28.0118 5.72216 28.1611 5.10136 28.1616C3.8834 28.1626 2.66543 28.1633 1.44746 28.1614C0.654582 28.1601 0.440234 27.8424 0.738347 27.0971C4.15112 18.5648 7.5654 10.033 10.9806 1.50166C11.2049 0.941262 11.4576 0.771922 12.0541 0.770579C13.0197 0.768407 13.9853 0.768672 14.9508 0.770537C15.5595 0.77171 15.8084 0.933661 16.0306 1.49035C19.4321 10.0154 22.8321 18.5412 26.232 27.0669C26.2644 27.1482 26.2954 27.2306 26.3184 27.3149C26.4544 27.8122 26.2219 28.1455 25.7042 28.1566C25.0352 28.1711 24.3656 28.1602 23.6963 28.1602C23.6963 28.1607 23.6963 28.1613 23.6963 28.1619ZM17.4449 18.2703C16.1076 14.6561 14.7795 11.0665 13.4909 7.58391C12.2005 11.0733 10.874 14.6602 9.53894 18.2703C12.1924 18.2703 14.7983 18.2703 17.4449 18.2703Z" fill="#191919"/>
<path d="M46.6148 0.249135C50.3725 0.22117 53.5851 1.16989 56.3551 3.43991C56.8888 3.87731 56.9163 4.15287 56.4818 4.67817C55.8315 5.46435 55.1812 6.25056 54.528 7.03424C54.0835 7.56738 53.7754 7.6123 53.2116 7.18747C51.9822 6.26113 50.6168 5.64173 49.1071 5.35229C47.8289 5.10723 46.5493 5.09227 45.3064 5.52525C44.9006 5.66661 44.4947 5.88004 44.1643 6.15216C43.1064 7.02349 43.0571 8.59348 44.023 9.56467C44.6325 10.1775 45.3936 10.553 46.1874 10.8431C47.6886 11.3918 49.2105 11.8839 50.7136 12.4279C51.9733 12.8839 53.1761 13.4628 54.2994 14.2027C56.3806 15.5734 57.4237 17.5099 57.5283 19.9874C57.6133 22.001 57.1624 23.8428 55.858 25.4191C54.5617 26.9856 52.8601 27.9249 50.9072 28.3431C45.6406 29.4709 41.0263 28.2328 37.1775 24.3898C36.6855 23.8985 36.6886 23.5783 37.1857 23.0764C37.9115 22.3437 38.6418 21.6153 39.3732 20.888C39.8525 20.4115 40.141 20.4012 40.6315 20.8772C41.7838 21.9955 43.1013 22.8413 44.6428 23.3085C46.4616 23.8597 48.2944 23.9565 50.1001 23.2819C52.0273 22.562 52.7359 20.4597 51.6253 18.8585C51.1053 18.1087 50.354 17.6387 49.5295 17.3264C48.2919 16.8577 47.0276 16.4581 45.7693 16.0455C44.1936 15.5288 42.6564 14.9355 41.2409 14.0501C38.7216 12.4743 37.7755 10.1418 37.9444 7.27106C38.1319 4.08493 40.2294 1.57578 43.8065 0.651222C44.2301 0.541736 44.6616 0.451527 45.095 0.394054C45.6705 0.317739 46.2514 0.282393 46.6148 0.249135Z" fill="#191919"/>
<path class="frame2" d="M134.647 6.94452C134.833 6.06944 135.009 5.12937 135.16 4.19067C135.21 3.88035 135.014 3.58337 134.709 3.50775L133.026 3.09065C132.683 3.00559 132.339 3.23269 132.285 3.58209C132.142 4.49408 131.984 5.37444 131.811 6.22319C131.748 6.5309 131.934 6.83476 132.236 6.92155L133.889 7.39694C134.225 7.49355 134.574 7.28645 134.647 6.94452Z" fill="#00C4FF"/>
<path d="M131.061 11.3921C130.744 11.2452 130.369 11.3975 130.243 11.7235C127.596 18.6268 123.804 22.7157 118.847 23.4539C113.622 24.232 109.228 21.6361 108.132 16.6024C107.301 12.7842 108.621 8.62446 111.707 6.55885C116.314 3.4756 124.785 4.65021 126.058 13.6986C126.199 15.5365 128.178 15.2538 128.32 12.1434C128.885 5.49849 123.227 0.310121 116.699 0.249191C108.735 0.174859 102.507 6.43143 102.475 14.4198C102.442 22.4019 108.689 28.7224 116.639 28.7518C122.551 28.7518 128.178 26.1401 131.758 20.3211C131.945 20.0181 131.887 19.6278 131.582 19.4448L130.575 18.8409C130.277 18.6618 130.193 18.2691 130.389 17.9816C130.903 17.2293 131.354 16.2956 131.758 15.4718C131.896 15.1901 132.227 15.0613 132.519 15.1755L133.797 15.6754C134.097 15.7924 134.434 15.654 134.568 15.3619C135.134 14.1286 135.645 12.8066 136.092 11.3958C136.195 11.0738 136.017 10.7298 135.694 10.6315L134.263 10.1962C133.951 10.1013 133.625 10.2759 133.521 10.585C133.403 10.9359 133.268 11.2734 133.117 11.5986C132.976 11.9031 132.617 12.0383 132.313 11.897L131.061 11.3921Z" fill="#191919"/>
<path d="M2.66181 52.6483C2.78476 52.7441 2.93498 52.8706 3.11267 53.0276C3.29009 53.1847 3.49505 53.3452 3.72749 53.5091C4.06886 53.7416 4.4141 53.9226 4.76251 54.0522C5.11092 54.1823 5.46955 54.247 5.83847 54.247C6.54869 54.247 7.03033 54.1035 7.28334 53.8165C7.53601 53.5296 7.66248 53.195 7.66248 52.8123C7.66248 52.594 7.58046 52.4025 7.41651 52.2385C7.25255 52.0745 7.05788 51.9278 6.83242 51.7979C6.60702 51.6681 6.36782 51.5589 6.11515 51.4699C5.86215 51.3812 5.6402 51.3028 5.44905 51.2343C3.79569 50.6604 2.56254 49.9841 1.74981 49.2053C0.936733 48.4265 0.5304 47.436 0.5304 46.2336C0.5304 45.5915 0.660044 45.011 0.91975 44.4915C1.17918 43.9725 1.54485 43.5283 2.01621 43.1594C2.48757 42.7905 3.05793 42.5071 3.72749 42.3089C4.39677 42.111 5.14164 42.0117 5.96142 42.0117C6.57623 42.0117 7.17379 42.0803 7.7547 42.2167C8.33528 42.3534 8.89887 42.5788 9.44548 42.893C9.90979 43.1664 10.313 43.4464 10.6547 43.7333C10.996 44.0202 11.167 44.2594 11.167 44.4505C11.167 44.5736 11.078 44.7375 10.9006 44.9425L9.32253 46.623C9.21297 46.7325 9.09706 46.7869 8.97411 46.7869C8.87836 46.7869 8.79283 46.7597 8.71793 46.705C8.64268 46.6505 8.55715 46.582 8.46175 46.5L8.3593 46.4181C8.08579 46.1859 7.7547 45.9569 7.36528 45.7315C6.97587 45.5061 6.56249 45.3933 6.12537 45.3933C5.67451 45.3933 5.28509 45.4686 4.95718 45.6187C4.62927 45.7693 4.46532 46.0424 4.46532 46.4386C4.46532 46.8212 4.65647 47.1149 5.0392 47.3198C5.4215 47.5247 5.98861 47.7502 6.74018 47.9961C7.46421 48.2421 8.13384 48.495 8.74865 48.7544C9.36353 49.0141 9.89281 49.3251 10.337 49.6869C10.7809 50.0491 11.126 50.4795 11.372 50.9781C11.6179 51.477 11.7408 52.0816 11.7408 52.7918C11.7408 53.5434 11.5872 54.2233 11.2798 54.8311C10.9724 55.4392 10.5522 55.9582 10.0194 56.3886C9.48648 56.819 8.85786 57.154 8.13384 57.3928C7.40947 57.6318 6.6307 57.7515 5.79746 57.7515C5.26459 57.7515 4.73848 57.683 4.21935 57.5466C3.69994 57.4102 3.19786 57.2257 2.71304 56.9932C2.22787 56.761 1.77349 56.4879 1.35017 56.1734C0.926514 55.8593 0.550834 55.5176 0.222923 55.1487L0.181988 55.1282C0.16818 55.101 0.154443 55.084 0.140982 55.077C0.127174 55.0703 0.113437 55.06 0.0999759 55.0462C-0.0505193 54.8823 -0.125488 54.7459 -0.125488 54.6363C-0.125488 54.5272 -0.0505193 54.3975 0.0999759 54.247L1.88298 52.5459C2.01946 52.4505 2.13564 52.4025 2.23139 52.4025C2.3406 52.4025 2.48405 52.4844 2.66181 52.6483Z" fill="#191919"/>
<path d="M22.6356 57.0954V51.6397L17.9402 42.7902C17.8717 42.6401 17.8685 42.5273 17.93 42.4521C17.9915 42.3772 18.0972 42.3394 18.2477 42.3394H21.4695C21.7154 42.3394 21.9203 42.4899 22.0843 42.7902L24.6235 47.9139L27.1628 42.7902C27.2992 42.4899 27.5042 42.3394 27.7776 42.3394H31.0404C31.1906 42.3394 31.2966 42.3772 31.358 42.4521C31.4196 42.5273 31.4093 42.6401 31.3273 42.7902L26.6115 51.6192V57.0954C26.6115 57.3961 26.461 57.5463 26.1606 57.5463H23.0864C22.7858 57.5463 22.6356 57.3961 22.6356 57.0954Z" fill="#191919"/>
<path d="M39.9104 52.6483C40.0333 52.7441 40.1835 52.8706 40.3612 53.0276C40.5386 53.1847 40.7436 53.3452 40.976 53.5091C41.3174 53.7416 41.6626 53.9226 42.011 54.0522C42.3595 54.1823 42.7181 54.247 43.087 54.247C43.7972 54.247 44.2789 54.1035 44.5319 53.8165C44.7845 53.5296 44.911 53.195 44.911 52.8123C44.911 52.594 44.829 52.4025 44.665 52.2385C44.5011 52.0745 44.3064 51.9278 44.081 51.7979C43.8556 51.6681 43.6164 51.5589 43.3637 51.4699C43.1107 51.3812 42.8887 51.3028 42.6976 51.2343C41.0442 50.6604 39.8111 49.9841 38.9984 49.2053C38.1853 48.4265 37.7789 47.436 37.7789 46.2336C37.7789 45.5915 37.9086 45.011 38.1683 44.4915C38.4277 43.9725 38.7934 43.5283 39.2647 43.1594C39.7361 42.7905 40.3065 42.5071 40.976 42.3089C41.6453 42.111 42.3902 42.0117 43.21 42.0117C43.8248 42.0117 44.4223 42.0803 45.0032 42.2167C45.5838 42.3534 46.1474 42.5788 46.694 42.893C47.1583 43.1664 47.5615 43.4464 47.9032 43.7333C48.2446 44.0202 48.4156 44.2594 48.4156 44.4505C48.4156 44.5736 48.3265 44.7375 48.1491 44.9425L46.5711 46.623C46.4615 46.7325 46.3456 46.7869 46.2227 46.7869C46.1269 46.7869 46.0414 46.7597 45.9665 46.705C45.8912 46.6505 45.8057 46.582 45.7103 46.5L45.6078 46.4181C45.3343 46.1859 45.0032 45.9569 44.6138 45.7315C44.2244 45.5061 43.811 45.3933 43.3739 45.3933C42.9231 45.3933 42.5336 45.4686 42.2057 45.6187C41.8778 45.7693 41.7139 46.0424 41.7139 46.4386C41.7139 46.8212 41.905 47.1149 42.2877 47.3198C42.67 47.5247 43.2372 47.7502 43.9887 47.9961C44.7128 48.2421 45.3824 48.495 45.9972 48.7544C46.6121 49.0141 47.1414 49.3251 47.5855 49.6869C48.0294 50.0491 48.3746 50.4795 48.6205 50.9781C48.8664 51.477 48.9894 52.0816 48.9894 52.7918C48.9894 53.5434 48.8357 54.2233 48.5283 54.8311C48.2209 55.4392 47.8008 55.9582 47.2679 56.3886C46.735 56.819 46.1064 57.154 45.3824 57.3928C44.658 57.6318 43.8792 57.7515 43.046 57.7515C42.5131 57.7515 41.987 57.683 41.4679 57.5466C40.9485 57.4102 40.4464 57.2257 39.9616 56.9932C39.4764 56.761 39.022 56.4879 38.5987 56.1734C38.1751 55.8593 37.7994 55.5176 37.4715 55.1487L37.4305 55.1282C37.4167 55.101 37.403 55.084 37.3895 55.077C37.3757 55.0703 37.362 55.06 37.3485 55.0462C37.198 54.8823 37.123 54.7459 37.123 54.6363C37.123 54.5272 37.198 54.3975 37.3485 54.247L39.1315 52.5459C39.268 52.4505 39.3842 52.4025 39.4799 52.4025C39.5891 52.4025 39.7326 52.4844 39.9104 52.6483Z" fill="#191919"/>
<path d="M55.0952 45.3931V42.7902C55.0952 42.4899 55.2454 42.3394 55.5461 42.3394H66.6541C66.9545 42.3394 67.105 42.4899 67.105 42.7902V45.3931C67.105 45.6938 66.9545 45.8439 66.6541 45.8439H63.0266V57.0954C63.0266 57.3961 62.8694 57.5463 62.5552 57.5463H59.604C59.3033 57.5463 59.1532 57.3961 59.1532 57.0954V45.8439H55.5461C55.2454 45.8439 55.0952 45.6938 55.0952 45.3931Z" fill="#191919"/>
<path d="M75.585 57.0954V42.7902C75.585 42.4899 75.7352 42.3394 76.0358 42.3394H86.2216C86.522 42.3394 86.6725 42.4899 86.6725 42.7902V45.4136C86.6725 45.7142 86.522 45.8644 86.2216 45.8644H79.5404V48.3852H84.6231C84.951 48.3852 85.1149 48.5425 85.1149 48.8566V50.9675C85.1149 51.2682 84.951 51.4184 84.6231 51.4184H79.5404V54.0417H86.4266C86.7269 54.0417 86.8775 54.1922 86.8775 54.4926V57.0954C86.8775 57.3961 86.7269 57.5463 86.4266 57.5463H76.0358C75.7352 57.5463 75.585 57.3961 75.585 57.0954Z" fill="#191919"/>
<path d="M102.744 57.0749L100.366 48.8566L99.5057 57.0954C99.4919 57.3961 99.3418 57.5463 99.0549 57.5463H96.1446C95.8302 57.5463 95.6799 57.3961 95.6937 57.0954L97.2309 42.7902C97.2442 42.4899 97.3948 42.3394 97.6817 42.3394H101.268C101.418 42.3394 101.517 42.3772 101.565 42.4521C101.613 42.5273 101.664 42.6401 101.719 42.7902L104.506 51.9922L107.294 42.7902C107.348 42.6401 107.399 42.5273 107.447 42.4521C107.495 42.3772 107.594 42.3394 107.745 42.3394H111.331C111.618 42.3394 111.768 42.4899 111.782 42.7902L113.319 57.0954C113.332 57.3961 113.182 57.5463 112.868 57.5463H109.958C109.671 57.5463 109.52 57.3961 109.507 57.0954L108.667 49.0616L106.269 57.0749C106.214 57.2664 106.156 57.3925 106.095 57.454C106.033 57.5156 105.927 57.5463 105.777 57.5463H103.236C103.085 57.5463 102.976 57.5156 102.908 57.454C102.839 57.3925 102.785 57.2664 102.744 57.0749Z" fill="#191919"/>
<path d="M122.335 52.6483C122.458 52.7441 122.608 52.8706 122.786 53.0276C122.963 53.1847 123.168 53.3452 123.4 53.5091C123.742 53.7416 124.087 53.9226 124.435 54.0522C124.784 54.1823 125.142 54.247 125.511 54.247C126.222 54.247 126.703 54.1035 126.956 53.8165C127.209 53.5296 127.335 53.195 127.335 52.8123C127.335 52.594 127.253 52.4025 127.089 52.2385C126.925 52.0745 126.731 51.9278 126.505 51.7979C126.28 51.6681 126.041 51.5589 125.788 51.4699C125.535 51.3812 125.313 51.3028 125.122 51.2343C123.469 50.6604 122.235 49.9841 121.423 49.2053C120.61 48.4265 120.203 47.436 120.203 46.2336C120.203 45.5915 120.333 45.011 120.593 44.4915C120.852 43.9725 121.218 43.5283 121.689 43.1594C122.16 42.7905 122.731 42.5071 123.4 42.3089C124.07 42.111 124.814 42.0117 125.634 42.0117C126.249 42.0117 126.847 42.0803 127.428 42.2167C128.008 42.3534 128.572 42.5788 129.118 42.893C129.583 43.1664 129.986 43.4464 130.328 43.7333C130.669 44.0202 130.84 44.2594 130.84 44.4505C130.84 44.5736 130.751 44.7375 130.573 44.9425L128.995 46.623C128.886 46.7325 128.77 46.7869 128.647 46.7869C128.551 46.7869 128.466 46.7597 128.391 46.705C128.316 46.6505 128.23 46.582 128.135 46.5L128.032 46.4181C127.759 46.1859 127.428 45.9569 127.038 45.7315C126.649 45.5061 126.235 45.3933 125.798 45.3933C125.347 45.3933 124.958 45.4686 124.63 45.6187C124.302 45.7693 124.138 46.0424 124.138 46.4386C124.138 46.8212 124.329 47.1149 124.712 47.3198C125.094 47.5247 125.661 47.7502 126.413 47.9961C127.137 48.2421 127.807 48.495 128.422 48.7544C129.036 49.0141 129.566 49.3251 130.01 49.6869C130.454 50.0491 130.799 50.4795 131.045 50.9781C131.291 51.477 131.414 52.0816 131.414 52.7918C131.414 53.5434 131.26 54.2233 130.953 54.8311C130.645 55.4392 130.225 55.9582 129.692 56.3886C129.159 56.819 128.531 57.154 127.807 57.3928C127.082 57.6318 126.304 57.7515 125.47 57.7515C124.937 57.7515 124.411 57.683 123.892 57.5466C123.373 57.4102 122.871 57.2257 122.386 56.9932C121.901 56.761 121.446 56.4879 121.023 56.1734C120.599 55.8593 120.224 55.5176 119.896 55.1487L119.855 55.1282C119.841 55.101 119.827 55.084 119.814 55.077C119.8 55.0703 119.786 55.06 119.773 55.0462C119.622 54.8823 119.547 54.7459 119.547 54.6363C119.547 54.5272 119.622 54.3975 119.773 54.247L121.556 52.5459C121.692 52.4505 121.808 52.4025 121.904 52.4025C122.013 52.4025 122.157 52.4844 122.335 52.6483Z" fill="#191919"/>
<path d="M93.0015 27.0238C91.4821 25.3115 85.3709 18.4 82.2759 14.8992C82.0676 14.6635 82.0679 14.3103 82.2762 14.0747C86.2468 9.58308 91.228 3.94928 93.0015 1.95062C93.132 1.80362 93.2671 1.65383 93.3625 1.48421C93.5428 1.1637 93.4223 0.901295 93.0653 0.806581C92.9508 0.776204 92.827 0.771346 92.7074 0.771183C91.1384 0.768991 89.5694 0.774659 88.0004 0.766626C87.5519 0.764332 87.2097 0.922495 86.9115 1.26475C85.1407 3.29661 78.9112 10.3945 76.1636 13.5254C76.0604 13.643 75.8672 13.5693 75.8672 13.4128L75.8671 1.68408C75.8668 0.889852 75.5758 0.714863 74.6258 0.783833C73.6877 0.851932 72.7451 0.862628 71.8076 0.787929C70.7968 0.707387 70.481 0.878945 70.481 1.69566C70.4798 10.2101 70.4798 18.7245 70.4811 27.2389C70.4812 28.0282 70.819 28.2265 71.7909 28.1438C72.6606 28.0699 73.5343 28.063 74.4041 28.1361C75.5436 28.2318 75.8671 28.084 75.8673 27.19L75.8672 15.541C75.8672 15.3845 76.0606 15.3108 76.1637 15.4286C78.9113 18.5645 85.1407 25.6778 86.9115 27.7097C87.2097 28.0519 87.5519 28.2101 88.0004 28.2078C89.5694 28.1998 91.1384 28.2054 92.7074 28.2032C92.827 28.2031 92.9508 28.1982 93.0653 28.1678C93.4223 28.0731 93.5428 27.8107 93.3625 27.4902C93.2671 27.3206 93.132 27.1708 93.0015 27.0238Z" fill="#191919"/>
<path d="M116.639 28.7518C122.551 28.7518 128.178 26.1401 131.758 20.3211C131.944 20.0182 131.887 19.6279 131.582 19.4449L130.575 18.841C130.277 18.6618 130.193 18.2691 130.389 17.9816C130.903 17.2293 131.354 16.2957 131.758 15.4718C131.896 15.1901 132.227 15.0614 132.519 15.1756L133.797 15.6754C134.097 15.7925 134.434 15.654 134.568 15.362C135.134 14.1286 135.645 12.8066 136.092 11.3958C136.195 11.0738 136.017 10.7298 135.694 10.6315L134.263 10.1963C133.951 10.1014 133.625 10.276 133.521 10.585C133.403 10.9359 133.268 11.2735 133.117 11.5986C132.976 11.9031 132.617 12.0383 132.313 11.8971L131.06 11.3921C130.744 11.2452 130.369 11.3975 130.243 11.7235C127.596 18.6268 123.804 22.7157 118.847 23.4539L116.639 28.7518Z" fill="url(#paint1_linear_507_1320)"/>
<path d="M132.138 14.3425C132.014 14.6909 132.192 15.075 132.539 15.2038L133.802 15.6728C134.101 15.7898 134.438 15.6514 134.572 15.3593C135.139 14.1259 135.649 12.8039 136.097 11.393C136.199 11.071 136.021 10.7271 135.698 10.6288L134.267 10.1936C133.961 10.1005 133.632 10.264 133.53 10.5673C133.411 10.9236 133.274 11.2662 133.122 11.5959L132.138 14.3425Z" fill="#42C2FF"/>
</g>
</g>
<defs>
<linearGradient id="paint0_linear_507_1320" x1="120.164" y1="30.7874" x2="132.782" y2="8.93252" gradientUnits="userSpaceOnUse">
<stop offset="0.292"/>
<stop offset="1" stop-color="#00ACE7"/>
</linearGradient>
<linearGradient id="paint1_linear_507_1320" x1="120.164" y1="30.7874" x2="132.782" y2="8.93252" gradientUnits="userSpaceOnUse">
<stop offset="0.292"/>
<stop offset="1" stop-color="#00ACE7"/>
</linearGradient>
<clipPath id="clip0_507_1320">
<rect width="137" height="58" fill="white"/>
</clipPath>
<clipPath id="clip1_507_1320">
<rect width="137" height="58" fill="white"/>
</clipPath>
</defs>



</svg>
