<svg width="121" height="121" viewBox="0 0 121 121" fill="none" xmlns="http://www.w3.org/2000/svg">
<circle cx="60.5" cy="60.5" r="60.5" fill="#42C2FF"/>
<path d="M93.4976 77.2031L93.4976 77.2039C93.5021 77.8039 93.0107 78.2958 92.4098 78.2958H28.5897C27.984 78.2958 27.497 77.8088 27.497 77.2031V38.1864C27.497 36.4874 28.8785 35.1059 30.5775 35.1059H90.417C92.1161 35.1059 93.4976 36.4874 93.4976 38.1864L93.4976 77.2031ZM29.6824 76.0104V76.1104H29.7824H91.2122H91.3122V76.0104V38.1864C91.3122 37.6939 90.9096 37.2913 90.417 37.2913H30.5775C30.085 37.2913 29.6824 37.6939 29.6824 38.1864V76.0104Z" fill="white" stroke="#42C2FF" stroke-width="0.2"/>
<path d="M34.7615 70.9317V71.0317H34.8615H86.1433H86.2433V70.9317V42.4656V42.3656H86.1433H34.8615H34.7615V42.4656V70.9317ZM87.331 73.2171H33.6688C33.0631 73.2171 32.5761 72.7302 32.5761 72.1244V41.2729C32.5761 40.6671 33.0631 40.1802 33.6688 40.1802H87.336C87.9417 40.1802 88.4287 40.6671 88.4287 41.2729V72.1237C88.4241 72.7301 87.9366 73.2171 87.331 73.2171Z" fill="white" stroke="#42C2FF" stroke-width="0.2"/>
<path d="M91.5005 85.8944H29.4992C25.6036 85.8944 22.433 82.7238 22.433 78.8282C22.433 77.3279 23.6555 76.1054 25.1558 76.1054H95.8489C97.349 76.1054 98.5668 77.3277 98.5717 78.8234C98.5666 82.724 95.3959 85.8944 91.5005 85.8944ZM25.1558 78.2958C24.8627 78.2958 24.6184 78.5337 24.6184 78.8332C24.6184 81.5222 26.8051 83.714 29.4992 83.714H91.5054C94.1945 83.714 96.3862 81.5273 96.3862 78.8332C96.3862 78.5401 96.1484 78.2958 95.8489 78.2958H25.1558Z" fill="white" stroke="#42C2FF" stroke-width="0.2"/>
<path d="M64.8185 82.0925H56.1812C55.5755 82.0925 55.0885 81.6056 55.0885 80.9998C55.0885 80.3941 55.5755 79.9071 56.1812 79.9071H64.8135C65.4192 79.9071 65.9062 80.3941 65.9062 80.9998C65.9062 81.6058 65.419 82.0925 64.8185 82.0925Z" fill="white" stroke="#42C2FF" stroke-width="0.2"/>
<path d="M76.7007 66.594V66.694H76.8007H78.8084H78.9084V66.594V53.9313V53.8313H78.8084H76.8007H76.7007V53.9313V66.594ZM79.9962 68.8794H75.608C75.0023 68.8794 74.5153 68.3924 74.5153 67.7867V52.7386C74.5153 52.1329 75.0023 51.6459 75.608 51.6459H80.0012C80.6069 51.6459 81.0939 52.1329 81.0939 52.7386V67.7863C81.0891 68.3926 80.6017 68.8794 79.9962 68.8794Z" fill="white" stroke="#42C2FF" stroke-width="0.2"/>
<path d="M68.0286 66.5936V66.6936H68.1286H70.1512H70.2512V66.5936V56.5251V56.4251H70.1512H68.1286H68.0286V56.5251V66.5936ZM71.344 68.879H66.9359C66.3301 68.879 65.8432 68.392 65.8432 67.7863V55.3324C65.8432 54.7266 66.3301 54.2396 66.9359 54.2396H71.344C71.9497 54.2396 72.4367 54.7266 72.4367 55.3324V67.7863C72.4367 68.392 71.9497 68.879 71.344 68.879Z" fill="white" stroke="#42C2FF" stroke-width="0.2"/>
<path d="M59.3667 66.5937V66.6937H59.4667H61.4894H61.5894V66.5937V59.1193V59.0193H61.4894H59.4667H59.3667V59.1193V66.5937ZM62.6821 68.8791H58.274C57.6683 68.8791 57.1813 68.3921 57.1813 67.7864V57.9266C57.1813 57.3209 57.6683 56.8339 58.274 56.8339H62.6821C63.2878 56.8339 63.7748 57.3209 63.7748 57.9266V67.7864C63.7748 68.3921 63.2878 68.8791 62.6821 68.8791Z" fill="white" stroke="#42C2FF" stroke-width="0.2"/>
<path d="M50.7041 66.5947V66.6947H50.8041H52.8268H52.9268V66.5947V61.7145V61.6145H52.8268H50.8041H50.7041V61.7145V66.5947ZM54.0195 68.8802H49.6114C49.0057 68.8802 48.5187 68.3932 48.5187 67.7874V60.5218C48.5187 59.9161 49.0057 59.4291 49.6114 59.4291H54.0195C54.6252 59.4291 55.1122 59.9161 55.1122 60.5218V67.7874C55.1122 68.3932 54.6252 68.8802 54.0195 68.8802Z" fill="white" stroke="#42C2FF" stroke-width="0.2"/>
<path d="M42.0471 66.5943V66.6943H42.1471H44.1698H44.2698V66.5943V64.3083V64.2083H44.1698H42.1471H42.0471V64.3083V66.5943ZM45.3625 68.8797H40.9544C40.3487 68.8797 39.8617 68.3928 39.8617 67.787V63.1156C39.8617 62.5098 40.3487 62.0229 40.9544 62.0229H45.3625C45.9682 62.0229 46.4552 62.5098 46.4552 63.1156V67.787C46.4552 68.3925 45.9635 68.8797 45.3625 68.8797Z" fill="white" stroke="#42C2FF" stroke-width="0.2"/>
<path d="M40.8362 58.9447C40.9866 59.4092 41.4146 59.7051 41.879 59.7051C41.9865 59.7051 42.096 59.6873 42.2131 59.6546L79.4089 47.7778C79.4089 47.7778 79.4089 47.7778 79.4089 47.7778C79.9876 47.591 80.3016 46.9763 80.1196 46.4027C79.9327 45.8241 79.318 45.5102 78.7444 45.6922L40.8362 58.9447ZM40.8362 58.9447C40.6542 58.3711 40.9682 57.7565 41.5467 57.5696C41.5468 57.5696 41.5469 57.5696 41.5469 57.5695L78.7443 45.6922L40.8362 58.9447Z" fill="white" stroke="#42C2FF" stroke-width="0.2"/>
<path d="M77.4357 49.7686L77.4357 49.7686L77.4346 49.768C76.902 49.4812 76.7062 48.8166 76.993 48.2887L76.9931 48.2884L77.5448 47.2646L77.5922 47.1766L77.5042 47.1291L76.4804 46.5775L76.4804 46.5775C75.9478 46.2907 75.7521 45.6261 76.0388 45.0981L76.039 45.0978C76.3257 44.5652 76.9904 44.3695 77.5183 44.6562L77.5186 44.6564L79.5909 45.7745L79.5912 45.7747C79.8463 45.9113 80.0372 46.1435 80.119 46.4205C80.2009 46.6982 80.1691 46.999 80.0324 47.2543C80.0324 47.2544 80.0323 47.2544 80.0323 47.2544L78.9143 49.3265L78.9142 49.3267C78.7186 49.6905 78.3408 49.9002 77.9537 49.9002C77.7802 49.9002 77.5984 49.859 77.4357 49.7686Z" fill="white" stroke="#42C2FF" stroke-width="0.2"/>
</svg>
