<svg width="121" height="121" viewBox="0 0 121 121" fill="none" xmlns="http://www.w3.org/2000/svg">
<circle cx="60.5" cy="60.5" r="60.5" fill="#42C2FF"/>
<path d="M91.175 83.3582H29.8745C28.3233 83.3582 27.0674 82.0996 27.0674 80.5566V39.6288C27.0674 38.0811 28.328 36.8271 29.8745 36.8271H91.1701C92.7212 36.8271 93.9771 38.0858 93.9771 39.6288V59.8273C93.9771 60.4178 93.5016 60.8928 92.9094 60.8928C92.3173 60.8928 91.8417 60.4178 91.8417 59.8273V39.6288C91.8417 39.2562 91.5363 38.9581 91.1701 38.9581H29.8745C29.5018 38.9581 29.2028 39.2626 29.2028 39.6288V80.5566C29.2028 80.9292 29.5082 81.2272 29.8745 81.2272H91.1701C91.7622 81.2272 92.2378 81.7022 92.2378 82.2927C92.2378 82.8835 91.7619 83.3582 91.175 83.3582Z" fill="white" stroke="#42C2FF" stroke-width="0.25"/>
<path d="M29.3278 75.2682H29.2028V75.3932V80.5569C29.2028 80.9295 29.5082 81.2276 29.8745 81.2276H91.17C91.5427 81.2276 91.8417 80.9231 91.8417 80.5569V78.4934C91.8417 77.9029 92.3173 77.4279 92.9094 77.4279C93.5015 77.4279 93.9771 77.9029 93.9771 78.4934V80.5569V80.5573C93.9819 82.0998 92.7214 83.3585 91.175 83.3585H29.8745C28.3233 83.3585 27.0674 82.0999 27.0674 80.5569V74.2027C27.0674 73.6122 27.5429 73.1372 28.1351 73.1372H76.6984C77.2906 73.1372 77.7661 73.6122 77.7661 74.2027C77.7661 74.7932 77.2906 75.2682 76.6984 75.2682H29.3278Z" fill="white" stroke="#42C2FF" stroke-width="0.25"/>
<path d="M73.7569 93.2496H47.2935C46.7014 93.2496 46.2258 92.7746 46.2258 92.1842C46.2258 91.5937 46.7014 91.1187 47.2935 91.1187H73.7569C74.3491 91.1187 74.8246 91.5937 74.8246 92.1842C74.8246 92.7743 74.3444 93.2496 73.7569 93.2496Z" fill="white" stroke="#42C2FF" stroke-width="0.25"/>
<path d="M69.3824 92.6366L69.382 92.6358L65.0534 83.4293L65.0196 83.3575H64.9403H56.1092H56.0299L55.9961 83.4293L51.6675 92.6358L51.6674 92.636C51.4184 93.1687 50.7824 93.3994 50.2489 93.1464L50.2481 93.1461C49.7143 92.8974 49.4835 92.2628 49.7367 91.7308L49.7369 91.7302L54.3882 81.8399C54.3883 81.8398 54.3883 81.8397 54.3884 81.8396C54.5668 81.4659 54.9408 81.2266 55.3538 81.2266H65.7006C66.1146 81.2266 66.4926 81.4666 66.6657 81.8388L66.6659 81.8393L71.3174 91.73C71.5666 92.2629 71.3397 92.8968 70.8076 93.1455C70.6527 93.2135 70.4963 93.2485 70.3473 93.2485C69.9459 93.2485 69.5596 93.0214 69.3824 92.6366Z" fill="white" stroke="#42C2FF" stroke-width="0.25"/>
<path d="M37.3529 67.6896V67.8146H37.4779H39.0185H39.1435V67.6896V60.7848V60.6598H39.0185H37.4779H37.3529V60.7848V67.6896ZM40.2161 69.9456H36.2901C35.698 69.9456 35.2224 69.4705 35.2224 68.8801V59.5943C35.2224 59.0038 35.698 58.5288 36.2901 58.5288H40.2161C40.8083 58.5288 41.2839 59.0038 41.2839 59.5943V68.8801C41.2839 69.4702 40.8037 69.9456 40.2161 69.9456Z" fill="white" stroke="#42C2FF" stroke-width="0.25"/>
<path d="M45.7565 67.6896V67.8146H45.8815H47.9489H48.0739V67.6896V63.4733V63.3483H47.9489H45.8815H45.7565V63.4733V67.6896ZM49.1416 69.9456H44.6888C44.0967 69.9456 43.6211 69.4706 43.6211 68.8801V62.2828C43.6211 61.6924 44.0967 61.2173 44.6888 61.2173H49.1416C49.7337 61.2173 50.2093 61.6924 50.2093 62.2828V68.8851C50.2093 69.4699 49.7295 69.9456 49.1416 69.9456Z" fill="white" stroke="#42C2FF" stroke-width="0.25"/>
<path d="M54.6824 67.6896V67.8146H54.8074H56.8748H56.9998V67.6896V60.7848V60.6598H56.8748H54.8074H54.6824V60.7848V67.6896ZM58.0625 69.9456H53.6097C53.0176 69.9456 52.542 69.4705 52.542 68.8801V59.5943C52.542 59.0038 53.0176 58.5288 53.6097 58.5288H58.0625C58.6547 58.5288 59.1302 59.0038 59.1302 59.5943V68.8801C59.1302 69.4705 58.6547 69.9456 58.0625 69.9456Z" fill="white" stroke="#42C2FF" stroke-width="0.25"/>
<path d="M63.6077 67.6898V67.8148H63.7327H65.8001H65.9251V67.6898V64.3961V64.2711H65.8001H63.7327H63.6077V64.3961V67.6898ZM66.9878 69.9457H62.535C61.9429 69.9457 61.4673 69.4707 61.4673 68.8803V63.2056C61.4673 62.6151 61.9429 62.1401 62.535 62.1401H66.9878C67.58 62.1401 68.0555 62.6151 68.0555 63.2056V68.8803C68.0555 69.4707 67.58 69.9457 66.9878 69.9457Z" fill="white" stroke="#42C2FF" stroke-width="0.25"/>
<path d="M46.3738 46.4303H46.5611L46.4893 46.2573C46.1633 45.4724 45.5326 44.8482 44.7521 44.5232L44.579 44.4511V44.6386V46.3053H44.6991V46.4303H44.704H44.829H46.3738ZM47.8051 48.5612H43.5113C42.9192 48.5612 42.4436 48.0862 42.4436 47.4958V43.21C42.4436 42.6195 42.9192 42.1445 43.5113 42.1445C46.469 42.1445 48.8728 44.5442 48.8728 47.4958C48.8728 48.0859 48.3926 48.5612 47.8051 48.5612Z" fill="white" stroke="#42C2FF" stroke-width="0.25"/>
<path d="M41.5723 49.4205V49.2955V46.2003C41.5723 45.6098 41.0967 45.1348 40.5046 45.1348C39.0571 45.1348 37.7026 45.7017 36.6874 46.7296C35.6722 47.7573 35.1237 49.1189 35.1431 50.5636L41.5723 49.4205ZM41.5723 49.4205H41.6973M41.5723 49.4205H41.6973M41.6973 49.4205H44.7983C45.3905 49.4205 45.8661 49.8955 45.8661 50.486C45.8661 51.9306 45.2981 53.2825 44.2684 54.2957L44.268 54.2961M41.6973 49.4205L44.268 54.2961M44.268 54.2961C43.2628 55.2946 41.9279 55.8422 40.5095 55.8422H40.5094M44.268 54.2961L40.5094 55.8422M40.5094 55.8422H40.5093M40.5094 55.8422H40.5093M40.5093 55.8422H40.5091M40.5093 55.8422H40.5091M40.5091 55.8422H40.509M40.5091 55.8422H40.509M40.509 55.8422H40.5088M40.509 55.8422H40.5088M40.5088 55.8422H40.5087M40.5088 55.8422H40.5087M40.5087 55.8422H40.5085M40.5087 55.8422H40.5085M40.5085 55.8422H40.5084M40.5085 55.8422H40.5084M40.5084 55.8422H40.5082M40.5084 55.8422H40.5082M40.5082 55.8422H40.5081M40.5082 55.8422H40.5081M40.5081 55.8422H40.5079M40.5081 55.8422H40.5079M40.5079 55.8422H40.5078M40.5079 55.8422H40.5078M40.5078 55.8422H40.5076M40.5078 55.8422H40.5076M40.5076 55.8422H40.5075M40.5076 55.8422H40.5075M40.5075 55.8422H40.5073M40.5075 55.8422H40.5073M40.5073 55.8422H40.5072M40.5073 55.8422H40.5072M40.5072 55.8422H40.5071M40.5072 55.8422H40.5071M40.5071 55.8422H40.5069M40.5071 55.8422H40.5069M40.5069 55.8422H40.5068M40.5069 55.8422H40.5068M40.5068 55.8422H40.5066M40.5068 55.8422H40.5066M40.5066 55.8422H40.5065M40.5066 55.8422H40.5065M40.5065 55.8422H40.5063M40.5065 55.8422H40.5063M40.5063 55.8422H40.5062M40.5063 55.8422H40.5062M40.5062 55.8422H40.506M40.5062 55.8422H40.506M40.506 55.8422H40.5059M40.506 55.8422H40.5059M40.5059 55.8422H40.5057M40.5059 55.8422H40.5057M40.5057 55.8422H40.5056M40.5057 55.8422H40.5056M40.5056 55.8422H40.5054M40.5056 55.8422H40.5054M40.5054 55.8422H40.5053M40.5054 55.8422H40.5053M40.5053 55.8422H40.5051M40.5053 55.8422H40.5051M40.5051 55.8422H40.505M40.5051 55.8422H40.505M40.505 55.8422H40.5048M40.505 55.8422H40.5048M40.5048 55.8422H40.5047M40.5048 55.8422H40.5047M40.5047 55.8422H40.5045M40.5047 55.8422H40.5045M40.5045 55.8422H40.5044M40.5045 55.8422H40.5044M40.5044 55.8422H40.5042M40.5044 55.8422H40.5042M40.5042 55.8422H40.5041M40.5042 55.8422H40.5041M40.5041 55.8422H40.5039M40.5041 55.8422H40.5039M40.5039 55.8422H40.5038M40.5039 55.8422H40.5038M40.5038 55.8422H40.5036M40.5038 55.8422H40.5036M40.5036 55.8422H40.5035M40.5036 55.8422H40.5035M40.5035 55.8422H40.5033M40.5035 55.8422H40.5033M40.5033 55.8422H40.5032M40.5033 55.8422H40.5032M40.5032 55.8422H40.503M40.5032 55.8422H40.503M40.503 55.8422H40.5029M40.503 55.8422H40.5029M40.5029 55.8422H40.5027M40.5029 55.8422H40.5027M40.5027 55.8422H40.5026M40.5027 55.8422H40.5026M40.5026 55.8422H40.5024M40.5026 55.8422H40.5024M40.5024 55.8422H40.5023M40.5024 55.8422H40.5023M40.5023 55.8422H40.5021M40.5023 55.8422H40.5021M40.5021 55.8422H40.502M40.5021 55.8422H40.502M40.502 55.8422H40.5018M40.502 55.8422H40.5018M40.5018 55.8422H40.5017M40.5018 55.8422H40.5017M40.5017 55.8422H40.5015M40.5017 55.8422H40.5015M40.5015 55.8422H40.5014M40.5015 55.8422H40.5014M40.5014 55.8422H40.5012M40.5014 55.8422H40.5012M40.5012 55.8422H40.5011M40.5012 55.8422H40.5011M40.5011 55.8422H40.5009M40.5011 55.8422H40.5009M40.5009 55.8422H40.5008M40.5009 55.8422H40.5008M40.5008 55.8422H40.5006M40.5008 55.8422H40.5006M40.5006 55.8422H40.5005M40.5006 55.8422H40.5005M40.5005 55.8422H40.5003M40.5005 55.8422H40.5003M40.5003 55.8422H40.5002M40.5003 55.8422H40.5002M40.5002 55.8422H40.5M40.5002 55.8422H40.5M40.5 55.8422H40.4999M40.5 55.8422H40.4999M40.4999 55.8422H40.4997M40.4999 55.8422H40.4997M40.4997 55.8422H40.4996M40.4997 55.8422H40.4996M40.4996 55.8422H40.4994M40.4996 55.8422H40.4994M40.4994 55.8422H40.4993M40.4994 55.8422H40.4993M40.4993 55.8422H40.4991M40.4993 55.8422H40.4991M40.4991 55.8422H40.4989M40.4991 55.8422H40.4989M40.4989 55.8422H40.4988M40.4989 55.8422H40.4988M40.4988 55.8422H40.4986M40.4988 55.8422H40.4986M40.4986 55.8422H40.4985M40.4986 55.8422H40.4985M40.4985 55.8422H40.4983M40.4985 55.8422H40.4983M40.4983 55.8422H40.4982M40.4983 55.8422H40.4982M40.4982 55.8422H40.498M40.4982 55.8422H40.498M40.498 55.8422H40.4979M40.498 55.8422H40.4979M40.4979 55.8422H40.4977M40.4979 55.8422H40.4977M40.4977 55.8422H40.4976M40.4977 55.8422H40.4976M40.4976 55.8422H40.4974M40.4976 55.8422H40.4974M40.4974 55.8422H40.4973M40.4974 55.8422H40.4973M40.4973 55.8422H40.4971M40.4973 55.8422H40.4971M40.4971 55.8422H40.497M40.4971 55.8422H40.497M40.497 55.8422H40.4968M40.497 55.8422H40.4968M40.4968 55.8422H40.4967M40.4968 55.8422H40.4967M40.4967 55.8422H40.4965M40.4967 55.8422H40.4965M40.4965 55.8422H40.4963M40.4965 55.8422H40.4963M40.4963 55.8422H40.4962M40.4963 55.8422H40.4962M40.4962 55.8422H40.496M40.4962 55.8422H40.496M40.496 55.8422H40.4959M40.496 55.8422H40.4959M40.4959 55.8422H40.4957M40.4959 55.8422H40.4957M40.4957 55.8422H40.4956M40.4957 55.8422H40.4956M40.4956 55.8422H40.4954M40.4956 55.8422H40.4954M40.4954 55.8422H40.4953M40.4954 55.8422H40.4953M40.4953 55.8422H40.4951M40.4953 55.8422H40.4951M40.4951 55.8422H40.495M40.4951 55.8422H40.495M40.495 55.8422H40.4948M40.495 55.8422H40.4948M40.4948 55.8422H40.4946M40.4948 55.8422H40.4946M40.4946 55.8422H40.4945M40.4946 55.8422H40.4945M40.4945 55.8422H40.4943M40.4945 55.8422H40.4943M40.4943 55.8422H40.4942M40.4943 55.8422H40.4942M40.4942 55.8422H40.494M40.4942 55.8422H40.494M40.494 55.8422H40.4939M40.494 55.8422H40.4939M40.4939 55.8422H40.4937M40.4939 55.8422H40.4937M40.4937 55.8422H40.4936M40.4937 55.8422H40.4936M40.4936 55.8422H40.4934M40.4936 55.8422H40.4934M40.4934 55.8422H40.4933M40.4934 55.8422H40.4933M40.4933 55.8422H40.4931M40.4933 55.8422H40.4931M40.4931 55.8422H40.4929M40.4931 55.8422H40.4929M40.4929 55.8422H40.4928M40.4929 55.8422H40.4928M40.4928 55.8422H40.4926M40.4928 55.8422H40.4926M40.4926 55.8422H40.4925M40.4926 55.8422H40.4925M40.4925 55.8422H40.4923M40.4925 55.8422H40.4923M40.4923 55.8422H40.4922M40.4923 55.8422H40.4922M40.4922 55.8422H40.492M40.4922 55.8422H40.492M40.492 55.8422H40.4919M40.492 55.8422H40.4919M40.4919 55.8422H40.4917M40.4919 55.8422H40.4917M40.4917 55.8422H40.4915M40.4917 55.8422H40.4915M40.4915 55.8422H40.4914M40.4915 55.8422H40.4914M40.4914 55.8422H40.4912M40.4914 55.8422H40.4912M40.4912 55.8422H40.4911M40.4912 55.8422H40.4911M40.4911 55.8422H40.4909M40.4911 55.8422H40.4909M40.4909 55.8422H40.4908M40.4909 55.8422H40.4908M40.4908 55.8422H40.4906M40.4908 55.8422H40.4906M40.4906 55.8422H40.4904M40.4906 55.8422H40.4904M40.4904 55.8422H40.4903M40.4904 55.8422H40.4903M40.4903 55.8422H40.4901M40.4903 55.8422H40.4901M40.4901 55.8422H40.49M40.4901 55.8422H40.49M40.49 55.8422H40.4898M40.49 55.8422H40.4898M40.4898 55.8422H40.4897M40.4898 55.8422H40.4897M40.4897 55.8422H40.4895M40.4897 55.8422H40.4895M40.4895 55.8422H40.4893M40.4895 55.8422H40.4893M40.4893 55.8422H40.4892M40.4893 55.8422H40.4892M40.4892 55.8422H40.489M40.4892 55.8422H40.489M40.489 55.8422H40.4889M40.489 55.8422H40.4889M40.4889 55.8422H40.4887M40.4889 55.8422H40.4887M40.4887 55.8422H40.4886M40.4887 55.8422H40.4886M40.4886 55.8422H40.4884M40.4886 55.8422H40.4884M40.4884 55.8422H40.4883M40.4884 55.8422H40.4883M40.4883 55.8422H40.4881M40.4883 55.8422H40.4881M40.4881 55.8422H40.4879M40.4881 55.8422H40.4879M40.4879 55.8422H40.4878M40.4879 55.8422H40.4878M40.4878 55.8422H40.4876M40.4878 55.8422H40.4876M40.4876 55.8422H40.4875M40.4876 55.8422H40.4875M40.4875 55.8422H40.4873M40.4875 55.8422H40.4873M40.4873 55.8422H40.4871M40.4873 55.8422H40.4871M40.4871 55.8422H40.487M40.4871 55.8422H40.487M40.487 55.8422H40.4868M40.487 55.8422H40.4868M40.4868 55.8422H40.4867M40.4868 55.8422H40.4867M40.4867 55.8422H40.4865M40.4867 55.8422H40.4865M40.4865 55.8422H40.4864M40.4865 55.8422H40.4864M40.4864 55.8422H40.4862M40.4864 55.8422H40.4862M40.4862 55.8422H40.486M40.4862 55.8422H40.486M40.486 55.8422H40.4859M40.486 55.8422H40.4859M40.4859 55.8422H40.4857M40.4859 55.8422H40.4857M40.4857 55.8422H40.4856M40.4857 55.8422H40.4856M40.4856 55.8422H40.4854M40.4856 55.8422H40.4854M40.4854 55.8422H40.4853M40.4854 55.8422H40.4853M40.4853 55.8422H40.4851M40.4853 55.8422H40.4851M40.4851 55.8422H40.4849M40.4851 55.8422H40.4849M40.4849 55.8422H40.4848M40.4849 55.8422H40.4848M40.4848 55.8422H40.4846M40.4848 55.8422H40.4846M40.4846 55.8422H40.4845M40.4846 55.8422H40.4845M40.4845 55.8422H40.4843M40.4845 55.8422H40.4843M40.4843 55.8422H40.4841M40.4843 55.8422H40.4841M40.4841 55.8422H40.484M40.4841 55.8422H40.484M40.484 55.8422H40.4838M40.484 55.8422H40.4838M40.4838 55.8422H40.4837M40.4838 55.8422H40.4837M40.4837 55.8422H40.4835M40.4837 55.8422H40.4835M40.4835 55.8422H40.4834M40.4835 55.8422H40.4834M40.4834 55.8422H40.4832M40.4834 55.8422H40.4832M40.4832 55.8422H40.483M40.4832 55.8422H40.483M40.483 55.8422H40.4829M40.483 55.8422H40.4829M40.4829 55.8422H40.4827M40.4829 55.8422H40.4827M40.4827 55.8422H40.4826M40.4827 55.8422H40.4826M40.4826 55.8422H40.4824M40.4826 55.8422H40.4824M40.4824 55.8422H40.4822M40.4824 55.8422H40.4822M40.4822 55.8422H40.4821M40.4822 55.8422H40.4821M40.4821 55.8422H40.4819M40.4821 55.8422H40.4819M40.4819 55.8422H40.4818M40.4819 55.8422H40.4818M40.4818 55.8422H40.4816M40.4818 55.8422H40.4816M40.4816 55.8422H40.4815M40.4816 55.8422H40.4815M40.4815 55.8422H40.4813M40.4815 55.8422H40.4813M40.4813 55.8422H40.4811M40.4813 55.8422H40.4811M40.4811 55.8422H40.481M40.4811 55.8422H40.481M40.481 55.8422H40.4808M40.481 55.8422H40.4808M40.4808 55.8422H40.4807M40.4808 55.8422H40.4807M40.4807 55.8422H40.4805M40.4807 55.8422H40.4805M40.4805 55.8422H40.4803M40.4805 55.8422H40.4803M40.4803 55.8422H40.4802M40.4803 55.8422H40.4802M40.4802 55.8422H40.48M40.4802 55.8422H40.48M40.48 55.8422H40.4799M40.48 55.8422H40.4799M40.4799 55.8422H40.4797M40.4799 55.8422H40.4797M40.4797 55.8422H40.4795M40.4797 55.8422H40.4795M40.4795 55.8422H40.4794M40.4795 55.8422H40.4794M40.4794 55.8422H40.4792M40.4794 55.8422H40.4792M40.4792 55.8422H40.4791M40.4792 55.8422H40.4791M40.4791 55.8422H40.4789M40.4791 55.8422H40.4789M40.4789 55.8422H40.4787M40.4789 55.8422H40.4787M40.4787 55.8422H40.4786M40.4787 55.8422H40.4786M40.4786 55.8422H40.4784M40.4786 55.8422H40.4784M40.4784 55.8422H40.4783M40.4784 55.8422H40.4783M40.4783 55.8422H40.4781M40.4783 55.8422H40.4781M40.4781 55.8422H40.4779M40.4781 55.8422H40.4779M40.4779 55.8422H40.4778M40.4779 55.8422H40.4778M40.4778 55.8422H40.4776M40.4778 55.8422H40.4776M40.4776 55.8422H40.4775M40.4776 55.8422H40.4775M40.4775 55.8422H40.4773M40.4775 55.8422H40.4773M40.4773 55.8422H40.4771M40.4773 55.8422H40.4771M40.4771 55.8422H40.477M40.4771 55.8422H40.477M40.477 55.8422H40.4768M40.477 55.8422H40.4768M40.4768 55.8422H40.4767M40.4768 55.8422H40.4767M40.4767 55.8422H40.4765M40.4767 55.8422H40.4765M40.4765 55.8422H40.4763M40.4765 55.8422H40.4763M40.4763 55.8422H40.4762M40.4763 55.8422H40.4762M40.4762 55.8422H40.476M40.4762 55.8422H40.476M40.476 55.8422H40.4759M40.476 55.8422H40.4759M40.4759 55.8422H40.4757M40.4759 55.8422H40.4757M40.4757 55.8422H40.4755M40.4757 55.8422H40.4755M40.4755 55.8422H40.4754M40.4755 55.8422H40.4754M40.4754 55.8422H40.4752M40.4754 55.8422H40.4752M40.4752 55.8422H40.4751M40.4752 55.8422H40.4751M40.4751 55.8422H40.4749M40.4751 55.8422H40.4749M40.4749 55.8422H40.4748M40.4749 55.8422H40.4748M40.4748 55.8422H40.4746M40.4748 55.8422H40.4746M40.4746 55.8422H40.4744M40.4746 55.8422H40.4744M40.4744 55.8422H40.4743M40.4744 55.8422H40.4743M40.4743 55.8422H40.4741M40.4743 55.8422H40.4741M40.4741 55.8422H40.474M40.4741 55.8422H40.474M40.474 55.8422H40.4738M40.474 55.8422H40.4738M40.4738 55.8422H40.4736M40.4738 55.8422H40.4736M40.4736 55.8422H40.4735M40.4736 55.8422H40.4735M40.4735 55.8422H40.4733M40.4735 55.8422H40.4733M40.4733 55.8422H40.4732M40.4733 55.8422H40.4732M40.4732 55.8422H40.473M40.4732 55.8422H40.473M40.473 55.8422H40.4728M40.473 55.8422H40.4728M40.4728 55.8422H40.4727M40.4728 55.8422H40.4727M40.4727 55.8422H40.4725M40.4727 55.8422H40.4725M40.4725 55.8422H40.4723M40.4725 55.8422H40.4723M40.4723 55.8422H40.4722M40.4723 55.8422H40.4722M40.4722 55.8422H40.472M40.4722 55.8422H40.472M40.472 55.8422H40.4719M40.472 55.8422H40.4719M40.4719 55.8422H40.4717M40.4719 55.8422H40.4717M40.4717 55.8422H40.4715M40.4717 55.8422H40.4715M40.4715 55.8422H40.4714M40.4715 55.8422H40.4714M40.4714 55.8422H40.4712M40.4714 55.8422H40.4712M40.4712 55.8422H40.4711M40.4712 55.8422H40.4711M40.4711 55.8422H40.4709M40.4711 55.8422H40.4709M40.4709 55.8422H40.4707M40.4709 55.8422H40.4707M40.4707 55.8422H40.4706M40.4707 55.8422H40.4706M40.4706 55.8422H40.4704M40.4706 55.8422H40.4704M40.4704 55.8422H40.4703M40.4704 55.8422H40.4703M40.4703 55.8422H40.4701M40.4703 55.8422H40.4701M40.4701 55.8422H40.4699M40.4701 55.8422H40.4699M40.4699 55.8422H40.4698M40.4699 55.8422H40.4698M40.4698 55.8422H40.4696M40.4698 55.8422H40.4696M40.4696 55.8422H40.4695M40.4696 55.8422H40.4695M40.4695 55.8422H40.4693M40.4695 55.8422H40.4693M40.4693 55.8422H40.4691M40.4693 55.8422H40.4691M40.4691 55.8422H40.469M40.4691 55.8422H40.469M40.469 55.8422H40.4688M40.469 55.8422H40.4688M40.4688 55.8422H40.4687M40.4688 55.8422H40.4687M40.4687 55.8422H40.4685M40.4687 55.8422H40.4685M40.4685 55.8422H40.4683M40.4685 55.8422H40.4683M40.4683 55.8422H40.4682M40.4683 55.8422H40.4682M40.4682 55.8422H40.468M40.4682 55.8422H40.468M40.468 55.8422H40.4679M40.468 55.8422H40.4679M40.4679 55.8422H40.4677M40.4679 55.8422H40.4677M40.4677 55.8422H40.4675M40.4677 55.8422H40.4675M40.4675 55.8422H40.4674M40.4675 55.8422H40.4674M40.4674 55.8422H40.4672M40.4674 55.8422H40.4672M40.4672 55.8422H40.4671M40.4672 55.8422H40.4671M40.4671 55.8422H40.4669M40.4671 55.8422H40.4669M40.4669 55.8422H40.4667M40.4669 55.8422H40.4667M40.4667 55.8422H40.4666M40.4667 55.8422H40.4666M40.4666 55.8422H40.4664M40.4666 55.8422H40.4664M40.4664 55.8422H40.4663M40.4664 55.8422H40.4663M40.4663 55.8422H40.4661M40.4663 55.8422H40.4661M40.4661 55.8422H40.4659M40.4661 55.8422H40.4659M40.4659 55.8422H40.4658M40.4659 55.8422H40.4658M40.4658 55.8422H40.4656M40.4658 55.8422H40.4656M40.4656 55.8422H40.4655M40.4656 55.8422H40.4655M40.4655 55.8422H40.4653M40.4655 55.8422H40.4653M40.4653 55.8422H40.4651M40.4653 55.8422H40.4651M40.4651 55.8422H40.465M40.4651 55.8422H40.465M40.465 55.8422H40.4648M40.465 55.8422H40.4648M40.4648 55.8422H40.4647M40.4648 55.8422H40.4647M40.4647 55.8422H40.4645M40.4647 55.8422H40.4645M40.4645 55.8422H40.4643M40.4645 55.8422H40.4643M40.4643 55.8422H40.4642M40.4643 55.8422H40.4642M40.4642 55.8422H40.464M40.4642 55.8422H40.464M40.464 55.8422H40.4639M40.464 55.8422H40.4639M40.4639 55.8422H40.4637M40.4639 55.8422H40.4637M40.4637 55.8422H40.4635M40.4637 55.8422H40.4635M40.4635 55.8422H40.4634M40.4635 55.8422H40.4634M40.4634 55.8422H40.4632M40.4634 55.8422H40.4632M40.4632 55.8422H40.4631M40.4632 55.8422H40.4631M40.4631 55.8422H40.4629M40.4631 55.8422H40.4629M40.4629 55.8422H40.4627M40.4629 55.8422H40.4627M40.4627 55.8422H40.4626M40.4627 55.8422H40.4626M40.4626 55.8422H40.4624M40.4626 55.8422H40.4624M40.4624 55.8422H40.4623M40.4624 55.8422H40.4623M40.4623 55.8422H40.4621M40.4623 55.8422H40.4621M40.4621 55.8422H40.4619M40.4621 55.8422H40.4619M40.4619 55.8422H40.4618M40.4619 55.8422H40.4618M40.4618 55.8422H40.4616M40.4618 55.8422H40.4616M40.4616 55.8422H40.4615M40.4616 55.8422H40.4615M40.4615 55.8422H40.4613M40.4615 55.8422H40.4613M40.4613 55.8422H40.4612M40.4613 55.8422H40.4612M40.4612 55.8422H40.461M40.4612 55.8422H40.461M40.461 55.8422H40.4608M40.461 55.8422H40.4608M40.4608 55.8422H40.4607M40.4608 55.8422H40.4607M40.4607 55.8422H40.4605M40.4607 55.8422H40.4605M40.4605 55.8422H40.4604M40.4605 55.8422H40.4604M40.4604 55.8422H40.4602M40.4604 55.8422H40.4602M40.4602 55.8422H40.46M40.4602 55.8422H40.46M40.46 55.8422H40.4599M40.46 55.8422H40.4599M40.4599 55.8422H40.4597M40.4599 55.8422H40.4597M40.4597 55.8422H40.4596M40.4597 55.8422H40.4596M40.4596 55.8422H40.4594M40.4596 55.8422H40.4594M40.4594 55.8422H40.4592M40.4594 55.8422H40.4592M40.4592 55.8422H40.4591M40.4592 55.8422H40.4591M40.4591 55.8422H40.4589M40.4591 55.8422H40.4589M40.4589 55.8422H40.4588M40.4589 55.8422H40.4588M40.4588 55.8422H40.4586M40.4588 55.8422H40.4586M40.4586 55.8422H40.4584M40.4586 55.8422H40.4584M40.4584 55.8422H40.4583M40.4584 55.8422H40.4583M40.4583 55.8422H40.4581M40.4583 55.8422H40.4581M40.4581 55.8422H40.458M40.4581 55.8422H40.458M40.458 55.8422H40.4578M40.458 55.8422H40.4578M40.4578 55.8422H40.4576M40.4578 55.8422H40.4576M40.4576 55.8422H40.4575M40.4576 55.8422H40.4575M40.4575 55.8422H40.4573M40.4575 55.8422H40.4573M40.4573 55.8422H40.4572M40.4573 55.8422H40.4572M40.4572 55.8422H40.457M40.4572 55.8422H40.457M40.457 55.8422H40.4569M40.457 55.8422H40.4569M40.4569 55.8422H40.4567M40.4569 55.8422H40.4567M40.4567 55.8422H40.4565M40.4567 55.8422H40.4565M40.4565 55.8422H40.4564M40.4565 55.8422H40.4564M40.4564 55.8422H40.4562M40.4564 55.8422H40.4562M40.4562 55.8422H40.4561M40.4562 55.8422H40.4561M40.4561 55.8422H40.4559M40.4561 55.8422H40.4559M40.4559 55.8422H40.4557M40.4559 55.8422H40.4557M40.4557 55.8422H40.4556M40.4557 55.8422H40.4556M40.4556 55.8422H40.4554M40.4556 55.8422H40.4554M40.4554 55.8422H40.4553M40.4554 55.8422H40.4553M40.4553 55.8422H40.4551M40.4553 55.8422H40.4551M40.4551 55.8422H40.455M40.4551 55.8422H40.455M40.455 55.8422H40.4548M40.455 55.8422H40.4548M40.4548 55.8422H40.4546M40.4548 55.8422H40.4546M40.4546 55.8422H40.4545M40.4546 55.8422H40.4545M40.4545 55.8422H40.4543M40.4545 55.8422H40.4543M40.4543 55.8422H40.4542M40.4543 55.8422H40.4542M40.4542 55.8422H40.454M40.4542 55.8422H40.454M40.454 55.8422H40.4538M40.454 55.8422H40.4538M40.4538 55.8422H40.4537M40.4538 55.8422H40.4537M40.4537 55.8422H40.4535M40.4537 55.8422H40.4535M40.4535 55.8422H40.4534M40.4535 55.8422H40.4534M40.4534 55.8422H40.4532M40.4534 55.8422H40.4532M40.4532 55.8422H40.4531M40.4532 55.8422H40.4531M40.4531 55.8422H40.4529M40.4531 55.8422H40.4529M40.4529 55.8422H40.4527M40.4529 55.8422H40.4527M40.4527 55.8422H40.4526M40.4527 55.8422H40.4526M40.4526 55.8422H40.4524M40.4526 55.8422H40.4524M40.4524 55.8422H40.4523M40.4524 55.8422H40.4523M40.4523 55.8422H40.4521M40.4523 55.8422H40.4521M40.4521 55.8422H40.452M40.4521 55.8422H40.452M40.452 55.8422H40.4518M40.452 55.8422H40.4518M40.4518 55.8422H40.4516M40.4518 55.8422H40.4516M40.4516 55.8422H40.4515M40.4516 55.8422H40.4515M40.4515 55.8422H40.4513M40.4515 55.8422H40.4513M40.4513 55.8422H40.4512M40.4513 55.8422H40.4512M40.4512 55.8422H40.451M40.4512 55.8422H40.451M40.451 55.8422H40.4509M40.451 55.8422H40.4509M40.4509 55.8422H40.4507M40.4509 55.8422H40.4507M40.4507 55.8422H40.4505M40.4507 55.8422H40.4505M40.4505 55.8422H40.4504M40.4505 55.8422H40.4504M40.4504 55.8422H40.4502M40.4504 55.8422H40.4502M40.4502 55.8422H40.4501M40.4502 55.8422H40.4501M40.4501 55.8422H40.4499M40.4501 55.8422H40.4499M40.4499 55.8422H40.4498M40.4499 55.8422H40.4498M40.4498 55.8422H40.4496M40.4498 55.8422H40.4496M40.4496 55.8422H40.4494M40.4496 55.8422H40.4494M40.4494 55.8422H40.4493M40.4494 55.8422H40.4493M40.4493 55.8422H40.4491M40.4493 55.8422H40.4491M40.4491 55.8422H40.449M40.4491 55.8422H40.449M40.449 55.8422H40.4488M40.449 55.8422H40.4488M40.4488 55.8422H40.4487M40.4488 55.8422H40.4487M40.4487 55.8422H40.4485M40.4487 55.8422H40.4485M40.4485 55.8422H40.4483M40.4485 55.8422H40.4483M40.4483 55.8422H40.4482M40.4483 55.8422H40.4482M40.4482 55.8422H40.448M40.4482 55.8422H40.448M40.448 55.8422H40.4479M40.448 55.8422H40.4479M40.4479 55.8422H40.4477M40.4479 55.8422H40.4477M40.4477 55.8422H40.4476M40.4477 55.8422H40.4476M40.4476 55.8422H40.4474M40.4476 55.8422H40.4474M40.4474 55.8422H40.4473M40.4474 55.8422H40.4473M40.4473 55.8422H40.4471M40.4473 55.8422H40.4471M40.4471 55.8422H40.4469M40.4471 55.8422H40.4469M40.4469 55.8422H40.4468M40.4469 55.8422H40.4468M40.4468 55.8422H40.4466M40.4468 55.8422H40.4466M40.4466 55.8422H40.4465M40.4466 55.8422H40.4465M40.4465 55.8422H40.4463M40.4465 55.8422H40.4463M40.4463 55.8422H40.4462M40.4463 55.8422H40.4462M40.4462 55.8422H40.446M40.4462 55.8422H40.446M40.446 55.8422H40.4459M40.446 55.8422H40.4459M40.4459 55.8422H40.4457M40.4459 55.8422H40.4457M40.4457 55.8422H40.4455M40.4457 55.8422H40.4455M40.4455 55.8422H40.4454M40.4455 55.8422H40.4454M40.4454 55.8422H40.4452M40.4454 55.8422H40.4452M40.4452 55.8422H40.4451M40.4452 55.8422H40.4451M40.4451 55.8422H40.4449M40.4451 55.8422H40.4449M40.4449 55.8422H40.4448M40.4449 55.8422H40.4448M40.4448 55.8422H40.4446M40.4448 55.8422H40.4446M40.4446 55.8422H40.4445M40.4446 55.8422H40.4445M40.4445 55.8422H40.4443M40.4445 55.8422H40.4443M40.4443 55.8422H40.4442M40.4443 55.8422H40.4442M40.4442 55.8422H40.444M40.4442 55.8422H40.444M40.444 55.8422H40.4438M40.444 55.8422H40.4438M40.4438 55.8422H40.4437M40.4438 55.8422H40.4437M40.4437 55.8422H40.4435M40.4437 55.8422H40.4435M40.4435 55.8422H40.4434M40.4435 55.8422H40.4434M40.4434 55.8422H40.4432M40.4434 55.8422H40.4432M40.4432 55.8422H40.4431M40.4432 55.8422H40.4431M40.4431 55.8422H40.4429M40.4431 55.8422H40.4429M40.4429 55.8422H40.4428M40.4429 55.8422H40.4428M40.4428 55.8422H40.4426M40.4428 55.8422H40.4426M40.4426 55.8422H40.4425M40.4426 55.8422H40.4425M40.4425 55.8422H40.4423M40.4425 55.8422H40.4423M40.4423 55.8422H40.4422M40.4423 55.8422H40.4422M40.4422 55.8422H40.442M40.4422 55.8422H40.442M40.442 55.8422H40.4419M40.442 55.8422H40.4419M40.4419 55.8422H40.4417M40.4419 55.8422H40.4417M40.4417 55.8422H40.4415M40.4417 55.8422H40.4415M40.4415 55.8422H40.4414M40.4415 55.8422H40.4414M40.4414 55.8422H40.4412M40.4414 55.8422H40.4412M40.4412 55.8422H40.4411M40.4412 55.8422H40.4411M40.4411 55.8422H40.4409M40.4411 55.8422H40.4409M40.4409 55.8422H40.4408M40.4409 55.8422H40.4408M40.4408 55.8422H40.4406M40.4408 55.8422H40.4406M40.4406 55.8422H40.4405M40.4406 55.8422H40.4405M40.4405 55.8422H40.4403M40.4405 55.8422H40.4403M40.4403 55.8422H40.4402M40.4403 55.8422H40.4402M40.4402 55.8422H40.44M40.4402 55.8422H40.44M40.44 55.8422H40.4399M40.44 55.8422H40.4399M40.4399 55.8422H40.4397M40.4399 55.8422H40.4397M40.4397 55.8422H40.4396M40.4397 55.8422H40.4396M40.4396 55.8422H40.4394M40.4396 55.8422H40.4394M40.4394 55.8422H40.4393M40.4394 55.8422H40.4393M40.4393 55.8422H40.4391M40.4393 55.8422H40.4391M40.4391 55.8422H40.439M40.4391 55.8422H40.439M40.439 55.8422H40.4388M40.439 55.8422H40.4388M40.4388 55.8422H40.4387M40.4388 55.8422H40.4387M40.4387 55.8422H40.4385M40.4387 55.8422H40.4385M40.4385 55.8422H40.4383M40.4385 55.8422H40.4383M40.4383 55.8422H40.4382M40.4383 55.8422H40.4382M40.4382 55.8422H40.438M40.4382 55.8422H40.438M40.438 55.8422H40.4379M40.438 55.8422H40.4379M40.4379 55.8422H40.4377M40.4379 55.8422H40.4377M40.4377 55.8422H40.4376M40.4377 55.8422H40.4376M40.4376 55.8422H40.4374M40.4376 55.8422H40.4374M40.4374 55.8422H40.4373M40.4374 55.8422H40.4373M40.4373 55.8422H40.4371M40.4373 55.8422H40.4371M40.4371 55.8422H40.437M40.4371 55.8422H40.437M40.437 55.8422H40.4368M40.437 55.8422H40.4368M40.4368 55.8422H40.4367M40.4368 55.8422H40.4367M40.4367 55.8422H40.4365M40.4367 55.8422H40.4365M40.4365 55.8422H40.4364M40.4365 55.8422H40.4364M40.4364 55.8422H40.4362M40.4364 55.8422H40.4362M40.4362 55.8422H40.4361M40.4362 55.8422H40.4361M40.4361 55.8422H40.4359M40.4361 55.8422H40.4359M40.4359 55.8422H40.4358M40.4359 55.8422H40.4358M40.4358 55.8422H40.4356M40.4358 55.8422H40.4356M40.4356 55.8422H40.4355M40.4356 55.8422H40.4355M40.4355 55.8422H40.4353M40.4355 55.8422H40.4353M40.4353 55.8422H40.4352M40.4353 55.8422H40.4352M40.4352 55.8422H40.435M40.4352 55.8422H40.435M40.435 55.8422H40.4349M40.435 55.8422H40.4349M40.4349 55.8422H40.4347M40.4349 55.8422H40.4347M40.4347 55.8422H40.4346M40.4347 55.8422H40.4346M40.4346 55.8422H40.4344M40.4346 55.8422H40.4344M40.4344 55.8422H40.4343M40.4344 55.8422H40.4343M40.4343 55.8422H40.4341M40.4343 55.8422H40.4341M40.4341 55.8422H40.434M40.4341 55.8422H40.434M40.434 55.8422H40.4339M40.434 55.8422H40.4339M40.4339 55.8422H40.4337M40.4339 55.8422H40.4337M40.4337 55.8422H40.4336M40.4337 55.8422H40.4336M40.4336 55.8422H40.4334M40.4336 55.8422H40.4334M40.4334 55.8422H40.4333M40.4334 55.8422H40.4333M40.4333 55.8422H40.4331M40.4333 55.8422H40.4331M40.4331 55.8422H40.433M40.4331 55.8422H40.433M40.433 55.8422H40.4328M40.433 55.8422H40.4328M40.4328 55.8422H40.4327M40.4328 55.8422H40.4327M40.4327 55.8422H40.4325M40.4327 55.8422H40.4325M40.4325 55.8422H40.4324M40.4325 55.8422H40.4324M40.4324 55.8422H40.4322M40.4324 55.8422H40.4322M40.4322 55.8422H40.4321M40.4322 55.8422H40.4321M40.4321 55.8422H40.4319M40.4321 55.8422H40.4319M40.4319 55.8422H40.4318M40.4319 55.8422H40.4318M40.4318 55.8422H40.4316M40.4318 55.8422H40.4316M40.4316 55.8422H40.4315M40.4316 55.8422H40.4315M40.4315 55.8422H40.4313M40.4315 55.8422H40.4313M40.4313 55.8422H40.4312M40.4313 55.8422H40.4312M40.4312 55.8422H40.4311M40.4312 55.8422H40.4311M40.4311 55.8422H40.4309M40.4311 55.8422H40.4309M40.4309 55.8422H40.4309M40.4309 55.8422H40.4309M40.4309 55.8422C39.0326 55.8226 37.7122 55.2653 36.7166 54.2716C35.7207 53.2776 35.1625 51.9595 35.1431 50.5637L40.4309 55.8422ZM39.4418 47.6288V47.4407L39.2684 47.5136C38.8759 47.6785 38.5194 47.9158 38.2097 48.2249L38.209 48.2256C37.5992 48.8446 37.2682 49.6654 37.2785 50.5321L37.2785 50.5325C37.3044 52.2618 38.7306 53.6856 40.4584 53.7062C41.3265 53.7166 42.1487 53.3862 42.7688 52.7776C43.0789 52.4732 43.3222 52.1118 43.4828 51.7188L43.5532 51.5465H43.3671H40.5095C39.9174 51.5465 39.4418 51.0715 39.4418 50.481V47.6288Z" fill="white" stroke="#42C2FF" stroke-width="0.25"/>
<path d="M64.4289 45.7599H52.0296C51.4375 45.7599 50.9619 45.2848 50.9619 44.6944C50.9619 44.1039 51.4375 43.6289 52.0296 43.6289H64.4289C65.021 43.6289 65.4966 44.1039 65.4966 44.6944C65.4966 45.2848 65.021 45.7599 64.4289 45.7599Z" fill="white" stroke="#42C2FF" stroke-width="0.25"/>
<path d="M84.8393 45.7599H68.8917C68.2995 45.7599 67.824 45.2848 67.824 44.6944C67.824 44.1039 68.2995 43.6289 68.8917 43.6289H84.8393C85.4314 43.6289 85.907 44.1039 85.907 44.6944C85.907 45.2848 85.4314 45.7599 84.8393 45.7599Z" fill="white" stroke="#42C2FF" stroke-width="0.25"/>
<path d="M74.0253 50.0597H52.0296C51.4375 50.0597 50.9619 49.5846 50.9619 48.9942C50.9619 48.4037 51.4375 47.9287 52.0296 47.9287H74.0302C74.6224 47.9287 75.098 48.4037 75.098 48.9942C75.098 49.584 74.6181 50.0597 74.0253 50.0597Z" fill="white" stroke="#42C2FF" stroke-width="0.25"/>
<path d="M84.8391 50.0597H78.473C77.8808 50.0597 77.4053 49.5846 77.4053 48.9942C77.4053 48.4037 77.8808 47.9287 78.473 47.9287H84.8391C85.4312 47.9287 85.9068 48.4037 85.9068 48.9942C85.9068 49.5846 85.4312 50.0597 84.8391 50.0597Z" fill="white" stroke="#42C2FF" stroke-width="0.25"/>
<path d="M64.8761 54.3609H52.0296C51.4375 54.3609 50.9619 53.8859 50.9619 53.2954C50.9619 52.705 51.4375 52.23 52.0296 52.23H64.8761C65.4683 52.23 65.9439 52.705 65.9439 53.2954C65.9439 53.8859 65.4683 54.3609 64.8761 54.3609Z" fill="white" stroke="#42C2FF" stroke-width="0.25"/>
<path d="M84.8389 54.3609H69.2342C68.6421 54.3609 68.1665 53.8859 68.1665 53.2954C68.1665 52.705 68.6421 52.23 69.2342 52.23H84.8389C85.431 52.23 85.9066 52.705 85.9066 53.2954C85.9066 53.8859 85.431 54.3609 84.8389 54.3609Z" fill="white" stroke="#42C2FF" stroke-width="0.25"/>
<path d="M85.5893 79.8517C82.3921 79.8517 79.3825 78.6099 77.1199 76.3515C74.8574 74.0932 73.6133 71.0943 73.6133 67.8983C73.6133 64.7024 74.8623 61.7034 77.1249 59.445C79.3875 57.1867 82.3921 55.9448 85.5943 55.9448C88.7965 55.9448 91.8012 57.1867 94.0637 59.445C96.3263 61.7033 97.5704 64.7023 97.5704 67.8983C97.5704 71.0943 96.3263 74.0932 94.0637 76.3515C91.8012 78.6098 88.7916 79.8517 85.5893 79.8517ZM85.5893 58.0758C80.1633 58.0758 75.7487 62.4818 75.7487 67.8983C75.7487 73.3148 80.1633 77.7208 85.5893 77.7208C91.0154 77.7208 95.43 73.3148 95.43 67.8983C95.43 62.4818 91.0154 58.0758 85.5893 58.0758Z" fill="white" stroke="#42C2FF" stroke-width="0.25"/>
<path d="M85.5892 75.5765C81.3444 75.5765 77.897 72.1303 77.897 67.8989C77.897 63.6675 81.3494 60.2212 85.5892 60.2212C89.8341 60.2212 93.2864 63.6676 93.2864 67.8989C93.2864 72.1302 89.8341 75.5765 85.5892 75.5765ZM85.5892 62.3472C82.5236 62.3472 80.0324 64.8387 80.0324 67.8989C80.0324 70.9592 82.5237 73.4455 85.5892 73.4455C88.6547 73.4455 91.151 70.9543 91.151 67.8989C91.151 64.8436 88.6548 62.3472 85.5892 62.3472Z" fill="white" stroke="#42C2FF" stroke-width="0.25"/>
<path d="M92.2994 76.2708L92.2988 76.2703C91.8864 75.8542 91.2101 75.8571 90.7907 76.2712C90.3734 76.6833 90.3727 77.3576 90.7912 77.7754C90.7912 77.7754 90.7912 77.7754 90.7912 77.7754L97.485 84.4517C97.485 84.4517 97.4851 84.4518 97.4851 84.4518C98.1178 85.0785 98.9509 85.4224 99.8371 85.4224C100.685 85.4224 101.489 85.107 102.107 84.5288C102.764 83.9118 103.137 83.0758 103.151 82.1724C103.165 81.2689 102.806 80.3839 102.164 79.743C102.164 79.743 102.164 79.743 102.164 79.743L95.4898 73.0863L95.4893 73.0857C95.0769 72.6697 94.4006 72.6726 93.9812 73.0867C93.5639 73.4988 93.5632 74.1731 93.9817 74.5908L100.656 81.2476L100.656 81.2476C100.894 81.485 101.021 81.8004 101.016 82.1368L101.016 82.1369C101.01 82.4565 100.883 82.7572 100.648 82.9749C100.426 83.1857 100.136 83.2964 99.8371 83.2964C99.52 83.2964 99.2201 83.1687 98.9984 82.9475C98.9984 82.9474 98.9984 82.9474 98.9984 82.9474M92.2994 76.2708L99.0867 82.8589L98.9984 82.9474M92.2994 76.2708L98.9984 82.9474M92.2994 76.2708L98.9984 82.9474" fill="white" stroke="#42C2FF" stroke-width="0.25"/>
</svg>
