<svg width="121" height="121" viewBox="0 0 121 121" fill="none" xmlns="http://www.w3.org/2000/svg">
<circle cx="60.5" cy="60.5" r="60.5" fill="#42C2FF"/>
<path d="M93.4976 77.2031L93.4976 77.2039C93.5021 77.8039 93.0107 78.2958 92.4098 78.2958H28.5897C27.984 78.2958 27.497 77.8088 27.497 77.2031V38.1864C27.497 36.4874 28.8785 35.1059 30.5775 35.1059H90.417C92.1161 35.1059 93.4976 36.4874 93.4976 38.1864L93.4976 77.2031ZM29.6824 76.0104V76.1104H29.7824H91.2122H91.3122V76.0104V38.1864C91.3122 37.6939 90.9096 37.2913 90.417 37.2913H30.5775C30.085 37.2913 29.6824 37.6939 29.6824 38.1864V76.0104Z" fill="white" stroke="#42C2FF" stroke-width="0.2"/>
<path d="M34.7615 70.9317V71.0317H34.8615H86.1433H86.2433V70.9317V42.4656V42.3656H86.1433H34.8615H34.7615V42.4656V70.9317ZM87.331 73.2171H33.6688C33.0631 73.2171 32.5761 72.7301 32.5761 72.1244V41.2729C32.5761 40.6671 33.0631 40.1801 33.6688 40.1801H87.336C87.9417 40.1801 88.4287 40.6671 88.4287 41.2729V72.1236C88.4241 72.7301 87.9366 73.2171 87.331 73.2171Z" fill="white" stroke="#42C2FF" stroke-width="0.2"/>
<path d="M91.5005 85.8944H29.4992C25.6036 85.8944 22.433 82.7238 22.433 78.8282C22.433 77.3279 23.6555 76.1054 25.1558 76.1054H95.8489C97.349 76.1054 98.5668 77.3277 98.5717 78.8234C98.5666 82.724 95.3959 85.8944 91.5005 85.8944ZM25.1558 78.2958C24.8627 78.2958 24.6184 78.5337 24.6184 78.8332C24.6184 81.5222 26.8051 83.714 29.4992 83.714H91.5054C94.1945 83.714 96.3862 81.5273 96.3862 78.8332C96.3862 78.5401 96.1484 78.2958 95.8489 78.2958H25.1558Z" fill="white" stroke="#42C2FF" stroke-width="0.2"/>
<path d="M64.8185 82.0925H56.1812C55.5755 82.0925 55.0885 81.6056 55.0885 80.9998C55.0885 80.3941 55.5755 79.9071 56.1812 79.9071H64.8135C65.4192 79.9071 65.9062 80.3941 65.9062 80.9998C65.9062 81.6058 65.419 82.0925 64.8185 82.0925Z" fill="white" stroke="#42C2FF" stroke-width="0.2"/>
<path d="M76.7007 66.594V66.694H76.8007H78.8084H78.9084V66.594V53.9313V53.8313H78.8084H76.8007H76.7007V53.9313V66.594ZM79.9962 68.8794H75.608C75.0023 68.8794 74.5153 68.3924 74.5153 67.7867V52.7386C74.5153 52.1329 75.0023 51.6459 75.608 51.6459H80.0012C80.6069 51.6459 81.0939 52.1329 81.0939 52.7386V67.7863C81.0891 68.3926 80.6017 68.8794 79.9962 68.8794Z" fill="white" stroke="#42C2FF" stroke-width="0.2"/>
<path d="M68.0286 66.5936V66.6936H68.1286H70.1512H70.2512V66.5936V56.5251V56.4251H70.1512H68.1286H68.0286V56.5251V66.5936ZM71.344 68.879H66.9359C66.3301 68.879 65.8432 68.392 65.8432 67.7863V55.3324C65.8432 54.7266 66.3301 54.2396 66.9359 54.2396H71.344C71.9497 54.2396 72.4367 54.7266 72.4367 55.3324V67.7863C72.4367 68.392 71.9497 68.879 71.344 68.879Z" fill="white" stroke="#42C2FF" stroke-width="0.2"/>
<path d="M59.3667 66.5937V66.6937H59.4667H61.4894H61.5894V66.5937V59.1193V59.0193H61.4894H59.4667H59.3667V59.1193V66.5937ZM62.6821 68.8791H58.274C57.6683 68.8791 57.1813 68.3921 57.1813 67.7864V57.9266C57.1813 57.3209 57.6683 56.8339 58.274 56.8339H62.6821C63.2878 56.8339 63.7748 57.3209 63.7748 57.9266V67.7864C63.7748 68.3921 63.2878 68.8791 62.6821 68.8791Z" fill="white" stroke="#42C2FF" stroke-width="0.2"/>
<path d="M50.7041 66.5947V66.6947H50.8041H52.8268H52.9268V66.5947V61.7145V61.6145H52.8268H50.8041H50.7041V61.7145V66.5947ZM54.0195 68.8802H49.6114C49.0057 68.8802 48.5187 68.3932 48.5187 67.7874V60.5218C48.5187 59.9161 49.0057 59.4291 49.6114 59.4291H54.0195C54.6252 59.4291 55.1122 59.9161 55.1122 60.5218V67.7874C55.1122 68.3932 54.6252 68.8802 54.0195 68.8802Z" fill="white" stroke="#42C2FF" stroke-width="0.2"/>
<path d="M42.0471 66.5943V66.6943H42.1471H44.1698H44.2698V66.5943V64.3083V64.2083H44.1698H42.1471H42.0471V64.3083V66.5943ZM45.3625 68.8797H40.9544C40.3487 68.8797 39.8617 68.3928 39.8617 67.787V63.1156C39.8617 62.5098 40.3487 62.0229 40.9544 62.0229H45.3625C45.9682 62.0229 46.4552 62.5098 46.4552 63.1156V67.787C46.4552 68.3925 45.9635 68.8797 45.3625 68.8797Z" fill="white" stroke="#42C2FF" stroke-width="0.2"/>
<path d="M40.8362 58.9447C40.9866 59.4092 41.4146 59.7051 41.879 59.7051C41.9865 59.7051 42.096 59.6873 42.2131 59.6546L79.4089 47.7778C79.4089 47.7778 79.4089 47.7778 79.4089 47.7778C79.9876 47.591 80.3016 46.9763 80.1196 46.4027C79.9327 45.8241 79.318 45.5102 78.7444 45.6922L40.8362 58.9447ZM40.8362 58.9447C40.6542 58.3711 40.9682 57.7565 41.5467 57.5696C41.5468 57.5696 41.5469 57.5696 41.5469 57.5695L78.7443 45.6922L40.8362 58.9447Z" fill="white" stroke="#42C2FF" stroke-width="0.2"/>
<path d="M77.4357 49.7686L77.4357 49.7686L77.4346 49.768C76.902 49.4812 76.7062 48.8166 76.993 48.2887L76.9931 48.2884L77.5448 47.2646L77.5922 47.1766L77.5042 47.1291L76.4804 46.5775L76.4804 46.5775C75.9478 46.2907 75.7521 45.6261 76.0388 45.0981L76.039 45.0978C76.3257 44.5652 76.9904 44.3695 77.5183 44.6562L77.5186 44.6564L79.5909 45.7745L79.5912 45.7747C79.8463 45.9113 80.0372 46.1435 80.119 46.4205C80.2009 46.6982 80.1691 46.999 80.0324 47.2543C80.0324 47.2544 80.0323 47.2544 80.0323 47.2544L78.9143 49.3265L78.9142 49.3267C78.7186 49.6905 78.3408 49.9002 77.9537 49.9002C77.7802 49.9002 77.5984 49.859 77.4357 49.7686Z" fill="white" stroke="#42C2FF" stroke-width="0.2"/>
<circle cx="60.5" cy="60.5" r="60.5" fill="#42C2FF"/>
<path d="M56.1707 85.8769H56.1667L39.24 85.8729C38.7132 85.8729 38.2893 85.4451 38.2893 84.9222C38.2893 84.3954 38.7132 83.9715 39.24 83.9715L56.1667 83.9755H56.1707C59.9141 83.9755 63.5743 82.9297 66.7513 80.9569L87.8651 67.8331C88.5821 67.3895 89.002 66.6526 89.0178 65.8089C89.0337 64.9691 88.6455 64.2125 87.9483 63.7411C87.152 63.1984 86.1063 63.1786 85.2863 63.6856C82.7589 65.2583 79.3205 67.4251 74.9631 70.1663C72.824 71.5132 70.4749 72.9907 67.9357 74.5872C67.4921 74.8684 66.9058 74.7337 66.6245 74.2901C66.3433 73.8464 66.478 73.2601 66.9216 72.9789C69.4608 71.3825 71.8099 69.9049 73.949 68.558C78.3064 65.8168 81.7488 63.65 84.2801 62.0734C85.7379 61.1662 87.5957 61.2019 89.0178 62.1684C90.2379 62.9964 90.947 64.3749 90.9192 65.8485C90.8876 67.3221 90.123 68.669 88.8673 69.4454L67.7535 82.5692C64.2755 84.7321 60.2666 85.8769 56.1707 85.8769Z" fill="white"/>
<path d="M63.9426 77.6097H53.8492C53.3223 77.6097 52.8985 77.1859 52.8985 76.659C52.8985 76.1322 53.3223 75.7083 53.8492 75.7083H63.9426C65.337 75.7083 66.4779 74.6189 66.5412 73.2285C66.5729 72.5234 66.3194 71.846 65.8242 71.3271C65.3212 70.8002 64.616 70.4992 63.8872 70.4992H51.413C51.409 70.4992 51.409 70.4992 51.4051 70.4992C49.6146 70.4833 44.1638 70.4358 40.872 73.8148C40.563 74.1317 40.2738 74.4724 40.0123 74.8328C39.7034 75.2567 39.1092 75.3518 38.6853 75.0428C38.2615 74.7338 38.1664 74.1396 38.4754 73.7158C38.7923 73.284 39.1409 72.868 39.5093 72.4877C41.1334 70.82 43.32 69.6752 46.0137 69.081C48.0617 68.6294 49.975 68.5859 51.417 68.5977H63.8951C65.1389 68.5977 66.3471 69.1127 67.2067 70.0159C68.0624 70.9151 68.506 72.0877 68.4466 73.3157C68.3317 75.7241 66.3551 77.6097 63.9426 77.6097Z" fill="white"/>
<path d="M37.6554 89.0375H32.6126C31.2143 89.0375 30.0774 87.9006 30.0774 86.5022V71.1323C30.0774 69.734 31.2143 68.5971 32.6126 68.5971H37.6554C39.0537 68.5971 40.1906 69.734 40.1906 71.1323V86.5022C40.1906 87.9006 39.0537 89.0375 37.6554 89.0375ZM32.6126 70.4985C32.264 70.4985 31.9788 70.7837 31.9788 71.1323V86.5022C31.9788 86.8508 32.264 87.136 32.6126 87.136H37.6554C38.004 87.136 38.2892 86.8508 38.2892 86.5022V71.1323C38.2892 70.7837 38.004 70.4985 37.6554 70.4985H32.6126Z" fill="white"/>
<path d="M62.5403 63.6613H58.4483C56.6657 63.6613 55.2158 62.2114 55.2158 60.4289V59.0107C55.2158 58.4839 55.6397 58.06 56.1665 58.06H64.822C65.3489 58.06 65.7727 58.4839 65.7727 59.0107V60.4289C65.7727 61.2924 65.436 62.1045 64.826 62.7145C64.2159 63.3246 63.4039 63.6613 62.5403 63.6613ZM57.1173 59.9614V60.4289C57.1173 61.1617 57.7154 61.7599 58.4483 61.7599H62.5403C62.8968 61.7599 63.2296 61.6212 63.4831 61.3716C63.7366 61.1221 63.8713 60.7854 63.8713 60.4328V59.9654L57.1173 59.9614Z" fill="white"/>
<path d="M60.5397 66.9133H60.4486C58.5194 66.9133 56.9468 65.3407 56.9468 63.4115V62.6391C56.9468 62.1122 57.3706 61.6884 57.8975 61.6884C58.4243 61.6884 58.8482 62.1122 58.8482 62.6391V63.4115C58.8482 64.2949 59.5652 65.0119 60.4486 65.0119H60.5397C61.4231 65.0119 62.1401 64.2949 62.1401 63.4115V62.6391C62.1401 62.1122 62.5639 61.6884 63.0908 61.6884C63.6176 61.6884 64.0415 62.1122 64.0415 62.6391V63.4115C64.0375 65.3446 62.4688 66.9133 60.5397 66.9133Z" fill="white"/>
<path d="M60.4998 59.9619C59.9729 59.9619 59.5491 59.538 59.5491 59.0112V51.354C59.5491 50.8271 59.9729 50.4033 60.4998 50.4033C61.0266 50.4033 61.4505 50.8271 61.4505 51.354V59.0151C61.4505 59.538 61.0266 59.9619 60.4998 59.9619Z" fill="white"/>
<path d="M56.3723 59.9625C55.1958 59.9625 54.1896 59.1702 53.9202 58.0373C53.7538 57.3401 53.4092 56.6825 52.922 56.1398C51.2384 54.2701 50.3154 51.8537 50.3154 49.3343C50.3154 46.6406 51.3573 44.1054 53.2468 42.1881C55.1363 40.2748 57.6518 39.1973 60.3415 39.1537H60.5C66.0141 39.1537 70.5656 43.5944 70.6805 49.1204C70.736 51.719 69.809 54.2107 68.074 56.1398C67.5867 56.6825 67.2421 57.3401 67.0757 58.0373C66.8064 59.1702 65.7962 59.9625 64.6237 59.9625H56.3723ZM60.492 41.0552C60.4485 41.0552 60.4049 41.0552 60.3653 41.0552C55.8692 41.1225 52.2129 44.8382 52.2129 49.3343C52.2129 51.3823 52.9655 53.3471 54.3322 54.8683C55.0333 55.6447 55.5285 56.5914 55.7662 57.5976C55.8296 57.867 56.0831 58.0611 56.3723 58.0611H64.6158C64.901 58.0611 65.1545 57.867 65.2218 57.5976C65.4635 56.5914 65.9586 55.6486 66.6558 54.8683C68.0661 53.2996 68.8187 51.2714 68.7751 49.16C68.6801 44.6639 64.9762 41.0552 60.492 41.0552Z" fill="white"/>
<path d="M60.5 37.0378C59.9732 37.0378 59.5493 36.6139 59.5493 36.0871V32.9101C59.5493 32.3833 59.9732 31.9594 60.5 31.9594C61.0269 31.9594 61.4508 32.3833 61.4508 32.9101V36.0871C61.4508 36.6139 61.0269 37.0378 60.5 37.0378Z" fill="white"/>
<path d="M53.7934 38.8364C53.4646 38.8364 53.1438 38.666 52.9695 38.361L51.381 35.6119C51.1195 35.1563 51.274 34.574 51.7296 34.3126C52.1851 34.0511 52.7674 34.2056 53.0289 34.6612L54.6174 37.4103C54.8788 37.8659 54.7243 38.4482 54.2688 38.7096C54.1182 38.7968 53.9558 38.8364 53.7934 38.8364Z" fill="white"/>
<path d="M48.8857 43.7446C48.7233 43.7446 48.5609 43.7049 48.4104 43.6178L45.6612 42.0293C45.2057 41.7679 45.0512 41.1856 45.3126 40.73C45.5741 40.2745 46.1564 40.12 46.6119 40.3814L49.3611 41.9699C49.8166 42.2313 49.9711 42.8137 49.7097 43.2692C49.5314 43.5742 49.2145 43.7446 48.8857 43.7446Z" fill="white"/>
<path d="M47.0872 50.451H43.9102C43.3833 50.451 42.9595 50.0272 42.9595 49.5003C42.9595 48.9735 43.3833 48.5496 43.9102 48.5496H47.0872C47.614 48.5496 48.0379 48.9735 48.0379 49.5003C48.0379 50.0272 47.614 50.451 47.0872 50.451Z" fill="white"/>
<path d="M46.1366 58.746C45.8078 58.746 45.4869 58.5756 45.3126 58.2706C45.0512 57.8151 45.2057 57.2327 45.6612 56.9713L48.4104 55.3828C48.8659 55.1214 49.4482 55.2759 49.7097 55.7314C49.9711 56.187 49.8166 56.7693 49.3611 57.0307L46.6119 58.6192C46.4614 58.7064 46.295 58.746 46.1366 58.746Z" fill="white"/>
<path d="M74.8642 58.746C74.7018 58.746 74.5394 58.7064 74.3889 58.6192L71.6397 57.0307C71.1842 56.7693 71.0297 56.187 71.2911 55.7314C71.5526 55.2759 72.1349 55.1214 72.5904 55.3828L75.3396 56.9713C75.7952 57.2327 75.9497 57.8151 75.6882 58.2706C75.5139 58.5756 75.193 58.746 74.8642 58.746Z" fill="white"/>
<path d="M77.0901 50.451H73.9131C73.3863 50.451 72.9624 50.0272 72.9624 49.5003C72.9624 48.9735 73.3863 48.5496 73.9131 48.5496H77.0901C77.617 48.5496 78.0408 48.9735 78.0408 49.5003C78.0408 50.0272 77.613 50.451 77.0901 50.451Z" fill="white"/>
<path d="M72.1151 43.7446C71.7863 43.7446 71.4654 43.5742 71.2911 43.2692C71.0297 42.8137 71.1842 42.2313 71.6397 41.9699L74.3889 40.3814C74.8444 40.12 75.4268 40.2745 75.6882 40.73C75.9497 41.1856 75.7952 41.7679 75.3396 42.0293L72.5904 43.6178C72.4399 43.7049 72.2775 43.7446 72.1151 43.7446Z" fill="white"/>
<path d="M67.2069 38.8363C67.0445 38.8363 66.8821 38.7967 66.7315 38.7096C66.276 38.4481 66.1215 37.8658 66.3829 37.4102L67.9714 34.6611C68.2329 34.2055 68.8152 34.0511 69.2707 34.3125C69.7263 34.5739 69.8808 35.1563 69.6193 35.6118L68.0308 38.361C67.8526 38.666 67.5357 38.8363 67.2069 38.8363Z" fill="white"/>
<path d="M60.5005 52.3051C60.243 52.3051 59.9934 52.1981 59.8152 52.0119C59.5616 51.7465 59.2764 51.5009 58.9674 51.2751C58.5872 50.9978 58.1673 50.7562 57.7196 50.5542C57.2403 50.3403 57.0264 49.7777 57.2443 49.2984C57.4582 48.8191 58.0207 48.6052 58.5 48.8231C59.0625 49.0766 59.5973 49.3856 60.0806 49.7381C60.2232 49.8411 60.3658 49.952 60.5005 50.063C60.6352 49.952 60.7778 49.8411 60.9204 49.7381C61.4076 49.3856 61.9384 49.0806 62.5009 48.827C62.9802 48.6131 63.5427 48.8231 63.7567 49.3024C63.9706 49.7817 63.7606 50.3442 63.2813 50.5581C62.8337 50.7602 62.4138 51.0018 62.0335 51.2751C61.7245 51.497 61.4393 51.7465 61.1818 52.0119C61.0075 52.1981 60.758 52.3051 60.5005 52.3051Z" fill="white"/>
</svg>
