<svg width="845" height="358" viewBox="0 0 845 358" fill="none" xmlns="http://www.w3.org/2000/svg">
<g opacity="0.03" clip-path="url(#clip0_264_3475)">
<path d="M146.156 173.826C142.501 173.826 138.846 173.828 135.192 173.825C131.064 173.821 129.797 172.961 128.383 169.14C125.17 160.454 121.934 151.777 118.803 143.061C118.306 141.677 117.665 141.261 116.222 141.264C94.2272 141.312 72.2317 141.317 50.2365 141.256C48.6463 141.251 48.066 141.805 47.5568 143.223C44.4282 151.939 41.1988 160.619 37.9811 169.303C36.6486 172.899 35.2933 173.821 31.4643 173.824C23.952 173.83 16.4397 173.834 8.92744 173.822C4.03705 173.814 2.71498 171.854 4.5537 167.253C25.6033 114.588 46.6622 61.9268 67.7266 9.26762C69.1102 5.80861 70.6688 4.76337 74.3477 4.75509C80.3034 4.74168 86.2591 4.74332 92.2147 4.75483C95.969 4.76207 97.5042 5.7617 98.8742 9.19779C119.855 61.8182 140.826 114.442 161.796 167.067C161.996 167.569 162.186 168.078 162.328 168.598C163.168 171.667 161.733 173.724 158.54 173.793C154.414 173.882 150.284 173.815 146.156 173.815C146.156 173.819 146.156 173.822 146.156 173.826ZM107.598 112.77C99.3497 90.4625 91.1578 68.3059 83.2101 46.8098C75.2509 68.3475 67.0691 90.4879 58.8347 112.77C75.201 112.77 91.2741 112.77 107.598 112.77Z" fill="#191919"/>
<path d="M287.513 1.53788C310.69 1.36527 330.505 7.22117 347.59 21.2326C350.882 23.9325 351.052 25.6334 348.372 28.8758C344.361 33.7283 340.35 38.5812 336.321 43.4184C333.579 46.7091 331.679 46.9864 328.201 44.3642C320.618 38.6464 312.197 34.8232 302.885 33.0366C295.002 31.524 287.109 31.4317 279.443 34.1043C276.94 34.9768 274.436 36.2942 272.399 37.9738C265.874 43.352 265.57 53.0426 271.528 59.0372C275.287 62.8197 279.981 65.1376 284.877 66.9284C294.136 70.3152 303.523 73.3526 312.794 76.7105C320.564 79.5249 327.982 83.0981 334.911 87.6651C347.747 96.1259 354.181 108.078 354.826 123.37C355.351 135.799 352.569 147.168 344.524 156.897C336.529 166.566 326.033 172.364 313.988 174.945C281.504 181.907 253.044 174.264 229.305 150.544C226.271 147.512 226.289 145.535 229.355 142.437C233.832 137.914 238.337 133.418 242.848 128.93C245.804 125.988 247.583 125.925 250.609 128.863C257.716 135.765 265.842 140.986 275.35 143.87C286.568 147.272 297.873 147.87 309.01 143.706C320.897 139.262 325.267 126.286 318.418 116.402C315.21 111.774 310.576 108.873 305.491 106.946C297.857 104.053 290.06 101.586 282.299 99.0395C272.58 95.8504 263.098 92.1885 254.367 86.7231C238.829 76.9964 232.993 62.5993 234.035 44.8801C235.191 25.214 248.129 9.72646 270.192 4.01973C272.805 3.34394 275.466 2.78713 278.139 2.43238C281.689 1.96134 285.272 1.74316 287.513 1.53788Z" fill="#191919"/>
<path d="M830.484 42.8645C831.636 37.4631 832.716 31.6606 833.651 25.8665C833.96 23.9511 832.751 22.118 830.869 21.6513L820.488 19.0768C818.371 18.5517 816.252 19.9535 815.916 22.1101C815.037 27.7393 814.062 33.1733 812.991 38.4121C812.603 40.3114 813.752 42.187 815.614 42.7227L825.813 45.657C827.886 46.2533 830.034 44.975 830.484 42.8645Z" fill="#00C4FF"/>
<path d="M808.366 70.3174C806.412 69.4106 804.098 70.3505 803.327 72.3628C786.999 114.973 763.607 140.211 733.036 144.768C700.81 149.571 673.704 133.547 666.946 102.477C661.82 78.9099 669.962 53.2343 688.999 40.4845C717.413 21.4534 769.66 28.7036 777.509 84.5539C778.381 95.8985 790.589 94.1532 791.461 74.9547C794.949 33.9396 760.05 1.9148 719.788 1.53871C670.668 1.07991 632.252 39.6981 632.053 89.0057C631.853 138.275 670.38 177.287 719.414 177.469C755.882 177.469 790.589 161.348 812.669 125.431C813.819 123.561 813.462 121.152 811.581 120.022L805.373 116.295C803.531 115.189 803.015 112.765 804.226 110.99C807.395 106.347 810.178 100.584 812.667 95.4989C813.518 93.76 815.558 92.9653 817.36 93.6702L825.247 96.7557C827.093 97.478 829.172 96.6236 829.999 94.8208C833.494 87.208 836.641 79.0483 839.402 70.34C840.032 68.3525 838.936 66.2293 836.942 65.6224L828.116 62.9359C826.192 62.3502 824.182 63.4279 823.542 65.3355C822.814 67.5013 821.982 69.585 821.052 71.5917C820.181 73.4715 817.967 74.3057 816.089 73.4339L808.366 70.3174Z" fill="#191919"/>
<path d="M16.4169 324.967C17.1752 325.558 18.1017 326.339 19.1977 327.308C20.292 328.278 21.5562 329.268 22.9898 330.28C25.0953 331.715 27.2247 332.832 29.3737 333.632C31.5227 334.435 33.7347 334.834 36.0101 334.834C40.3906 334.834 43.3614 333.949 44.9219 332.178C46.4803 330.407 47.2603 328.341 47.2603 325.979C47.2603 324.631 46.7545 323.449 45.7432 322.437C44.732 321.425 43.5313 320.52 42.1406 319.718C40.7504 318.917 39.275 318.243 37.7167 317.694C36.1561 317.146 34.7872 316.662 33.6082 316.239C23.4105 312.697 15.8046 308.522 10.7917 303.715C5.77675 298.908 3.27054 292.795 3.27054 285.373C3.27054 281.41 4.07017 277.826 5.67201 274.62C7.27212 271.416 9.52755 268.675 12.4348 266.397C15.3421 264.12 18.86 262.371 22.9898 261.148C27.1179 259.926 31.7121 259.313 36.7684 259.313C40.5605 259.313 44.2462 259.737 47.8292 260.579C51.4101 261.423 54.8863 262.814 58.2577 264.753C61.1216 266.441 63.6082 268.169 65.7159 269.94C67.8214 271.711 68.8761 273.187 68.8761 274.367C68.8761 275.126 68.3268 276.138 67.2325 277.403L57.4994 287.776C56.8236 288.452 56.1087 288.788 55.3504 288.788C54.7598 288.788 54.2322 288.62 53.7703 288.282C53.3062 287.946 52.7786 287.523 52.1902 287.017L51.5583 286.511C49.8713 285.078 47.8292 283.665 45.4273 282.273C43.0254 280.882 40.4758 280.186 37.7797 280.186C34.9988 280.186 32.5969 280.651 30.5744 281.577C28.5519 282.507 27.5407 284.192 27.5407 286.638C27.5407 289 28.7197 290.812 31.0803 292.077C33.4383 293.342 36.9362 294.734 41.5718 296.252C46.0375 297.77 50.1677 299.331 53.9597 300.932C57.7523 302.535 61.0168 304.455 63.7564 306.688C66.4942 308.924 68.6231 311.58 70.1403 314.658C71.6569 317.737 72.4153 321.469 72.4153 325.853C72.4153 330.492 71.4674 334.688 69.5714 338.44C67.6753 342.193 65.084 345.397 61.7973 348.054C58.5106 350.71 54.6334 352.778 50.1677 354.252C45.6998 355.727 40.8965 356.466 35.7572 356.466C32.4705 356.466 29.2255 356.043 26.0236 355.201C22.8199 354.359 19.7231 353.22 16.7328 351.785C13.7403 350.352 10.9378 348.666 8.32681 346.725C5.71373 344.787 3.39657 342.677 1.37406 340.4L1.12157 340.274C1.03641 340.106 0.951683 340.001 0.868655 339.958C0.783491 339.916 0.698763 339.853 0.615734 339.768C-0.312503 338.756 -0.774902 337.914 -0.774902 337.238C-0.774902 336.564 -0.312503 335.763 0.615734 334.834L11.6131 324.335C12.4549 323.746 13.1715 323.449 13.762 323.449C14.4357 323.449 15.3204 323.955 16.4169 324.967Z" fill="#191919"/>
<path d="M139.614 352.417V318.742L110.653 264.12C110.231 263.193 110.211 262.497 110.59 262.033C110.969 261.57 111.621 261.337 112.55 261.337H132.421C133.938 261.337 135.202 262.266 136.213 264.12L151.875 295.745L167.537 264.12C168.378 262.266 169.643 261.337 171.329 261.337H191.454C192.38 261.337 193.034 261.57 193.413 262.033C193.792 262.497 193.729 263.193 193.223 264.12L164.137 318.616V352.417C164.137 354.273 163.209 355.2 161.356 355.2H142.395C140.54 355.2 139.614 354.273 139.614 352.417Z" fill="#191919"/>
<path d="M246.163 324.967C246.921 325.558 247.848 326.339 248.944 327.308C250.038 328.278 251.302 329.268 252.736 330.28C254.841 331.715 256.971 332.832 259.12 333.632C261.269 334.435 263.481 334.834 265.756 334.834C270.137 334.834 273.107 333.949 274.668 332.178C276.226 330.407 277.006 328.341 277.006 325.979C277.006 324.631 276.501 323.449 275.489 322.437C274.478 321.425 273.277 320.52 271.887 319.718C270.497 318.917 269.021 318.243 267.463 317.694C265.902 317.146 264.533 316.662 263.354 316.239C253.157 312.697 245.551 308.522 240.538 303.715C235.523 298.908 233.017 292.795 233.017 285.373C233.017 281.41 233.816 277.826 235.418 274.62C237.018 271.416 239.274 268.675 242.181 266.397C245.088 264.12 248.606 262.371 252.736 261.148C256.864 259.926 261.458 259.313 266.515 259.313C270.307 259.313 273.992 259.737 277.575 260.579C281.156 261.423 284.632 262.814 288.004 264.753C290.868 266.441 293.354 268.169 295.462 269.94C297.568 271.711 298.622 273.187 298.622 274.367C298.622 275.126 298.073 276.138 296.979 277.403L287.245 287.776C286.57 288.452 285.855 288.788 285.097 288.788C284.506 288.788 283.978 288.62 283.516 288.282C283.052 287.946 282.525 287.523 281.936 287.017L281.304 286.511C279.617 285.078 277.575 283.665 275.173 282.273C272.772 280.882 270.222 280.186 267.526 280.186C264.745 280.186 262.343 280.651 260.321 281.577C258.298 282.507 257.287 284.192 257.287 286.638C257.287 289 258.466 290.812 260.826 292.077C263.184 293.342 266.682 294.734 271.318 296.252C275.784 297.77 279.914 299.331 283.706 300.932C287.498 302.535 290.763 304.455 293.503 306.688C296.24 308.924 298.369 311.58 299.886 314.658C301.403 317.737 302.161 321.469 302.161 325.853C302.161 330.492 301.214 334.688 299.318 338.44C297.421 342.193 294.83 345.397 291.543 348.054C288.257 350.71 284.379 352.778 279.914 354.252C275.446 355.727 270.643 356.466 265.503 356.466C262.217 356.466 258.972 356.043 255.77 355.201C252.566 354.359 249.469 353.22 246.479 351.785C243.486 350.352 240.684 348.666 238.073 346.725C235.46 344.787 233.143 342.677 231.12 340.4L230.868 340.274C230.783 340.106 230.698 340.001 230.615 339.958C230.53 339.916 230.445 339.853 230.362 339.768C229.434 338.756 228.971 337.914 228.971 337.238C228.971 336.564 229.434 335.763 230.362 334.834L241.359 324.335C242.201 323.746 242.918 323.449 243.508 323.449C244.182 323.449 245.067 323.955 246.163 324.967Z" fill="#191919"/>
<path d="M339.819 280.186V264.12C339.819 262.266 340.746 261.337 342.6 261.337H411.113C412.966 261.337 413.894 262.266 413.894 264.12V280.186C413.894 282.042 412.966 282.969 411.113 282.969H388.739V352.417C388.739 354.273 387.769 355.2 385.832 355.2H367.629C365.774 355.2 364.848 354.273 364.848 352.417V282.969H342.6C340.746 282.969 339.819 282.042 339.819 280.186Z" fill="#191919"/>
<path d="M466.199 352.417V264.12C466.199 262.266 467.126 261.337 468.98 261.337H531.805C533.658 261.337 534.586 262.266 534.586 264.12V280.312C534.586 282.168 533.658 283.095 531.805 283.095H490.596V298.655H521.945C523.968 298.655 524.979 299.625 524.979 301.564V314.593C524.979 316.45 523.968 317.377 521.945 317.377H490.596V333.569H533.069C534.921 333.569 535.85 334.498 535.85 336.352V352.417C535.85 354.273 534.921 355.2 533.069 355.2H468.98C467.126 355.2 466.199 354.273 466.199 352.417Z" fill="#191919"/>
<path d="M633.712 352.291L619.049 301.564L613.74 352.417C613.654 354.273 612.728 355.2 610.959 355.2H593.009C591.069 355.2 590.143 354.273 590.228 352.417L599.708 264.12C599.791 262.266 600.72 261.337 602.489 261.337H624.61C625.537 261.337 626.147 261.57 626.443 262.033C626.738 262.497 627.054 263.193 627.392 264.12L644.583 320.919L661.774 264.12C662.11 263.193 662.426 262.497 662.723 262.033C663.017 261.57 663.627 261.337 664.556 261.337H686.677C688.446 261.337 689.373 262.266 689.458 264.12L698.938 352.417C699.021 354.273 698.095 355.2 696.157 355.2H678.207C676.438 355.2 675.509 354.273 675.426 352.417L670.244 302.829L655.454 352.291C655.116 353.473 654.759 354.251 654.38 354.631C654 355.011 653.347 355.2 652.42 355.2H636.746C635.817 355.2 635.144 355.011 634.723 354.631C634.301 354.251 633.965 353.473 633.712 352.291Z" fill="#191919"/>
<path d="M754.546 324.967C755.305 325.558 756.231 326.339 757.327 327.308C758.421 328.278 759.686 329.268 761.119 330.28C763.225 331.715 765.354 332.832 767.503 333.632C769.652 334.435 771.864 334.834 774.139 334.834C778.52 334.834 781.491 333.949 783.051 332.178C784.61 330.407 785.39 328.341 785.39 325.979C785.39 324.631 784.884 323.449 783.873 322.437C782.861 321.425 781.661 320.52 780.27 319.718C778.88 318.917 777.404 318.243 775.846 317.694C774.286 317.146 772.917 316.662 771.738 316.239C761.54 312.697 753.934 308.522 748.921 303.715C743.906 298.908 741.4 292.795 741.4 285.373C741.4 281.41 742.2 277.826 743.801 274.62C745.402 271.416 747.657 268.675 750.564 266.397C753.472 264.12 756.989 262.371 761.119 261.148C765.247 259.926 769.842 259.313 774.898 259.313C778.69 259.313 782.376 259.737 785.959 260.579C789.54 261.423 793.016 262.814 796.387 264.753C799.251 266.441 801.738 268.169 803.845 269.94C805.951 271.711 807.005 273.187 807.005 274.367C807.005 275.126 806.456 276.138 805.362 277.403L795.629 287.776C794.953 288.452 794.238 288.788 793.48 288.788C792.889 288.788 792.362 288.62 791.9 288.282C791.436 287.946 790.908 287.523 790.32 287.017L789.688 286.511C788.001 285.078 785.959 283.665 783.557 282.273C781.155 280.882 778.605 280.186 775.909 280.186C773.128 280.186 770.726 280.651 768.704 281.577C766.681 282.507 765.67 284.192 765.67 286.638C765.67 289 766.849 290.812 769.21 292.077C771.568 293.342 775.066 294.734 779.701 296.252C784.167 297.77 788.297 299.331 792.089 300.932C795.882 302.535 799.146 304.455 801.886 306.688C804.624 308.924 806.753 311.58 808.27 314.658C809.786 317.737 810.545 321.469 810.545 325.853C810.545 330.492 809.597 334.688 807.701 338.44C805.805 342.193 803.213 345.397 799.927 348.054C796.64 350.71 792.763 352.778 788.297 354.252C783.829 355.727 779.026 356.466 773.887 356.466C770.6 356.466 767.355 356.043 764.153 355.201C760.949 354.359 757.853 353.22 754.862 351.785C751.87 350.352 749.067 348.666 746.456 346.725C743.843 344.787 741.526 342.677 739.503 340.4L739.251 340.274C739.166 340.106 739.081 340.001 738.998 339.958C738.913 339.916 738.828 339.853 738.745 339.768C737.817 338.756 737.354 337.914 737.354 337.238C737.354 336.564 737.817 335.763 738.745 334.834L749.743 324.335C750.584 323.746 751.301 323.449 751.891 323.449C752.565 323.449 753.45 323.955 754.546 324.967Z" fill="#191919"/>
<path d="M573.621 166.803C564.25 156.234 526.557 113.573 507.467 91.9644C506.182 90.5101 506.184 88.3299 507.469 86.8755C531.959 59.1514 562.683 24.3772 573.621 12.0407C574.426 11.1333 575.26 10.2088 575.848 9.16182C576.96 7.18347 576.216 5.56381 574.015 4.97919C573.309 4.79169 572.545 4.76171 571.807 4.7607C562.13 4.74717 552.452 4.78216 542.775 4.73257C540.009 4.71841 537.898 5.69466 536.059 7.80719C525.137 20.3487 486.714 64.1601 469.767 83.4849C469.131 84.2108 467.939 83.756 467.939 82.7901L467.938 10.3955C467.937 5.49318 466.142 4.41307 460.282 4.83878C454.496 5.25912 448.682 5.32514 442.9 4.86406C436.665 4.36693 434.718 5.42585 434.717 10.467C434.71 63.0215 434.71 115.576 434.718 168.131C434.719 173.002 436.802 174.226 442.797 173.716C448.161 173.259 453.55 173.217 458.915 173.668C465.943 174.259 467.938 173.347 467.94 167.829L467.939 95.9263C467.939 94.9601 469.132 94.5054 469.768 95.2322C486.715 114.588 525.137 158.495 536.059 171.036C537.898 173.149 540.009 174.125 542.775 174.111C552.452 174.061 562.13 174.096 571.807 174.083C572.545 174.082 573.309 174.052 574.015 173.864C576.216 173.28 576.96 171.66 575.848 169.682C575.26 168.635 574.426 167.71 573.621 166.803Z" fill="#191919"/>
<path d="M719.414 177.469C755.882 177.469 790.589 161.348 812.669 125.431C813.819 123.561 813.462 121.152 811.581 120.022L805.373 116.295C803.531 115.189 803.015 112.765 804.226 110.99C807.395 106.347 810.178 100.584 812.667 95.499C813.518 93.76 815.558 92.9653 817.36 93.6703L825.247 96.7557C827.093 97.4781 829.172 96.6236 829.999 94.8208C833.494 87.208 836.641 79.0483 839.402 70.34C840.032 68.3526 838.936 66.2293 836.942 65.6225L828.116 62.9359C826.192 62.3502 824.182 63.4279 823.542 65.3355C822.814 67.5014 821.982 69.585 821.052 71.5918C820.181 73.4715 817.967 74.3057 816.089 73.434L808.366 70.3174C806.412 69.4107 804.098 70.3506 803.327 72.3629C786.999 114.973 763.607 140.211 733.035 144.768L719.414 177.469Z" fill="url(#paint0_linear_264_3475)"/>
<path d="M815.015 88.5265C814.245 90.6776 815.348 93.0478 817.488 93.8434L825.274 96.7377C827.12 97.46 829.198 96.6056 830.026 94.8028C833.52 87.1897 836.667 79.0296 839.429 70.321C840.059 68.334 838.961 66.2111 836.969 65.6044L828.143 62.9178C826.255 62.3431 824.225 63.3523 823.599 65.225C822.864 67.424 822.021 69.5384 821.079 71.5737L815.015 88.5265Z" fill="#42C2FF"/>
</g>
<defs>
<linearGradient id="paint0_linear_264_3475" x1="741.16" y1="190.033" x2="819.072" y2="55.1852" gradientUnits="userSpaceOnUse">
<stop offset="0.292"/>
<stop offset="1" stop-color="#00ACE7"/>
</linearGradient>
<clipPath id="clip0_264_3475">
<rect width="845" height="358" fill="white"/>
</clipPath>
</defs>
</svg>
