<svg width="109" height="108" viewBox="0 0 109 108" fill="none" xmlns="http://www.w3.org/2000/svg">
<circle cx="54.0718" cy="54" r="54" fill="#42C2FF"/>
<path d="M24.25 54C24.25 37.5964 37.5964 24.25 54 24.25C70.4036 24.25 83.75 37.5964 83.75 54C83.75 70.4036 70.4036 83.75 54 83.75C37.5964 83.75 24.25 70.4036 24.25 54ZM27.5 54C27.5 68.6126 39.3874 80.5 54 80.5C68.6126 80.5 80.5 68.6126 80.5 54C80.5 39.3874 68.6126 27.5 54 27.5C39.3874 27.5 27.5 39.3874 27.5 54Z" fill="white" stroke="#42C2FF" stroke-width="0.5"/>
<path d="M55.625 53.2236V53.3272L55.6982 53.4004L66.2221 63.9243L63.9243 66.2221L52.375 54.6728V35.5H55.625V53.2236Z" fill="white" stroke="#42C2FF" stroke-width="0.5"/>
</svg>
