<svg width="108" height="108" viewBox="0 0 108 108" fill="none" xmlns="http://www.w3.org/2000/svg">
<circle cx="54" cy="54" r="54" fill="#42C2FF"/>
<path d="M83.6007 49.233L69.6239 38.2512C69.3244 38.0515 68.8252 37.9517 68.5257 38.1515C68.1264 38.3512 67.9267 38.6507 67.9267 39.05V45.04C65.0315 45.3395 62.0365 46.9368 58.9417 49.832V40.0483H64.9317C65.331 40.0483 65.7304 39.8485 65.93 39.4493C66.1296 39.05 66.0298 38.6505 65.8302 38.351L54.8486 24.3744C54.4493 23.8752 53.6506 23.8752 53.2513 24.3744L42.2696 38.351C42.0699 38.6505 41.9701 39.0498 42.1698 39.4493C42.3695 39.8487 42.669 40.0483 43.0683 40.0483H49.0583V49.9318C45.9635 47.0366 42.9685 45.4393 40.0733 45.1398V39.05C40.0733 38.6507 39.7738 38.3512 39.4743 38.1515C39.075 37.9517 38.6755 38.0517 38.376 38.2512L24.3993 49.233C24.0998 49.4326 24 49.7321 24 50.0316C24 50.3311 24.0998 50.6306 24.2995 50.8303L38.2763 61.812C38.5758 62.0117 39.075 62.1115 39.3745 61.9118C39.7738 61.7121 39.9735 61.4126 39.9735 61.0133V55.1231C44.8653 55.9218 48.9585 62.6106 48.9585 68.0016V82.9767C48.9585 83.5757 49.3578 83.975 49.9568 83.975H57.9435C58.5425 83.975 58.9418 83.5757 58.9418 82.9767V68.0016C58.9418 62.6106 63.035 55.9218 67.9269 55.1231V61.0133C67.9269 61.4126 68.1266 61.7121 68.5259 61.9118C68.9252 62.1115 69.3246 62.0116 69.6241 61.812L83.6007 50.8303C83.9002 50.6306 84 50.3311 84 50.0316C84 49.7321 83.8004 49.4326 83.6007 49.233ZM69.9235 58.9168V54.025C69.9235 53.426 69.5242 53.0267 68.9252 53.0267C62.4359 53.0267 56.9451 61.213 56.9451 68.0018V81.9784H50.9551V68.0016C50.9551 61.2129 45.4643 53.0266 38.9751 53.0266C38.376 53.0266 37.9768 53.4259 37.9768 54.0249V58.9167L26.5957 50.0315L37.9768 41.1462V46.038C37.9768 46.637 38.376 47.0363 38.9751 47.0363C42.1698 47.0363 45.4643 48.9331 49.2579 52.9266C49.5574 53.2261 49.9567 53.3259 50.3561 53.1263C50.7554 53.0265 50.9551 52.6271 50.9551 52.2278V39.0497C50.9551 38.4507 50.5558 38.0514 49.9568 38.0514H45.065L53.9501 26.6705L62.8353 38.0515H57.9435C57.3445 38.0515 56.9452 38.4508 56.9452 39.0498V52.2279C56.9452 52.7271 57.1449 53.0266 57.5442 53.1264C57.9435 53.3261 58.3429 53.2262 58.6424 52.9267C62.4362 48.9334 65.7307 47.0365 68.9253 47.0365C69.5243 47.0365 69.9236 46.6372 69.9236 46.0382V41.1463L81.3046 50.0316L69.9235 58.9168Z" fill="white"/>
</svg>
