<svg width="108" height="108" viewBox="0 0 108 108" fill="none" xmlns="http://www.w3.org/2000/svg">
<circle cx="54" cy="54" r="54" fill="#42C2FF"/>
<path d="M63.0722 35.6167C63.0722 30.6333 59.0472 26.5444 54 26.5444C48.9527 26.5444 44.9277 30.5694 44.9277 35.6167C44.9277 40.6 48.9527 44.6889 54 44.6889C58.9833 44.6889 63.0722 40.6 63.0722 35.6167ZM54 42.4528C50.2305 42.4528 47.1638 39.3861 47.1638 35.6167C47.1638 31.8472 50.2305 28.7805 54 28.7805C57.7694 28.7805 60.8361 31.8472 60.8361 35.6167C60.8361 39.3861 57.7694 42.4528 54 42.4528Z" fill="white"/>
<path d="M82.1111 74.0778L76.8722 48.9055C76.1055 45.2 72.8472 42.5167 69.0139 42.5167H66.3305C67.5444 40.4083 68.1833 38.0444 68.1194 35.6167C68.1194 27.8222 61.7944 21.4333 53.9361 21.4333C46.0778 21.4333 39.7527 27.7583 39.7527 35.6167C39.7527 38.0444 40.3916 40.4083 41.5416 42.5167H38.8583C35.0889 42.5167 31.7666 45.2 31 48.9055L25.8889 74.0778C24.9944 78.4222 27.7416 82.6389 32.0861 83.5333C32.5972 83.6611 33.1722 83.725 33.7472 83.725H74.2528C78.6611 83.725 82.3028 80.1472 82.3028 75.675C82.3028 75.1639 82.2389 74.6528 82.1111 74.0778ZM78.725 79.3805C77.6389 80.7222 75.9778 81.4889 74.2528 81.4889H33.7472C30.5527 81.4889 27.9333 78.8694 27.9333 75.675C27.9333 75.2917 27.9972 74.9083 28.0611 74.525L33.3 49.4167C33.875 46.7333 36.2389 44.8167 38.9861 44.8167H43.7777C44.4166 44.8167 44.8639 44.3055 44.8639 43.6667C44.8639 43.4111 44.8 43.1555 44.6083 42.9639C42.9472 40.8555 42.0527 38.3 42.0527 35.6167C42.0527 29.0361 47.4194 23.6694 54 23.6694C60.5805 23.6694 65.9472 29.0361 65.9472 35.6167C65.9472 38.3 65.0527 40.8555 63.3916 42.9639C63.0083 43.475 63.0722 44.1778 63.5833 44.5611C63.775 44.6889 64.0305 44.8167 64.2861 44.8167H69.0778C71.825 44.8167 74.1889 46.7333 74.7639 49.4167L80.0028 74.5889C80.3222 76.25 79.875 78.0389 78.725 79.3805Z" fill="white"/>
<path d="M52.3388 58.1055C52.7221 57.6583 52.7221 56.9555 52.2749 56.5083C51.8277 56.0611 51.1249 56.125 50.6777 56.5722L45.9499 61.875C45.7583 62.1305 45.4388 62.2583 45.1194 62.2583H43.3944V57.3389C43.3944 56.7 42.8832 56.1889 42.2444 56.1889C41.6055 56.1889 41.0944 56.7 41.0944 57.3389V69.4139C41.0944 70.0528 41.6055 70.5639 42.2444 70.5639C42.8832 70.5639 43.3944 70.0528 43.3944 69.4139V64.4944H45.1194C45.4388 64.4944 45.7583 64.6222 45.9499 64.8778L50.6777 70.1805C50.8694 70.4361 51.1888 70.5639 51.5083 70.5639C51.7638 70.5639 52.0194 70.5 52.2749 70.3083C52.7221 69.925 52.786 69.1583 52.3388 68.7111L47.611 63.4083L52.3388 58.1055Z" fill="white"/>
<path d="M63.5193 62.3222H61.411C60.7721 62.3222 60.261 62.8333 60.261 63.4722C60.261 64.1111 60.7721 64.6222 61.411 64.6222H63.5193C64.1582 64.6222 64.6693 65.1333 64.6693 65.7722V67.3055C64.6693 67.9444 64.1582 68.4555 63.5193 68.4555H58.7277C58.0888 68.4555 57.5777 67.9444 57.5777 67.3055V59.6389C57.5777 59 58.0888 58.4889 58.7277 58.4889H65.7554C66.3943 58.4889 66.9054 57.9778 66.9054 57.3389C66.9054 56.7 66.3943 56.1889 65.7554 56.1889H58.7277C56.8749 56.1889 55.3416 57.7222 55.3416 59.575V67.1778C55.3416 69.0305 56.8749 70.5639 58.7277 70.5639H63.5193C65.3721 70.5639 66.9054 69.0305 66.9054 67.1778V65.6444C66.9054 63.7917 65.3721 62.3222 63.5193 62.3222Z" fill="white"/>
</svg>
