<svg width="108" height="108" viewBox="0 0 108 108" fill="none" xmlns="http://www.w3.org/2000/svg">
<circle cx="54" cy="54" r="54" fill="#42C2FF"/>
<path d="M58.9999 83.3358C56.2497 83.3358 53.9998 81.0859 53.9998 78.3361V67.8986L47.0468 60.9608C45.8905 59.8049 45.2496 58.2577 45.2496 56.617C45.2496 54.992 45.9061 53.4141 47.0468 52.2578L55.9686 43.3359H51.4217L47.7028 47.0548C46.8747 47.8829 45.7811 48.3361 44.6092 48.3361C42.2028 48.3361 40.2344 46.3672 40.2344 43.9608C40.2344 42.7889 40.6871 41.6953 41.5152 40.8672L46.5154 35.8671C47.3434 35.039 48.4375 34.5858 49.6094 34.5858H63.6874C64.9998 34.5858 66.2967 35.1172 67.2186 36.0547L71.2653 40.1014C72.2028 41.0389 72.7342 42.3202 72.7342 43.633V52.0861H78.3592C80.7652 52.0861 82.7341 54.0545 82.7341 56.4609C82.7341 58.8674 80.7652 60.8358 78.3592 60.8358H68.9842C66.234 60.8358 63.9841 58.5859 63.9841 55.8361V52.6015L58.4218 58.1798L62.5311 62.2892C63.4686 63.2267 63.9996 64.4924 63.9996 65.8204V78.3205C63.9996 81.0859 61.7497 83.3358 58.9999 83.3358ZM50.4059 40.8361H62.0152L48.8124 54.0389C48.1248 54.7265 47.7499 55.664 47.7499 56.6326C47.7499 57.5861 48.1404 58.5236 48.8124 59.2107L56.4841 66.8828V78.3361C56.4841 79.7108 57.6093 80.8359 58.9844 80.8359C60.359 80.8359 61.4842 79.7108 61.4842 78.3361V65.8359C61.4842 65.1639 61.2187 64.5391 60.75 64.0703L54.8906 58.1798L66.4999 46.5705V55.8361C66.4999 57.2108 67.6247 58.3359 68.9998 58.3359H78.3748C79.4061 58.3359 80.2498 57.4923 80.2498 56.4609C80.2498 55.4296 79.4061 54.5859 78.3748 54.5859H70.2499V43.633C70.2499 42.9766 69.984 42.3357 69.5152 41.867L65.4686 37.8203C64.9998 37.3516 64.359 37.0861 63.703 37.0861H49.6249C49.1246 37.0861 48.6559 37.2889 48.2965 37.6327L43.2968 42.6328C42.9375 42.9922 42.7498 43.4609 42.7498 43.9608C42.7498 44.9921 43.5934 45.8358 44.6248 45.8358C45.1247 45.8358 45.5934 45.633 45.9528 45.2892L50.4059 40.8361Z" fill="white"/>
<path d="M40.2502 73.3359C38.9217 73.3359 37.6565 72.8205 36.719 71.867L29.219 64.367C28.2815 63.4295 27.75 62.1642 27.75 60.8358C27.75 58.086 29.9999 55.8361 32.7502 55.8361C34.0781 55.8361 35.3438 56.3515 36.2813 57.3046L40.2502 61.2734L42.5939 58.9297L44.3595 60.6953L40.2502 64.8046L34.5157 59.0702C34.047 58.6014 33.4217 58.3359 32.7502 58.3359C31.375 58.3359 30.2498 59.4611 30.2498 60.8358C30.2498 61.5078 30.5158 62.1326 30.9846 62.6014L38.4846 70.1014C39.4376 71.0549 41.0782 71.0549 42.0157 70.1014L47.6407 64.4764L49.4063 66.242L43.7813 71.867C42.8438 72.8205 41.5781 73.3359 40.2502 73.3359Z" fill="white"/>
<path d="M76.5 39.5859C72.3595 39.5859 69 36.2264 69 32.0859C69 27.9455 72.3595 24.5859 76.5 24.5859C80.6405 24.5859 84 27.9455 84 32.0859C84 36.2264 80.6405 39.5859 76.5 39.5859ZM76.5 27.0858C73.7502 27.0858 71.4998 29.3362 71.4998 32.0859C71.4998 34.8357 73.7502 37.0861 76.5 37.0861C79.2498 37.0861 81.5002 34.8357 81.5002 32.0859C81.5002 29.3362 79.2498 27.0858 76.5 27.0858Z" fill="white"/>
<path d="M24 43.3359H35.25V45.8358H24V43.3359Z" fill="white"/>
<path d="M27.75 34.5858H40.2502V37.0861H27.75V34.5858Z" fill="white"/>
</svg>
