<svg width="109" height="108" viewBox="0 0 109 108" fill="none" xmlns="http://www.w3.org/2000/svg">
<circle cx="54.0718" cy="54" r="54" fill="#42C2FF"/>
<path d="M71.9167 33.0208L54.7292 15.8333C54.3125 15.4167 53.6875 15.4167 53.2708 15.8333L36.0833 33.0208C35.7708 33.3333 35.6667 33.75 35.875 34.1667C35.9792 34.4792 36.3958 34.7917 36.8125 34.7917H46.2917V47C46.2917 47.2054 46.3007 47.1678 46.3349 47.0248C46.4049 46.7325 46.5804 46 47 46C47.3125 46 49.0312 45.5 50.75 45C52.4688 44.5 54.1875 44 54.5 44C54.7681 44 56.1133 44.759 57.5622 45.5765C59.4913 46.6648 61.6042 47.8569 61.6042 47.5V34.7917H71.0833C71.5 34.7917 71.9167 34.5833 72.0208 34.1667C72.3333 33.75 72.2292 33.3333 71.9167 33.0208Z" fill="white"/>
<path d="M71.9167 33.0208L54.7292 15.8333C54.3125 15.4167 53.6875 15.4167 53.2708 15.8333L36.0833 33.0208C35.7708 33.3333 35.6667 33.75 35.875 34.1667C35.9792 34.4792 36.3958 34.7917 36.8125 34.7917H46.2917V47C46.2917 47.2054 46.3007 47.1678 46.3349 47.0248C46.4049 46.7325 46.5804 46 47 46C47.3125 46 49.0312 45.5 50.75 45C52.4688 44.5 54.1875 44 54.5 44C54.7681 44 56.1133 44.759 57.5622 45.5765C59.4913 46.6648 61.6042 47.8569 61.6042 47.5V34.7917H71.0833C71.5 34.7917 71.9167 34.5833 72.0208 34.1667C72.3333 33.75 72.2292 33.3333 71.9167 33.0208Z" stroke="#42C2FF"/>
<mask id="path-3-inside-1_493_3956" fill="white">
<path fill-rule="evenodd" clip-rule="evenodd" d="M54.0011 93L54.001 93C53.6273 93 53.2775 92.8974 52.9782 92.7188L32.2161 80.732C31.5971 80.375 31.2161 79.714 31.2161 79V55.0519C31.2064 54.6953 31.2919 54.3317 31.4829 54C31.6798 53.6592 31.9612 53.3981 32.2852 53.2281L53.0011 41.268C53.6201 40.911 54.3821 40.911 55.0011 41.268L75.743 53.2443C75.9886 53.3784 76.2086 53.5653 76.3841 53.8C76.4776 53.9247 76.5562 54.0599 76.6183 54.2028C76.7342 54.4687 76.7878 54.7491 76.7841 55.0258V79C76.7841 79.714 76.4031 80.375 75.7841 80.732L55.0178 92.7223C54.738 92.8879 54.4145 92.9873 54.0689 92.9988C54.054 92.9993 54.039 92.9997 54.0241 92.9998L54.0011 93ZM70.784 55.0002L54.0004 64.6909L37.2158 55.0005L54.0011 45.31L70.784 55.0002ZM72.7841 58.4641V77.845L56.001 87.5353V68.1546L72.7841 58.4641ZM35.2161 77.845V58.4631L52.001 68.1537V87.5353L35.2161 77.845Z"/>
</mask>
<path fill-rule="evenodd" clip-rule="evenodd" d="M54.0011 93L54.001 93C53.6273 93 53.2775 92.8974 52.9782 92.7188L32.2161 80.732C31.5971 80.375 31.2161 79.714 31.2161 79V55.0519C31.2064 54.6953 31.2919 54.3317 31.4829 54C31.6798 53.6592 31.9612 53.3981 32.2852 53.2281L53.0011 41.268C53.6201 40.911 54.3821 40.911 55.0011 41.268L75.743 53.2443C75.9886 53.3784 76.2086 53.5653 76.3841 53.8C76.4776 53.9247 76.5562 54.0599 76.6183 54.2028C76.7342 54.4687 76.7878 54.7491 76.7841 55.0258V79C76.7841 79.714 76.4031 80.375 75.7841 80.732L55.0178 92.7223C54.738 92.8879 54.4145 92.9873 54.0689 92.9988C54.054 92.9993 54.039 92.9997 54.0241 92.9998L54.0011 93ZM70.784 55.0002L54.0004 64.6909L37.2158 55.0005L54.0011 45.31L70.784 55.0002ZM72.7841 58.4641V77.845L56.001 87.5353V68.1546L72.7841 58.4641ZM35.2161 77.845V58.4631L52.001 68.1537V87.5353L35.2161 77.845Z" fill="white"/>
<path d="M54.001 93V94H54.1062L54.2091 93.9781L54.001 93ZM54.0011 93L53.9953 92L53.893 92.0006L53.793 92.0219L54.0011 93ZM52.9782 92.7188L53.4906 91.86L53.4844 91.8563L53.4782 91.8527L52.9782 92.7188ZM32.2161 80.732L32.7161 79.8659L32.7157 79.8657L32.2161 80.732ZM31.2161 55.0519H32.2161V55.0384L32.2157 55.0248L31.2161 55.0519ZM31.4829 54L30.6171 53.4997L30.6163 53.501L31.4829 54ZM32.2852 53.2281L32.7498 54.1136L32.7677 54.1042L32.7852 54.0941L32.2852 53.2281ZM53.0011 41.268L52.5015 40.4017L52.5011 40.402L53.0011 41.268ZM55.0011 41.268L55.5011 40.402L55.5007 40.4017L55.0011 41.268ZM75.743 53.2443L75.243 54.1103L75.2533 54.1163L75.2638 54.122L75.743 53.2443ZM76.3841 53.8L75.5834 54.399L75.584 54.3998L76.3841 53.8ZM76.6183 54.2028L75.7012 54.6014L75.7016 54.6023L76.6183 54.2028ZM76.7841 55.0258L75.7841 55.0122V55.0258H76.7841ZM75.7841 80.732L75.2845 79.8657L75.284 79.866L75.7841 80.732ZM55.0178 92.7223L54.5177 91.8563L54.5084 91.8618L55.0178 92.7223ZM54.0689 92.9988L54.0355 91.9994L54.0352 91.9994L54.0689 92.9988ZM54.0241 92.9998L54.0299 93.9998L54.0353 93.9998L54.0241 92.9998ZM54.0004 64.6909L53.5004 65.557L54.0004 65.8457L54.5004 65.557L54.0004 64.6909ZM70.784 55.0002L71.284 55.8662L72.7839 55.0002L71.284 54.1342L70.784 55.0002ZM37.2158 55.0005L36.7158 54.1345L35.2157 55.0005L36.7158 55.8665L37.2158 55.0005ZM54.0011 45.31L54.5011 44.444L54.0011 44.1553L53.5011 44.444L54.0011 45.31ZM72.7841 58.4641H73.7841V56.732L72.284 57.5981L72.7841 58.4641ZM72.7841 77.845L73.2841 78.711L73.7841 78.4223V77.845H72.7841ZM56.001 87.5353H55.001V89.2674L56.501 88.4013L56.001 87.5353ZM56.001 68.1546L55.5009 67.2886L55.001 67.5773V68.1546H56.001ZM35.2161 58.4631L35.7161 57.5971L34.2161 56.7311V58.4631H35.2161ZM35.2161 77.845H34.2161V78.4223L34.7161 78.711L35.2161 77.845ZM52.001 68.1537H53.001V67.5763L52.501 67.2877L52.001 68.1537ZM52.001 87.5353L51.501 88.4013L53.001 89.2673V87.5353H52.001ZM54.2091 93.9781L54.2092 93.9781L53.793 92.0219L53.7929 92.0219L54.2091 93.9781ZM52.4658 93.5775C52.9156 93.8459 53.4418 94 54.001 94V92C53.8128 92 53.6394 91.9488 53.4906 91.86L52.4658 93.5775ZM31.7161 81.598L52.4782 93.5848L53.4782 91.8527L32.7161 79.8659L31.7161 81.598ZM30.2161 79C30.2161 80.0708 30.7873 81.0623 31.7165 81.5982L32.7157 79.8657C32.4068 79.6876 32.2161 79.3572 32.2161 79H30.2161ZM30.2161 55.0519V79H32.2161V55.0519H30.2161ZM30.6163 53.501C30.3308 53.9969 30.2019 54.5433 30.2164 55.0789L32.2157 55.0248C32.2109 54.8473 32.2531 54.6665 32.3495 54.499L30.6163 53.501ZM31.8206 52.3425C31.3334 52.5982 30.911 52.991 30.6171 53.4997L32.3487 54.5003C32.4486 54.3275 32.5889 54.198 32.7498 54.1136L31.8206 52.3425ZM52.5011 40.402L31.7852 52.362L32.7852 54.0941L53.5011 42.134L52.5011 40.402ZM55.5007 40.4017C54.5725 39.8664 53.4297 39.8664 52.5015 40.4017L53.5007 42.1342C53.8105 41.9556 54.1917 41.9556 54.5015 42.1342L55.5007 40.4017ZM76.2431 52.3783L55.5011 40.402L54.501 42.134L75.243 54.1103L76.2431 52.3783ZM75.2638 54.122C75.3864 54.1889 75.4958 54.2819 75.5834 54.399L77.1849 53.201C76.9214 52.8487 76.5908 52.5678 76.2222 52.3666L75.2638 54.122ZM77.5354 53.8041C77.4423 53.5899 77.3245 53.3872 77.1843 53.2002L75.584 54.3998C75.6307 54.4622 75.6701 54.5299 75.7012 54.6014L77.5354 53.8041ZM75.7016 54.6023C75.7594 54.7349 75.786 54.8742 75.7842 55.0122L77.784 55.0394C77.7896 54.624 77.709 54.2024 77.535 53.8033L75.7016 54.6023ZM77.7841 79V55.0258H75.7841V79H77.7841ZM76.2837 81.5982C77.2129 81.0623 77.7841 80.0708 77.7841 79H75.7841C75.7841 79.3572 75.5933 79.6876 75.2845 79.8657L76.2837 81.5982ZM55.5178 93.5883L76.2841 81.598L75.284 79.866L54.5177 91.8563L55.5178 93.5883ZM54.1023 93.9983C54.6203 93.981 55.1069 93.8317 55.5272 93.5829L54.5084 91.8618C54.3692 91.9442 54.2088 91.9936 54.0355 91.9994L54.1023 93.9983ZM54.0353 93.9998C54.0577 93.9995 54.0802 93.999 54.1026 93.9983L54.0352 91.9994C54.0278 91.9996 54.0203 91.9998 54.0128 91.9999L54.0353 93.9998ZM54.0069 94L54.0299 93.9998L54.0182 91.9999L53.9953 92L54.0069 94ZM54.5004 65.557L71.284 55.8662L70.284 54.1342L53.5004 63.8249L54.5004 65.557ZM54.5004 63.8249L37.7158 54.1345L36.7158 55.8665L53.5004 65.557L54.5004 63.8249ZM37.7158 55.8666L54.501 46.176L53.5011 44.444L36.7158 54.1345L37.7158 55.8666ZM53.501 46.176L70.284 55.8662L71.284 54.1342L54.5011 44.444L53.501 46.176ZM71.7841 58.4641V77.845H73.7841V58.4641H71.7841ZM72.284 76.979L55.501 86.6692L56.501 88.4013L73.2841 78.711L72.284 76.979ZM57.001 87.5353V68.1546H55.001V87.5353H57.001ZM72.284 57.5981L55.5009 67.2886L56.501 69.0206L73.2841 59.3301L72.284 57.5981ZM34.2161 58.4631V77.845H36.2161V58.4631H34.2161ZM52.501 67.2877L35.7161 57.5971L34.7161 59.3291L51.501 69.0197L52.501 67.2877ZM53.001 87.5353V68.1537H51.001V87.5353H53.001ZM34.7161 78.711L51.501 88.4013L52.501 86.6692L35.716 76.9789L34.7161 78.711Z" fill="#42C2FF" mask="url(#path-3-inside-1_493_3956)"/>
</svg>
