<svg width="108" height="108" viewBox="0 0 108 108" fill="none" xmlns="http://www.w3.org/2000/svg">
<circle cx="54" cy="54" r="54" fill="#42C2FF"/>
<path d="M56.7067 83H51.2933C49.4639 83 47.9197 81.6298 47.7022 79.81L47.1246 75.2763C45.9718 74.9018 44.8602 74.4402 43.8041 73.9013L40.1936 76.707C38.7291 77.8404 36.6677 77.7099 35.3965 76.4025L31.5903 72.5963C30.2925 71.3372 30.162 69.2757 31.2954 67.8137L34.1012 64.2008C33.5598 63.1447 33.0983 62.033 32.7261 60.8803L28.1828 60.3027C26.3703 60.0803 25 58.5361 25 56.7067V51.2933C25 49.4639 26.3703 47.9197 28.19 47.7022L32.7237 47.1246C33.0983 45.9718 33.5598 44.8602 34.0988 43.8041L31.2954 40.1936C30.1596 38.7291 30.2925 36.6653 31.6023 35.3941L35.4086 31.5878C36.6677 30.2901 38.7315 30.162 40.1912 31.293L43.8017 34.1012C44.8578 33.5623 45.9694 33.1007 47.1246 32.7261L47.7022 28.1828C47.9197 26.3703 49.4639 25 51.2933 25H56.7067C58.5361 25 60.0803 26.3703 60.2978 28.19L60.8754 32.7237C62.0306 33.0983 63.1423 33.5598 64.1983 34.0988L67.8088 31.293C69.2758 30.1596 71.3348 30.2901 72.6059 31.5999L76.4122 35.4062C77.7099 36.6653 77.8404 38.7267 76.707 40.1888L73.9013 43.8017C74.4426 44.8578 74.9042 45.9694 75.2763 47.1222L79.8197 47.6997C81.6298 47.9197 83 49.4639 83 51.2933V56.7067C83 58.5361 81.6298 60.0803 79.81 60.2978L75.2763 60.8754C74.9018 62.0282 74.4402 63.1398 73.9013 64.1959L76.707 67.8064C77.8428 69.2709 77.7099 71.3323 76.4001 72.6035L72.5938 76.4098C71.3348 77.7075 69.2709 77.8404 67.8113 76.7046L64.1983 73.8988C63.1423 74.4402 62.0306 74.9017 60.8778 75.2739L60.3003 79.8173C60.0803 81.6298 58.5361 83 56.7067 83ZM43.6808 71.255C43.8814 71.255 44.0868 71.3057 44.2705 71.4072C45.6021 72.1516 47.0448 72.7509 48.5577 73.1859C49.0217 73.3188 49.3624 73.7152 49.4228 74.1937L50.0995 79.5103C50.172 80.1169 50.6964 80.5833 51.2933 80.5833H56.7067C57.3036 80.5833 57.828 80.1169 57.8981 79.5224L58.5772 74.1961C58.6376 73.7176 58.9783 73.3213 59.4423 73.1883C60.9552 72.7533 62.3979 72.154 63.7295 71.4097C64.1524 71.1728 64.6793 71.2139 65.0587 71.5112L69.2878 74.7978C69.7736 75.1748 70.4551 75.1434 70.8708 74.7157L74.7012 70.8853C75.1386 70.4599 75.1724 69.7784 74.7954 69.2902L71.5088 65.0611C71.2115 64.6792 71.1704 64.1548 71.4072 63.7319C72.1516 62.4003 72.7509 60.9576 73.1859 59.4448C73.3188 58.9808 73.7152 58.64 74.1937 58.5796L79.5103 57.9029C80.1169 57.828 80.5833 57.3036 80.5833 56.7067V51.2933C80.5833 50.6964 80.1169 50.172 79.5224 50.1019L74.1961 49.4228C73.7176 49.3624 73.3213 49.0217 73.1883 48.5577C72.7533 47.0448 72.154 45.6021 71.4097 44.2705C71.1728 43.8476 71.2115 43.3232 71.5112 42.9413L74.7978 38.7122C75.1773 38.224 75.1434 37.5425 74.7181 37.1317L70.8877 33.3013C70.4648 32.8614 69.7808 32.8276 69.2927 33.207L65.0635 36.4937C64.6792 36.7909 64.1548 36.832 63.7319 36.5952C62.4052 35.8508 60.9624 35.2539 59.4448 34.8165C58.9808 34.6836 58.64 34.2873 58.5796 33.8088L57.9029 28.4921C57.828 27.8831 57.3036 27.4167 56.7067 27.4167H51.2933C50.6964 27.4167 50.172 27.8831 50.1019 28.4776L49.4228 33.8039C49.3624 34.2824 49.0217 34.6788 48.5577 34.8141C47.04 35.2491 45.5972 35.8484 44.2705 36.5903C43.8476 36.8296 43.3232 36.7861 42.9389 36.4913L38.7098 33.2046C38.2216 32.8252 37.5425 32.859 37.1293 33.2843L33.2988 37.1172C32.8614 37.5425 32.8276 38.224 33.2046 38.7122L36.4913 42.9413C36.7885 43.3232 36.8296 43.8476 36.5928 44.2705C35.846 45.6021 35.2491 47.0448 34.8141 48.5577C34.6812 49.0217 34.2848 49.3624 33.8063 49.4228L28.4897 50.0995C27.8831 50.172 27.4167 50.6964 27.4167 51.2933V56.7067C27.4167 57.3036 27.8831 57.828 28.4776 57.8981L33.8039 58.5772C34.2824 58.6376 34.6788 58.9783 34.8117 59.4423C35.2467 60.9552 35.846 62.3979 36.5903 63.7295C36.8272 64.1524 36.7885 64.6768 36.4888 65.0587L33.2022 69.2878C32.8228 69.776 32.8566 70.4575 33.2819 70.8683L37.1123 74.6988C37.5353 75.1362 38.2143 75.17 38.7073 74.793L42.9365 71.5063C43.1564 71.342 43.4174 71.255 43.6808 71.255Z" fill="white"/>
<path d="M53.9998 66.0833C47.3371 66.0833 41.9165 60.6627 41.9165 54C41.9165 47.3372 47.3371 41.9167 53.9998 41.9167C60.6626 41.9167 66.0832 47.3372 66.0832 54C66.0832 60.6627 60.6626 66.0833 53.9998 66.0833ZM53.9998 44.3333C48.6687 44.3333 44.3332 48.6688 44.3332 54C44.3332 59.3312 48.6687 63.6667 53.9998 63.6667C59.331 63.6667 63.6665 59.3312 63.6665 54C63.6665 48.6688 59.331 44.3333 53.9998 44.3333Z" fill="white"/>
</svg>
