<svg width="109" height="109" viewBox="0 0 109 109" fill="none" xmlns="http://www.w3.org/2000/svg">
<circle cx="54.3826" cy="54.3826" r="54.3826" fill="#42C2FF"/>
<g clip-path="url(#clip0_579_3877)">
<path d="M79.4375 83H29.5625C27.5984 83 26 81.4016 26 79.4375V46.1875C26 45.532 26.532 45 27.1875 45H81.8125C82.468 45 83 45.532 83 46.1875V79.4375C83 81.4016 81.4016 83 79.4375 83ZM28.375 47.375V79.4375C28.375 80.093 28.907 80.625 29.5625 80.625H79.4375C80.093 80.625 80.625 80.093 80.625 79.4375V47.375H28.375Z" fill="white"/>
<path d="M81.8125 47.375C81.3327 47.375 80.8791 47.0805 80.701 46.6055L73.8634 28.375H35.1366L28.299 46.6055C28.0686 47.2182 27.3846 47.5246 26.7695 47.299C26.1567 47.0686 25.8456 46.3846 26.076 45.7695L33.201 26.7695C33.3744 26.3064 33.8185 26 34.3125 26H74.6875C75.1815 26 75.6256 26.3064 75.799 26.7695L82.924 45.7695C83.1544 46.3846 82.8432 47.0686 82.2305 47.299C82.0927 47.3513 81.9526 47.375 81.8125 47.375Z" fill="white"/>
<path d="M54.5 47.375C53.8445 47.375 53.3125 46.843 53.3125 46.1875V27.1875C53.3125 26.532 53.8445 26 54.5 26C55.1555 26 55.6875 26.532 55.6875 27.1875V46.1875C55.6875 46.843 55.1555 47.375 54.5 47.375Z" fill="white"/>
<path d="M55.32 54.9637L55.3199 54.9637L52.2801 57.4482L52.2801 57.4482C52.1832 57.5274 52.1285 57.6374 52.1285 57.7536C52.1285 57.8699 52.1832 57.9798 52.2801 58.0591L52.2801 58.0591L55.3199 60.5436C55.3199 60.5436 55.3199 60.5436 55.3199 60.5436C55.4035 60.6119 55.5208 60.664 55.6332 60.6107C55.7456 60.5573 55.7794 60.4336 55.7794 60.3256V59.0065C55.7794 58.9495 55.8015 58.9094 55.8295 58.8862C55.8569 58.8634 55.8979 58.85 55.9512 58.8618L55.9513 58.8618C58.9845 59.5278 61.2618 62.2348 61.2618 65.4646C61.2617 69.1929 58.2284 72.2261 54.5002 72.2261C50.772 72.2261 47.7387 69.1929 47.7387 65.4646C47.7387 64.9403 47.3136 64.5152 46.7893 64.5152C46.265 64.5152 45.8398 64.9403 45.8398 65.4646C45.8398 70.2401 49.7247 74.125 54.5002 74.125C59.2757 74.125 63.1605 70.2401 63.1605 65.4646C63.1605 61.2012 60.0635 57.6502 56.0017 56.9371C55.8792 56.9156 55.7794 56.7983 55.7794 56.6798V55.1816C55.7794 55.0737 55.7456 54.9499 55.6331 54.8966C55.5207 54.8433 55.4035 54.8954 55.32 54.9637Z" fill="white" stroke="white" stroke-width="0.25"/>
</g>
<defs>
<clipPath id="clip0_579_3877">
<rect width="57" height="57" fill="white" transform="translate(26 26)"/>
</clipPath>
</defs>
</svg>
