<svg width="109" height="109" viewBox="0 0 109 109" fill="none" xmlns="http://www.w3.org/2000/svg">
<circle cx="54.4544" cy="54.3826" r="54.3826" fill="#42C2FF"/>
<g clip-path="url(#clip0_264_3733)">
<path d="M64.845 90.1575C64.8393 90.1436 64.8336 90.1296 64.8308 90.1157C64.8294 90.1087 64.8351 90.1004 64.8365 90.0934C65.0226 89.9443 65.247 89.9833 65.4587 89.9833C69.9222 89.9806 74.3858 89.9819 78.8493 89.9806C79.679 89.9806 79.5966 90.0432 79.598 89.2393C79.5994 84.8952 79.5994 80.551 79.5994 76.2068C79.5994 75.6216 79.5994 75.6203 78.9985 75.6203C74.4895 75.6203 69.9805 75.6202 65.4715 75.6175C65.2598 75.6175 65.0354 75.6621 64.8493 75.5116C64.9501 75.3987 65.0837 75.4586 65.2002 75.4586C69.6893 75.4545 74.1784 75.4558 78.6661 75.4558C78.9729 75.4558 79.2798 75.46 79.5866 75.4545C79.7301 75.4517 79.8011 75.5004 79.7884 75.6467C79.7841 75.7025 79.7884 75.7582 79.7884 75.8139C79.7884 80.4953 79.7884 85.1766 79.7884 89.8565C79.7884 89.9569 79.7841 90.0572 79.7813 90.1575C74.8006 90.1575 69.8228 90.1575 64.845 90.1575Z" fill="white"/>
<path d="M36.6261 18.6735C36.6218 18.6484 36.619 18.6247 36.6147 18.5996C47.4568 18.5996 58.2989 18.5996 69.1409 18.5996C69.1552 18.6191 69.1566 18.64 69.1466 18.6623C69.0472 18.7501 68.925 18.7696 68.7986 18.7738C68.6963 18.7766 68.594 18.7766 68.4917 18.7766C58.0773 18.7766 47.6642 18.7766 37.2498 18.7738C37.0395 18.7738 36.8151 18.8225 36.6261 18.6735Z" fill="white"/>
<path d="M45.073 90.0906C45.0716 90.1129 45.0716 90.1352 45.0701 90.1561C40.0923 90.1561 35.1145 90.1561 30.1367 90.1561C30.1381 90.1338 30.141 90.1101 30.1424 90.0878C30.2717 89.9694 30.4365 89.9819 30.5942 89.9819C35.2694 89.9791 39.946 89.9791 44.6212 89.9819C44.7803 89.9819 44.9423 89.9777 45.073 90.0906Z" fill="white"/>
<path d="M62.3817 90.0878C62.3845 90.1115 62.3873 90.1338 62.3916 90.1575C57.4365 90.1575 52.4814 90.1575 47.5264 90.1575C47.5292 90.1338 47.5335 90.1115 47.5363 90.0878C47.6656 89.9666 47.8304 89.9819 47.9881 89.9819C52.6363 89.9791 57.2831 89.9791 61.9313 89.9819C62.0862 89.9833 62.251 89.968 62.3817 90.0878Z" fill="white"/>
<path fill-rule="evenodd" clip-rule="evenodd" d="M36.7538 18.6715L36.626 18.6738C36.6247 18.7064 36.6231 18.7391 36.6214 18.772V18.772V18.772V18.772V18.772V18.772V18.772V18.772V18.772V18.772V18.772V18.772V18.772V18.772V18.772V18.7721V18.7721V18.7721V18.7721V18.7721V18.7721C36.6175 18.85 36.6136 18.9284 36.6146 19.0068C36.6132 20.3554 36.6132 21.7041 36.6146 23.0528C36.6146 23.1028 36.6139 23.1469 36.6133 23.1856C36.6112 23.3248 36.6101 23.3954 36.6449 23.4309C36.6808 23.4674 36.7548 23.4665 36.905 23.4647H36.9051C36.9422 23.4643 36.9839 23.4638 37.0308 23.4638H46.4054L46.4643 23.4637C46.598 23.4631 46.6638 23.4628 46.6961 23.4956C46.7273 23.5273 46.727 23.59 46.7266 23.7132L46.7265 23.7634V31.2187C46.7265 31.3413 46.7236 31.4611 46.6768 31.5795C46.1994 32.7833 46.0872 34.0191 46.3585 35.2842C46.3869 35.4166 46.3529 35.5141 46.2577 35.6144C46.0936 35.787 45.9342 35.9641 45.775 36.141L45.7749 36.1411L45.7749 36.1411L45.7748 36.1412L45.7747 36.1413L45.7747 36.1414L45.7746 36.1414L45.7745 36.1415L45.7745 36.1416L45.7744 36.1417L45.7743 36.1417C45.6856 36.2403 45.597 36.3388 45.5076 36.4365C41.1026 41.2509 36.6963 46.0653 32.2899 50.8797L32.2803 50.8901C32.0672 51.1228 31.8527 51.3485 31.6027 51.5464C29.888 52.9104 29.7204 55.4768 31.239 57.0484C32.0331 57.8704 33.0176 58.2466 34.1669 58.2466C39.5967 58.2445 45.0272 58.2447 50.4574 58.245L55.8823 58.2452L57.5678 58.245C59.2553 58.2447 60.9435 58.2445 62.6316 58.2466C62.9512 58.2466 63.2666 58.2201 63.5777 58.1546C64.467 57.9665 65.1915 57.5151 65.7654 56.8282C65.7699 56.8229 65.7743 56.8174 65.7786 56.8119C65.7866 56.8016 65.7945 56.7911 65.8023 56.7806C65.8559 56.7089 65.9092 56.6376 66.024 56.6387C66.3474 56.6408 66.6708 56.6406 66.9941 56.6403H66.9957L67.3196 56.6401C67.4034 56.6401 67.4446 56.6791 67.4432 56.7613C67.4432 56.8004 67.4435 56.8394 67.4439 56.8784L67.4442 56.9147C67.4444 56.9416 67.4446 56.9685 67.4446 56.9954V59.5702L67.4445 59.6185L67.4443 59.647C67.4434 59.7839 67.443 59.8531 67.4774 59.8879C67.5125 59.9236 67.5841 59.9233 67.7289 59.9228L67.7658 59.9226L67.8182 59.9227C68.0683 59.924 68.3183 59.9254 68.5683 59.9227C68.6791 59.9213 68.7402 59.9561 68.7331 60.0745C68.7303 60.1265 68.7312 60.1784 68.7322 60.2304V60.2306L68.7329 60.2737L68.7331 60.3086L68.7329 60.9351C68.7327 61.5622 68.7324 62.1893 68.7345 62.8165C68.7345 63.0561 68.7402 63.0603 68.9746 63.0631C69.1938 63.066 69.413 63.0655 69.6322 63.0649C69.7199 63.0647 69.8075 63.0645 69.8952 63.0645H69.8994H69.8994C70.1957 63.0645 70.3424 63.0645 70.4096 63.1375C70.4754 63.2091 70.465 63.3509 70.4444 63.6315L70.4435 63.6441C70.4336 63.7764 70.3824 63.8154 70.2574 63.8126C70.1437 63.8104 70.0298 63.8117 69.916 63.8131H69.9159H69.9159H69.9158H69.9157H69.9157H69.9156H69.9156H69.9155H69.9155H69.9154C69.7449 63.8151 69.5745 63.8171 69.405 63.8071C69.1777 63.7945 69.0456 63.8628 68.9249 64.0704C67.9915 65.688 67.0454 67.3 66.0908 68.9064C65.9714 69.107 65.9814 69.2533 66.0965 69.447C66.8107 70.6497 67.5178 71.855 68.2249 73.0602L68.7871 74.0183L68.8033 74.0458L68.8199 74.0735C68.8378 74.1033 68.8556 74.1329 68.8723 74.1632C68.9192 74.2482 68.9831 74.2649 69.0684 74.2133C69.1126 74.1862 69.1575 74.162 69.2025 74.1377L69.2349 74.1202C69.2485 74.1128 69.2621 74.1053 69.2758 74.0977C69.5196 73.9611 69.7637 73.8249 70.0077 73.6887L70.0084 73.6883L70.0093 73.6878L70.0094 73.6878L70.0094 73.6877L70.0095 73.6877L70.0096 73.6876L70.0097 73.6876L70.0098 73.6875L70.0099 73.6875L70.01 73.6874L70.0101 73.6874C70.6736 73.3171 71.3369 72.9469 71.9948 72.5693C72.1752 72.4662 72.3073 72.469 72.4863 72.5721C73.0634 72.9066 73.646 73.2334 74.2282 73.5599C74.4243 73.6699 74.6204 73.7799 74.8161 73.8901C74.8685 73.9197 74.9216 73.9482 74.9747 73.9767L74.9749 73.9768L74.9749 73.9769L74.975 73.9769L74.975 73.9769L74.975 73.9769L74.9751 73.977L74.9751 73.977L74.9751 73.977L74.9752 73.977L74.9752 73.9771L74.9752 73.9771C75.0917 74.0396 75.208 74.1021 75.3162 74.1757C75.4725 74.2816 75.5605 74.2398 75.6287 74.0851C75.6407 74.0589 75.6563 74.0344 75.672 74.0098C75.6804 73.9965 75.6889 73.9832 75.6969 73.9695C75.9609 73.5207 76.2245 73.0716 76.4881 72.6225L76.4925 72.615C77.1225 71.5415 77.7526 70.4681 78.3875 69.3982C78.4856 69.231 78.487 69.1112 78.3875 68.944C77.4173 67.3069 76.4541 65.6671 75.498 64.023C75.4085 63.8684 75.319 63.7889 75.1301 63.8057C74.9533 63.8214 74.7743 63.8161 74.596 63.8108L74.5164 63.8085C74.4127 63.8057 74.3303 63.808 74.265 63.8099C74.1497 63.8131 74.0871 63.8149 74.0529 63.7846C74.0124 63.7487 74.0118 63.6675 74.0106 63.4901V63.49C74.0102 63.4326 74.0097 63.3652 74.0078 63.286C74.0035 63.1104 74.0618 63.0533 74.2408 63.0575C74.4578 63.0625 74.6749 63.0616 74.8919 63.0607C75.0954 63.0599 75.2988 63.059 75.5023 63.0631C75.6713 63.0658 75.7637 63.0227 75.7424 62.8401C75.7365 62.7951 75.738 62.7488 75.7396 62.7025C75.7403 62.6814 75.741 62.6604 75.741 62.6395C75.741 61.8147 75.741 60.9899 75.7424 60.1651C75.7424 59.9254 75.7481 59.9226 75.9796 59.9199C76.1002 59.9186 76.2209 59.9191 76.3415 59.9196C76.4823 59.9201 76.623 59.9207 76.7638 59.9185C76.9995 59.9157 76.9996 59.9129 77.0067 59.6721L77.0067 59.6719C77.008 59.6412 77.0069 59.6105 77.0067 59.5798L77.0067 59.5715L77.0068 58.1531C77.0071 56.2639 77.0073 54.3739 77.0039 52.484C77.0024 52.2179 76.9968 51.9462 76.9527 51.6843C76.3547 48.0953 72.3045 46.7368 69.5485 48.5286C68.2529 49.3715 67.5781 50.5878 67.4489 52.1009L67.4485 52.1052C67.4276 52.3614 67.4275 52.3628 67.1562 52.3642C67.0198 52.3654 66.8834 52.3651 66.747 52.3647C66.5652 52.3643 66.3834 52.3638 66.2016 52.367C66.0567 52.3698 65.9544 52.3377 65.8564 52.2137C65.031 51.159 63.9414 50.6812 62.5804 50.6839C57.5938 50.6958 52.6064 50.6935 47.6194 50.6912C46.1521 50.6905 44.6848 50.6898 43.2176 50.6895C43.1881 50.6895 43.1581 50.6912 43.1278 50.693H43.1277H43.1277H43.1276H43.1275H43.1274H43.1274H43.1273H43.1272H43.1272C43.0381 50.698 42.9471 50.7032 42.8624 50.6658C42.8827 50.5842 42.9288 50.5375 42.9725 50.4932C42.984 50.4816 42.9953 50.4701 43.0059 50.4582C43.4033 50.0241 43.801 49.5902 44.1987 49.1564L44.2004 49.1546L44.2021 49.1527L44.2037 49.1509L44.2054 49.1491C44.6031 48.7152 45.0009 48.2814 45.3982 47.8473L46.8616 46.2471C48.5817 44.3663 50.3017 42.4855 52.0182 40.6023C52.1361 40.4727 52.2526 40.4226 52.4302 40.4337C54.1747 40.5396 55.7289 40.0408 57.0728 38.9513C59.2193 37.2111 60.0091 34.3605 59.0815 31.7844L59.0664 31.743C59.0226 31.6236 58.9792 31.5052 58.9792 31.3678C58.982 29.6757 58.9824 27.9831 58.9827 26.2902V26.2864V26.2863V26.2863V26.2862V26.2861V26.286V26.286V26.2859V26.2858V26.2857V26.2857C58.9828 25.4389 58.983 24.5921 58.9835 23.7452C58.9835 23.4666 58.9863 23.4652 59.2889 23.4638C59.5617 23.4629 59.8344 23.4632 60.1072 23.4635C60.2436 23.4637 60.3799 23.4638 60.5163 23.4638H68.834C69.1706 23.4638 69.1706 23.4624 69.1735 23.1392V23.0723C69.1735 21.7125 69.1735 20.3527 69.1721 18.9928C69.1721 18.9676 69.1731 18.9423 69.1742 18.9169V18.9168L69.1742 18.9167V18.9165V18.9164L69.1742 18.9163V18.9161L69.1742 18.916L69.1742 18.9158L69.1742 18.9157L69.1742 18.9156V18.9156C69.1778 18.8305 69.1814 18.7449 69.1465 18.6626C69.0935 18.6631 69.0404 18.6637 68.9874 18.6643L68.9874 18.6643C68.8813 18.6656 68.7752 18.6668 68.6692 18.6668H37.1374C37.0095 18.6668 36.8817 18.6692 36.7538 18.6715ZM34.3359 56.551H48.3772C53.0694 56.551 57.7603 56.551 62.4511 56.5496L62.496 56.5496C62.7653 56.5498 63.0354 56.55 63.2978 56.4827C64.234 56.2431 64.8818 55.4196 64.8889 54.4694C64.8946 53.5373 64.2667 52.7125 63.3518 52.4492C63.1202 52.3837 62.8844 52.3726 62.6443 52.3726C53.1735 52.374 43.7026 52.374 34.2317 52.374H34.1541L34.1307 52.3739L34.0818 52.3734H34.0817C34.0031 52.3724 33.9243 52.3714 33.8472 52.3809C33.4352 52.4325 33.0432 52.5231 32.7732 52.8783C32.7079 52.9661 32.6184 53.0497 32.5204 53.0971C32.3442 53.1849 32.2505 53.3284 32.1652 53.4872C31.5643 54.6143 32.1084 55.9909 33.3273 56.4284C33.6554 56.5468 33.995 56.551 34.3359 56.551ZM34.8188 50.6475C38.9187 46.1654 42.9973 41.707 47.1014 37.2207C47.8756 38.4635 48.9155 39.3788 50.2722 39.9529C50.1146 40.1753 49.9378 40.3618 49.764 40.5451L49.764 40.5451C49.706 40.6063 49.6483 40.6672 49.5917 40.7289C47.7266 42.7705 45.8592 44.8107 43.9917 46.851L43.991 46.8518L43.9902 46.8527L43.9894 46.8535L43.9886 46.8544L43.9878 46.8553L43.987 46.8561L43.9862 46.857L43.9855 46.8578L43.9847 46.8587C43.2445 47.6674 42.5043 48.4761 41.7642 49.2849L41.5679 49.499C41.2537 49.8415 40.9393 50.1843 40.6277 50.5291C40.5339 50.6336 40.4388 50.6949 40.2811 50.6949C39.0329 50.69 37.7841 50.6899 36.5355 50.6898C36.0006 50.6898 35.4658 50.6897 34.9311 50.6893C34.9201 50.6893 34.9087 50.6844 34.8858 50.6746C34.8701 50.6679 34.8489 50.6589 34.8188 50.6475ZM47.9424 33.7852C47.8444 36.6428 50.1983 38.7494 52.7625 38.7647C55.4986 38.7926 57.702 36.6832 57.7375 34.0026C57.7716 31.3623 55.591 29.1847 52.8804 29.1554C50.2736 29.1275 48.0347 31.145 47.9424 33.7852ZM75.2779 55.088C75.2779 55.4075 75.2781 55.727 75.2782 56.0466C75.2785 56.6856 75.2789 57.3246 75.2779 57.9637C75.2779 58.2214 75.2736 58.227 75.0208 58.2284C73.1569 58.2298 71.2931 58.2298 69.4293 58.2284C69.1792 58.2284 69.175 58.2228 69.1736 57.9595C69.1726 56.9341 69.1729 55.9086 69.1733 54.8832L69.1735 54.1382L69.1736 53.345C69.1736 53.2336 69.1728 53.1221 69.172 53.0106C69.1704 52.7877 69.1688 52.5648 69.1736 52.3419C69.2162 50.5153 70.8669 49.1931 72.7094 49.4676C74.1982 49.6891 75.3134 50.9193 75.2807 52.4464C75.269 53.0517 75.2721 53.6571 75.2751 54.2625L75.2751 54.2648C75.2765 54.5392 75.2779 54.8136 75.2779 55.088ZM38.7639 21.7653H52.8748H52.8844C57.5848 21.7653 62.2853 21.7653 66.9871 21.7667C67.0155 21.7667 67.044 21.766 67.0726 21.7653C67.1354 21.7638 67.1983 21.7623 67.2598 21.7681C67.4161 21.782 67.453 21.7082 67.4488 21.5702C67.4446 21.4063 67.4453 21.2424 67.4461 21.0785C67.4466 20.9638 67.4471 20.849 67.4459 20.7343C67.4452 20.6725 67.4458 20.6198 67.4463 20.575C67.4477 20.4481 67.4484 20.3834 67.4164 20.351C67.3833 20.3174 67.3149 20.3184 67.1757 20.3206C67.1359 20.3212 67.0904 20.3219 67.0382 20.3219C57.6131 20.3205 48.1879 20.3205 38.7628 20.3205H38.7483C38.7218 20.3205 38.6952 20.3209 38.6687 20.3214C38.6157 20.3223 38.5626 20.3233 38.5096 20.3205C38.3761 20.3121 38.3292 20.3734 38.332 20.5002C38.3343 20.6502 38.3337 20.8003 38.3332 20.9503C38.3327 21.0789 38.3321 21.2075 38.3335 21.3362C38.334 21.3994 38.3332 21.4533 38.3324 21.4994C38.3303 21.6268 38.3293 21.6939 38.3622 21.729C38.399 21.768 38.478 21.7674 38.6452 21.7659C38.6806 21.7656 38.7201 21.7653 38.7639 21.7653ZM57.2464 29.0565C54.32 26.929 51.412 26.9164 48.4855 29.0133C48.4408 28.9449 48.4455 28.869 48.4501 28.7946V28.7946C48.4515 28.7721 48.4529 28.7497 48.4529 28.7277C48.4514 27.0838 48.4514 25.44 48.4514 23.7976V23.7844C48.4514 23.7509 48.4518 23.7175 48.4521 23.6841C48.4525 23.6506 48.4529 23.6172 48.4529 23.5838C48.4529 23.5002 48.5012 23.4653 48.5807 23.4653C48.6205 23.4653 48.6603 23.465 48.7 23.4646L48.7002 23.4646C48.7399 23.4643 48.7796 23.4639 48.8194 23.4639H56.8913L56.9698 23.4637C57.1321 23.463 57.2077 23.4627 57.2422 23.5002C57.2724 23.5329 57.2713 23.5945 57.2691 23.7099C57.2684 23.7484 57.2675 23.7929 57.2677 23.8443C57.2691 25.4702 57.2691 27.0962 57.2677 28.7221C57.2677 28.7491 57.2692 28.7763 57.2706 28.8037C57.2749 28.8852 57.2794 28.9689 57.2464 29.0565ZM74.8412 71.0659C74.7134 71.2827 74.5852 71.5004 74.4565 71.7193L74.4755 71.7324L74.5052 71.7531C74.543 71.7796 74.575 71.8021 74.6085 71.821L74.6398 71.8387C74.7815 71.9192 74.8413 71.9531 74.8824 71.9376C74.9124 71.9263 74.9325 71.8886 74.9672 71.8234L74.9673 71.8234C74.9714 71.8157 74.9757 71.8076 74.9802 71.7991C74.9838 71.7924 74.9875 71.7856 74.9914 71.7785C75.0024 71.7583 75.0148 71.7363 75.029 71.7123C75.2189 71.3919 75.4074 71.0705 75.596 70.7491L75.5963 70.7485C75.866 70.2888 76.1357 69.829 76.4098 69.3716C76.4936 69.2309 76.505 69.1264 76.4169 68.9787C75.7705 67.892 75.1313 66.801 74.4991 65.7059C74.4068 65.5457 74.3016 65.4969 74.1212 65.4983C72.8611 65.5053 71.5997 65.5067 70.3382 65.4969C70.1378 65.4955 70.0356 65.5666 69.9404 65.731C69.3139 66.8164 68.6803 67.8975 68.0396 68.9745C67.9544 69.1194 67.9558 69.2253 68.0425 69.3688C68.2972 69.7902 68.5454 70.2148 68.7937 70.6396C68.9124 70.8426 69.0311 71.0456 69.1505 71.2483C69.2304 71.3844 69.3116 71.5196 69.3929 71.6549L69.3931 71.6551L69.3932 71.6554L69.3934 71.6556L69.3935 71.6559C69.4552 71.7585 69.5169 71.8612 69.5781 71.9645L69.581 71.9632C69.7346 71.8955 69.8672 71.8371 69.9731 71.7318C69.9571 71.6263 69.902 71.5419 69.8473 71.4582L69.8253 71.4244C69.8212 71.418 69.8172 71.4117 69.8132 71.4053C69.8066 71.3948 69.8003 71.3843 69.7941 71.3737L69.7141 71.2367L69.7141 71.2366L69.714 71.2365L69.714 71.2364L69.7139 71.2363C69.3572 70.6246 69.0008 70.0133 68.632 69.4092C68.5368 69.2546 68.5354 69.1431 68.6306 68.9857C69.1747 68.0842 69.7074 67.1786 70.2359 66.2688C70.3239 66.1169 70.4205 66.0459 70.6081 66.0473C71.6863 66.0556 72.766 66.0556 73.8456 66.0473C74.0331 66.0459 74.1297 66.1128 74.2178 66.266C74.5214 66.7899 74.8295 67.3106 75.1378 67.8315L75.1391 67.8337C75.2862 68.0823 75.4334 68.3311 75.5802 68.5802C75.6147 68.6394 75.6567 68.6988 75.6987 68.7583C75.8003 68.9022 75.9027 69.047 75.9027 69.1919C75.9037 69.3365 75.8012 69.4826 75.6996 69.6276C75.6583 69.6865 75.6171 69.7452 75.583 69.8035C75.3371 70.2242 75.09 70.6436 74.8412 71.0659ZM72.2548 72.0693C72.1741 72.0466 72.1439 71.9882 72.1149 71.9319C72.1082 71.9189 72.1015 71.906 72.0943 71.8937C71.9497 71.6489 71.8055 71.4038 71.6614 71.1588L71.6603 71.1569C71.3174 70.5742 70.9746 69.9915 70.6268 69.4123C70.5373 69.2632 70.5146 69.1518 70.6169 68.9929C70.8427 68.646 71.0473 68.2865 71.2476 67.9257C71.3286 67.7794 71.4323 67.7264 71.5999 67.7306C72.019 67.7404 72.4395 67.7418 72.86 67.7306C73.0305 67.7264 73.1299 67.7864 73.2109 67.9285C73.4197 68.2977 73.6342 68.6641 73.8573 69.0264C73.9311 69.1462 73.9311 69.2409 73.8587 69.3621C73.4525 70.0394 73.0511 70.7198 72.6503 71.3993L72.6502 71.3994L72.6501 71.3996L72.65 71.3998L72.4096 71.8071L72.2548 72.0693ZM73.707 59.9211H72.2452C72.1119 59.9211 71.9787 59.9213 71.8456 59.9214H71.8454H71.8453C71.4463 59.922 71.0478 59.9225 70.6484 59.9183C70.5035 59.9169 70.4481 59.9657 70.4509 60.1106C70.458 60.4547 70.4594 60.8002 70.4509 61.1444C70.4467 61.3018 70.4992 61.3645 70.664 61.3603C70.8596 61.3555 71.0559 61.3567 71.252 61.3579H71.2522H71.2524C71.3395 61.3584 71.4266 61.3589 71.5135 61.3589C71.7587 61.3589 72.0041 61.3591 72.2495 61.3592H72.2496C72.7407 61.3595 73.232 61.3599 73.7226 61.3589C73.9925 61.3589 73.9939 61.3547 73.9953 61.0831C73.9963 60.8907 73.996 60.6978 73.9957 60.5051C73.9955 60.4088 73.9953 60.3125 73.9953 60.2165L73.9954 60.1794C73.9956 60.0456 73.9957 59.9807 73.9634 59.9495C73.933 59.9201 73.874 59.9204 73.7596 59.9209H73.7596L73.707 59.9211ZM66.6077 54.5253V54.5252C66.612 54.0474 66.612 54.046 67.0751 54.0488C67.1235 54.0491 67.1656 54.0486 67.2022 54.0482C67.3207 54.0468 67.3818 54.0461 67.4132 54.0763C67.4466 54.1084 67.4464 54.1755 67.4459 54.314C67.4459 54.3393 67.4458 54.3669 67.4459 54.3971C67.4466 54.6642 67.4469 54.799 67.3797 54.8665C67.3113 54.9352 67.1728 54.9342 66.8933 54.9321C66.8781 54.9321 66.863 54.9318 66.8478 54.9315C66.8175 54.9308 66.7872 54.9302 66.7569 54.9321C66.6233 54.9418 66.5722 54.8875 66.5935 54.7551C66.6039 54.6932 66.6052 54.6289 66.6062 54.5771V54.5771C66.6064 54.5682 66.6066 54.5596 66.6068 54.5515C66.607 54.5421 66.6073 54.5333 66.6077 54.5253ZM72.2489 63.0853C72.2986 63.3222 72.3128 63.5577 72.2574 63.8126C72.121 63.6134 72.1139 63.332 72.2489 63.0853Z" fill="white"/>
<path fill-rule="evenodd" clip-rule="evenodd" d="M45.0727 90.0908C42.5845 90.0901 40.0959 90.0898 37.6074 90.0894C35.1188 90.0891 32.6303 90.0887 30.1421 90.088C30.1404 90.051 30.1382 90.014 30.1361 89.9772L30.1361 89.9772C30.1313 89.892 30.1264 89.8071 30.1264 89.7216C30.125 85.1085 30.125 80.494 30.1264 75.8809C30.1264 75.8312 30.1258 75.7873 30.1253 75.7485C30.1233 75.6032 30.1223 75.5309 30.158 75.4954C30.1933 75.4603 30.2646 75.4612 30.4064 75.4632C30.4442 75.4637 30.4871 75.4643 30.5356 75.4643C35.2506 75.463 39.967 75.463 44.682 75.4643C44.732 75.4643 44.7759 75.4636 44.8144 75.4629C44.9466 75.4607 45.0159 75.4595 45.0522 75.4935C45.0921 75.531 45.0919 75.6114 45.0913 75.7805C45.0912 75.8023 45.0911 75.8255 45.0911 75.8503V89.7578C45.0911 89.8394 45.085 89.921 45.079 90.0021V90.0021C45.0768 90.0317 45.0746 90.0613 45.0727 90.0908ZM31.8541 82.8014V77.5865C31.8541 77.563 31.8545 77.5396 31.8549 77.5162C31.8557 77.4616 31.8566 77.407 31.8527 77.3524C31.8441 77.2284 31.8882 77.1699 32.0246 77.1699C32.7633 77.1727 33.502 77.174 34.2407 77.1685C34.4083 77.1671 34.4183 77.2563 34.4169 77.3816C34.4147 77.7745 34.415 78.1674 34.4153 78.5602L34.4154 78.9532C34.4154 78.9922 34.4158 79.0312 34.4161 79.0701L34.4162 79.0703L34.4162 79.0704C34.4165 79.1094 34.4169 79.1484 34.4169 79.1873C34.4154 79.2848 34.4652 79.3266 34.5632 79.3239C34.6086 79.322 34.6541 79.3226 34.6996 79.3232L34.6996 79.3232C34.7223 79.3235 34.745 79.3239 34.7678 79.3239H40.4601H40.5624L40.5627 79.3238C40.8252 79.3183 40.8295 79.3182 40.8309 79.0703C40.8322 78.8388 40.8317 78.6073 40.8312 78.3758V78.3755C40.8306 78.1055 40.83 77.8355 40.8323 77.5656C40.8329 77.5068 40.8322 77.4567 40.8316 77.414C40.83 77.2937 40.8291 77.2325 40.8593 77.2017C40.8905 77.1699 40.955 77.1706 41.0862 77.172C41.1262 77.1725 41.1725 77.173 41.2258 77.1727C41.8509 77.1699 42.476 77.1699 43.101 77.1727C43.3724 77.1741 43.3752 77.1768 43.3752 77.4485C43.3762 78.7265 43.3758 80.0039 43.3755 81.2814V81.2816C43.3754 81.9205 43.3752 82.5594 43.3752 83.1985V87.9788V88.146V88.146C43.3738 88.4664 43.3738 88.4678 43.0371 88.4678H35.0263H32.1965H32.1919C32.0028 88.4678 31.9178 88.4678 31.8801 88.4256C31.8493 88.391 31.8502 88.3282 31.8518 88.2139C31.8522 88.185 31.8527 88.1527 31.8527 88.1167C31.8527 87.2304 31.853 86.3442 31.8534 85.458L31.8534 85.4575C31.8537 84.5719 31.8541 83.6865 31.8541 82.8014ZM37.2609 77.6445C37.3865 77.6453 37.5121 77.6462 37.6376 77.6462C37.7574 77.6462 37.8773 77.6464 37.9973 77.6466C38.297 77.6472 38.597 77.6478 38.8963 77.6448C39.1051 77.6434 39.1079 77.6336 39.1093 77.4038C39.1108 77.1836 39.1093 77.1767 38.8877 77.1753C38.0382 77.1725 37.1873 77.1725 36.3363 77.1753C36.1318 77.1753 36.1315 77.1831 36.1253 77.3886C36.1251 77.3957 36.1249 77.4031 36.1247 77.4107C36.119 77.5709 36.1488 77.6559 36.3448 77.6504C36.6498 77.6405 36.9555 77.6425 37.2609 77.6445Z" fill="white"/>
<path fill-rule="evenodd" clip-rule="evenodd" d="M62.3816 90.088H47.5363C47.5346 90.0543 47.5325 90.0207 47.5303 89.9872V89.9872C47.5255 89.9098 47.5207 89.8328 47.5207 89.755C47.5197 86.6658 47.52 83.5772 47.5203 80.4884V80.4882C47.5205 78.9437 47.5207 77.3992 47.5207 75.8545C47.5207 75.8396 47.5205 75.8247 47.5203 75.8099C47.52 75.7802 47.5197 75.7504 47.5207 75.7207L47.5207 75.7203C47.5263 75.4699 47.5265 75.4643 47.7877 75.4643C49.2296 75.463 50.6716 75.463 52.1149 75.463C55.3965 75.463 58.6795 75.463 61.9611 75.4643H62.0634H62.0634C62.3958 75.4657 62.3987 75.4658 62.3987 75.7876V89.8553C62.3971 89.8991 62.3932 89.9429 62.3894 89.9864C62.3865 90.0204 62.3835 90.0544 62.3816 90.088ZM60.6852 82.8012V88.0483C60.6852 88.0691 60.6845 88.0902 60.6838 88.1112V88.1112V88.1112C60.6823 88.1575 60.6808 88.2039 60.6866 88.2489C60.7094 88.4314 60.6184 88.476 60.4494 88.4704C60.2088 88.4635 59.9681 88.465 59.7275 88.4664L59.7272 88.4664C59.627 88.467 59.5268 88.4676 59.4265 88.4676H49.6812C49.6509 88.4676 49.6206 88.4672 49.5903 88.4667C49.5297 88.4658 49.469 88.4649 49.4084 88.4676C49.2792 88.4746 49.2181 88.4244 49.228 88.2935C49.232 88.2467 49.2311 88.1999 49.2302 88.1531C49.2298 88.133 49.2294 88.1129 49.2294 88.0929C49.2294 84.5721 49.2294 81.0527 49.2309 77.5319C49.2309 77.4827 49.23 77.4401 49.2293 77.4033C49.227 77.2891 49.2258 77.2303 49.2546 77.2001C49.2853 77.1681 49.35 77.1685 49.4835 77.1694C49.514 77.1696 49.548 77.1698 49.586 77.1697L49.5874 77.1697H49.5875C50.2348 77.1683 50.8807 77.1669 51.528 77.1697C51.7681 77.1711 51.7723 77.1753 51.7737 77.4051C51.7752 77.6838 51.7748 77.9625 51.7744 78.241V78.241C51.7741 78.5195 51.7737 78.7977 51.7752 79.0757C51.7766 79.3125 51.7823 79.3195 52.0195 79.3195C53.9728 79.3209 55.9262 79.3209 57.8809 79.3195C58.1324 79.3195 58.1352 79.3139 58.1366 79.0534C58.1381 78.7971 58.1377 78.5408 58.1374 78.2847V78.2844V78.2843C58.137 78.0282 58.1366 77.7722 58.1381 77.5166C58.1382 77.4773 58.1379 77.4425 58.1376 77.4115C58.1365 77.2894 58.136 77.2284 58.1662 77.1981C58.1964 77.1679 58.2572 77.1684 58.3787 77.1693C58.4076 77.1696 58.44 77.1698 58.4762 77.1697C59.0899 77.1683 59.7036 77.1683 60.3158 77.1697C60.3524 77.1698 60.3854 77.1696 60.4152 77.1695C60.5594 77.1688 60.6278 77.1684 60.6597 77.2024C60.6886 77.2331 60.6877 77.2917 60.6861 77.4032C60.6856 77.4369 60.685 77.4754 60.6852 77.5194C60.6862 78.6933 60.6858 79.8667 60.6855 81.0402V81.0404L60.6855 81.0507C60.6854 81.6342 60.6852 82.2176 60.6852 82.8012ZM55.3168 77.1751C55.1971 77.1744 55.0774 77.1737 54.9576 77.1737C54.8412 77.1737 54.7248 77.1746 54.6083 77.1755C54.3169 77.1778 54.0254 77.1801 53.7331 77.1681C53.5413 77.1612 53.5058 77.2378 53.5143 77.3994C53.5151 77.4124 53.5157 77.4252 53.5162 77.4376C53.5217 77.5598 53.5258 77.6513 53.7217 77.6488C54.5471 77.6363 55.3739 77.6377 56.2007 77.6488C56.4016 77.6526 56.4024 77.5519 56.4034 77.4286C56.4035 77.4176 56.4036 77.4065 56.4038 77.3952C56.4067 77.2615 56.4038 77.164 56.2135 77.1695C55.9151 77.1785 55.6161 77.1768 55.3168 77.1751Z" fill="white"/>
<path fill-rule="evenodd" clip-rule="evenodd" d="M64.8476 75.5119C64.9022 75.5125 64.9567 75.5135 65.0112 75.5145L65.0112 75.5145C65.0931 75.516 65.1749 75.5175 65.2568 75.5175H79.2625C79.302 75.5175 79.338 75.5172 79.3709 75.517C79.5472 75.5157 79.6336 75.5151 79.6754 75.558C79.7155 75.5991 79.7145 75.6804 79.7125 75.8397C79.712 75.8791 79.7114 75.9234 79.7114 75.9731C79.7129 80.529 79.7129 85.0864 79.7114 89.6424C79.7114 89.6797 79.7117 89.714 79.7119 89.7454C79.7131 89.9179 79.7137 90.0047 79.6706 90.0481C79.627 90.092 79.5385 90.0914 79.3605 90.0901C79.3272 90.0899 79.2909 90.0896 79.2512 90.0896C76.8489 90.0903 74.4463 90.0906 72.0437 90.091C69.6411 90.0913 67.2385 90.0917 64.8363 90.0924C64.803 90.003 64.807 89.9105 64.811 89.8184C64.8122 89.7884 64.8135 89.7585 64.8135 89.7287C64.8121 85.1101 64.8121 80.4914 64.8135 75.8728C64.8139 75.8422 64.8121 75.8113 64.8104 75.7803C64.8052 75.6897 64.8 75.5981 64.8476 75.5119ZM72.2604 88.4676H66.9459C66.9194 88.4676 66.8929 88.4673 66.8664 88.467C66.8133 88.4664 66.7603 88.4658 66.7073 88.4676C66.595 88.4718 66.5368 88.4286 66.5411 88.313C66.543 88.2684 66.5423 88.2238 66.5417 88.1792C66.5414 88.1569 66.5411 88.1346 66.5411 88.1123V77.5194C66.5411 77.5057 66.5416 77.4919 66.5421 77.478V77.478C66.5433 77.4468 66.5446 77.4156 66.5396 77.3856C66.5098 77.2003 66.605 77.1641 66.7726 77.1669C67.1885 77.1711 67.6039 77.1708 68.0195 77.1704C68.2965 77.1702 68.5736 77.17 68.851 77.1711C69.0769 77.1725 69.0811 77.1767 69.0811 77.4191C69.0825 77.6922 69.0822 77.9649 69.0818 78.2377C69.0815 78.5104 69.0811 78.7831 69.0825 79.0562C69.084 79.3167 69.0868 79.3209 69.3368 79.3209C71.3129 79.3223 73.289 79.3223 75.265 79.3209C75.498 79.3209 75.5023 79.3153 75.5037 79.0743C75.5053 78.7622 75.5051 78.4506 75.5048 78.1389V78.1388C75.5047 77.9051 75.5045 77.6713 75.5051 77.4372C75.5065 77.1767 75.5094 77.1725 75.7594 77.1711C76.029 77.17 76.2984 77.1704 76.5678 77.1708C76.991 77.1714 77.4141 77.172 77.8377 77.1669C78.0182 77.1655 78.0693 77.2268 78.0665 77.3982C78.0594 77.7837 78.0609 78.1685 78.0624 78.5536C78.063 78.7141 78.0636 78.8746 78.0636 79.0353V88.0246C78.0636 88.0543 78.0631 88.084 78.0627 88.1137C78.0617 88.1732 78.0608 88.2326 78.0636 88.2921C78.0707 88.4216 78.0082 88.4732 77.8818 88.4676C77.8287 88.4648 77.7757 88.4658 77.7227 88.4667C77.6961 88.4672 77.6696 88.4676 77.6431 88.4676H72.2604ZM71.9234 77.6468C72.0433 77.6466 72.1631 77.6464 72.2829 77.6464C72.4084 77.6464 72.5341 77.6456 72.6597 77.6447C72.965 77.6427 73.2703 77.6407 73.5743 77.6506C73.7801 77.6575 73.7831 77.5546 73.7873 77.4073L73.7873 77.404C73.7916 77.2437 73.7589 77.1671 73.5672 77.1699C73.0306 77.176 72.4934 77.1755 71.9564 77.175C71.6432 77.1747 71.3301 77.1744 71.0172 77.1755C70.8055 77.1768 70.7998 77.1894 70.8027 77.4109C70.8055 77.6325 70.8098 77.6422 71.0243 77.645C71.3245 77.648 71.6241 77.6474 71.9234 77.6468Z" fill="white"/>
<path fill-rule="evenodd" clip-rule="evenodd" d="M54.8849 33.9563C54.8835 32.8528 53.9786 31.9639 52.8506 31.9598C51.717 31.9556 50.8035 32.8333 50.795 33.934C50.7865 35.0612 51.6885 35.9626 52.8279 35.9682C53.9686 35.9724 54.8863 35.0751 54.8849 33.9563ZM52.829 34.2738C53.0094 34.2794 53.1571 34.1429 53.1628 33.9687C53.1685 33.7987 53.0207 33.6483 52.846 33.6427C52.6769 33.6385 52.5122 33.7876 52.5079 33.9506C52.5036 34.115 52.6571 34.2697 52.829 34.2738Z" fill="white"/>
</g>
<defs>
<clipPath id="clip0_264_3733">
<rect width="49.7212" height="71.4743" fill="white" transform="translate(30.1113 18.6456)"/>
</clipPath>
</defs>
</svg>
