<svg width="109" height="109" viewBox="0 0 109 109" fill="none" xmlns="http://www.w3.org/2000/svg">
<circle cx="54.4544" cy="54.3826" r="54.3826" fill="#42C2FF"/>
<g clip-path="url(#clip0_264_3725)">
<path d="M78.6458 72.2078H53.181C52.4781 72.2078 51.9077 71.6374 51.9077 70.9345V45.4697C51.9077 44.7668 52.4781 44.1964 53.181 44.1964H78.6458C79.3487 44.1964 79.9191 44.7668 79.9191 45.4697V70.9345C79.9191 71.6374 79.3487 72.2078 78.6458 72.2078ZM54.4542 69.6613H77.3726V46.7429H54.4542V69.6613Z" fill="white"/>
<path d="M69.733 56.9289H62.0936C61.3907 56.9289 60.8203 56.3584 60.8203 55.6556V45.4697C60.8203 44.7668 61.3907 44.1964 62.0936 44.1964H69.733C70.4358 44.1964 71.0063 44.7668 71.0063 45.4697V55.6556C71.0063 56.3584 70.4358 56.9289 69.733 56.9289ZM63.3668 54.3824H68.4598V46.7429H63.3668V54.3824Z" fill="white"/>
<path d="M48.088 36.5571H40.4485C39.7457 36.5571 39.1753 35.9867 39.1753 35.2838V25.0979C39.1753 24.3951 39.7457 23.8246 40.4485 23.8246H48.088C48.7908 23.8246 49.3612 24.3951 49.3612 25.0979V35.2838C49.3612 35.9867 48.7908 36.5571 48.088 36.5571ZM41.7218 34.0106H46.8147V26.3711H41.7218V34.0106Z" fill="white"/>
<path d="M83.7389 84.9404H73.553C72.8501 84.9404 72.2797 84.3699 72.2797 83.6671V79.8474H36.6289V83.6671C36.6289 84.3699 36.0585 84.9404 35.3557 84.9404H25.1697C24.4669 84.9404 23.8965 84.3699 23.8965 83.6671V70.9347C23.8965 70.2319 24.4669 69.6614 25.1697 69.6614H83.7389C84.4417 69.6614 85.0122 70.2319 85.0122 70.9347V83.6671C85.0122 84.3699 84.4417 84.9404 83.7389 84.9404ZM74.8262 82.3939H82.4657V72.2079H26.443V82.3939H34.0824V78.5741C34.0824 77.8713 34.6528 77.3009 35.3557 77.3009H73.553C74.2558 77.3009 74.8262 77.8713 74.8262 78.5741V82.3939Z" fill="white"/>
<path d="M30.2625 72.2079C29.5597 72.2079 28.9893 71.6375 28.9893 70.9347V25.0979C28.9893 24.3951 29.5597 23.8246 30.2625 23.8246H58.2739C58.9767 23.8246 59.5471 24.3951 59.5471 25.0979V45.4698C59.5471 46.1726 58.9767 46.743 58.2739 46.743C57.571 46.743 57.0006 46.1726 57.0006 45.4698V26.3711H31.5357V70.9347C31.5357 71.6375 30.9653 72.2079 30.2625 72.2079Z" fill="white"/>
</g>
<defs>
<clipPath id="clip0_264_3725">
<rect width="61.1157" height="61.1157" fill="white" transform="translate(23.8965 23.8246)"/>
</clipPath>
</defs>
</svg>
