<svg width="110" height="109" viewBox="0 0 110 109" fill="none" xmlns="http://www.w3.org/2000/svg">
<circle cx="55.1634" cy="54.3826" r="54.3826" fill="#42C2FF"/>
<path fill-rule="evenodd" clip-rule="evenodd" d="M59.6157 21.2408L59.6157 21.2408L59.6157 21.2408C59.6448 21.2396 59.6739 21.2383 59.7026 21.2375C59.9996 21.3738 60.1312 21.6229 60.1936 21.9292C60.2292 22.1083 60.2291 22.2873 60.2291 22.4678V22.4678L60.229 22.4914V32.6628C60.229 32.6926 60.2301 32.7225 60.2311 32.7524V32.7525V32.7525V32.7526V32.7526V32.7527C60.2333 32.8175 60.2354 32.8823 60.2274 32.9456C60.1987 33.1644 60.2982 33.2149 60.5007 33.2132C61.5031 33.2058 62.5067 33.2075 63.5094 33.2092H63.5095H63.5096H63.5097H63.5098H63.5099L63.9395 33.2098C64.8271 33.2115 65.3485 33.91 65.0734 34.7567C65.0093 34.9519 65.0397 35.0142 65.2219 35.0731C65.422 35.1389 65.6181 35.2165 65.8141 35.2941C65.904 35.3297 65.9939 35.3652 66.0841 35.3996C66.1568 35.4388 66.2342 35.4692 66.3115 35.4997C66.3473 35.5137 66.383 35.5278 66.4182 35.5427L66.4193 35.5431C67.5242 35.9773 68.629 36.4114 69.7339 36.8438C69.8503 36.8842 69.965 36.9313 70.0764 36.9852C70.3784 37.0693 70.6653 37.1956 70.9504 37.3252C71.0195 37.3596 71.0923 37.3839 71.1652 37.4082C71.2311 37.4301 71.2971 37.4521 71.3605 37.4817C72.0201 37.7389 72.6793 37.996 73.3385 38.2532L73.3562 38.2601C74.0115 38.5157 74.6667 38.7713 75.3223 39.0269C75.3805 39.0643 75.4453 39.0866 75.51 39.1089C75.5618 39.1267 75.6135 39.1445 75.6615 39.1699C75.8075 39.2263 75.9538 39.2831 76.1002 39.3399C76.2466 39.3967 76.393 39.4536 76.5389 39.5099C76.6009 39.5509 76.6701 39.5746 76.7393 39.5984L76.7393 39.5984C76.7869 39.6147 76.8344 39.6311 76.8798 39.653C77.6434 39.9225 78.3938 40.223 79.1444 40.5236L79.1446 40.5237L79.1448 40.5237L79.1451 40.5238L79.1453 40.5239L79.1455 40.524C79.3979 40.6251 79.6504 40.7262 79.9035 40.8262C80.0253 40.8742 80.1466 40.9239 80.2679 40.9735L80.268 40.9735L80.268 40.9735L80.268 40.9735L80.2681 40.9735L80.2681 40.9735C80.5801 41.1012 80.8921 41.2289 81.2129 41.3294C81.471 41.4119 81.6634 41.5584 81.8355 41.7435C84.1134 44.1807 86.3896 46.6196 88.6659 49.0586C89.2396 49.6729 89.0506 50.5448 88.2592 50.8663C87.595 51.1363 86.9293 51.4015 86.2636 51.6667L86.263 51.6669C85.8873 51.8166 85.5115 51.9663 85.1359 52.1169C85.0876 52.1421 85.0363 52.1598 84.9851 52.1775C84.9202 52.1999 84.8553 52.2223 84.7968 52.2599C84.5066 52.3744 84.2147 52.4889 83.9244 52.6016C83.8791 52.6236 83.8315 52.6399 83.784 52.6562C83.7147 52.68 83.6456 52.7038 83.5836 52.7447C83.4458 52.8004 83.3084 52.8572 83.1709 52.914L83.1709 52.9141C82.8637 53.0411 82.5562 53.1682 82.2438 53.2833C82.0346 53.3607 81.93 53.4685 81.9604 53.6974C81.9696 53.7605 81.967 53.8252 81.9644 53.8898C81.9632 53.92 81.962 53.9502 81.962 53.9801V54.0313C81.962 61.6037 81.962 69.1777 81.9637 76.75C81.9637 77.021 81.9536 77.287 81.8709 77.5479L81.8598 77.5706C81.8216 77.6492 81.7831 77.7284 81.7123 77.7852C81.5858 77.9737 81.3799 78.0612 81.1859 78.142C80.3806 78.4777 79.5719 78.8046 78.7628 79.1315C78.4562 79.2554 78.1497 79.3793 77.8432 79.5037C77.7604 79.557 77.669 79.5903 77.5776 79.6235L77.5776 79.6236L77.5775 79.6236L77.5775 79.6236L77.5774 79.6236L77.5774 79.6236L77.5769 79.6238C77.5532 79.6325 77.5294 79.6411 77.5058 79.6501C76.8992 79.9018 76.293 80.1538 75.6868 80.4059C75.0806 80.6579 74.4745 80.91 73.8679 81.1616C73.8347 81.1753 73.7999 81.1828 73.7647 81.1904C73.748 81.1941 73.7311 81.1977 73.7143 81.202C73.6419 81.2467 73.564 81.2766 73.486 81.3065C73.4495 81.3205 73.4129 81.3346 73.3768 81.3501C72.7179 81.6211 72.0586 81.8921 71.3993 82.1631C70.7399 82.4341 70.0806 82.7051 69.4217 82.9761C69.3738 82.9947 69.3247 83.0101 69.2756 83.0255C69.1829 83.0546 69.0905 83.0837 69.0066 83.1343C68.6805 83.3125 68.3366 83.4473 67.9923 83.5823C67.852 83.6373 67.7116 83.6923 67.5724 83.7503C66.4791 84.2054 65.3835 84.655 64.2883 85.1044L64.2828 85.1066C63.7756 85.3147 63.2685 85.5228 62.7618 85.7314C62.744 85.7387 62.7267 85.7467 62.7094 85.7548C62.6543 85.7805 62.5999 85.806 62.5356 85.8021C62.4432 85.8675 62.3373 85.9005 62.2313 85.9335C62.1381 85.9625 62.0447 85.9916 61.9603 86.0428C61.7356 86.1371 61.5113 86.232 61.2871 86.327L61.2859 86.3275L61.2841 86.3282L61.2836 86.3284L61.2831 86.3287L61.2826 86.3289L61.2821 86.3291C60.8073 86.5301 60.3329 86.7309 59.8561 86.9248C59.7069 86.9854 59.5595 87.0505 59.4121 87.1156C59.0843 87.2604 58.7564 87.4052 58.4084 87.5004C58.3169 87.5613 58.2137 87.5934 58.1103 87.6256L58.1103 87.6256C58.0136 87.6557 57.9169 87.6858 57.8296 87.7394C57.5136 87.9104 57.1807 88.0415 56.848 88.1725L56.8479 88.1725L56.8478 88.1726L56.8477 88.1726L56.8476 88.1727L56.8475 88.1727C56.6333 88.2571 56.4192 88.3414 56.2098 88.4363C56.0808 88.4949 55.9484 88.5472 55.8162 88.5993L55.8161 88.5994C55.6371 88.67 55.4583 88.7406 55.2885 88.8268C54.9578 88.9951 54.6456 88.9766 54.3217 88.8318C54.0409 88.7057 53.7605 88.5795 53.4801 88.4533L53.4457 88.4378L52.9841 88.2301L52.6377 88.0744C51.9712 87.774 51.3047 87.4741 50.6382 87.1742L50.6341 87.1723L50.6299 87.1704C49.9696 86.8733 49.3092 86.5761 48.6488 86.2785C47.7782 85.8864 46.9066 85.4952 46.0355 85.1044L46.0259 85.1001L45.2049 84.7316C45.1631 84.7164 45.1254 84.6931 45.0876 84.6697L45.0876 84.6696C45.0416 84.6411 44.9954 84.6125 44.9417 84.5987C44.6223 84.4591 44.3029 84.3191 43.9835 84.1792C43.6634 84.0389 43.3433 83.8986 43.0232 83.7587C42.9744 83.7442 42.9317 83.718 42.8889 83.6918C42.8473 83.6663 42.8057 83.6407 42.7583 83.6258C41.9534 83.2673 41.1502 82.9088 40.3454 82.5486C40.3035 82.5334 40.2658 82.51 40.228 82.4866C40.182 82.458 40.1359 82.4294 40.0821 82.4156C39.6619 82.2302 39.2412 82.0453 38.8205 81.8605L38.8198 81.8602L38.8191 81.8599L38.8184 81.8596L38.8177 81.8593L38.817 81.859C38.0243 81.5107 37.2315 81.1625 36.4409 80.8098C35.7522 80.5027 35.0658 80.1921 34.3794 79.8814L34.3783 79.8809L34.377 79.8803L34.3734 79.8786C33.9031 79.6658 33.4327 79.4529 32.9616 79.2411L32.335 78.9594L32.3339 78.9589L32.333 78.9585C31.4191 78.5475 30.5055 78.1366 29.5886 77.7313C29.2376 77.5765 29.1009 77.2903 29.0537 76.9436C29.0359 76.8148 29.0382 76.6822 29.0404 76.5501C29.0411 76.5061 29.0419 76.4622 29.0419 76.4185V54.5305C29.0419 54.0138 29.0419 54.0121 28.5593 53.8152C28.3804 53.7423 28.2016 53.6702 28.0223 53.5978L27.7021 53.4685C27.6407 53.427 27.5724 53.4035 27.5039 53.3799C27.4556 53.3633 27.4073 53.3467 27.3613 53.3237C27.2154 53.2665 27.07 53.2098 26.9246 53.153L26.9218 53.1519C26.777 53.0954 26.6323 53.0389 26.4872 52.982C26.4279 52.9429 26.3621 52.92 26.2963 52.8971C26.246 52.8796 26.1956 52.8621 26.1481 52.8373C26.0022 52.7809 25.8563 52.7241 25.7104 52.6674C25.5644 52.6105 25.4184 52.5537 25.2723 52.4973C25.212 52.4575 25.145 52.4345 25.0781 52.4115L25.0781 52.4115C25.0288 52.3946 24.9796 52.3777 24.9332 52.3542C24.5909 52.2182 24.2484 52.0833 23.9059 51.9484C23.1424 51.6477 22.3792 51.3472 21.6209 51.0346C21.0033 50.7788 20.8363 49.9961 21.2834 49.4373C21.4965 49.171 21.7403 48.9282 21.9837 48.6858L21.9837 48.6858C22.0526 48.6172 22.1214 48.5486 22.1895 48.4795C22.8136 47.8488 23.4384 47.2188 24.0632 46.5888L24.0635 46.5885C25.7294 44.9087 27.3953 43.2289 29.0469 41.5348C29.4484 41.1227 29.9344 40.9239 30.4359 40.7188L30.4491 40.7134C31.5881 40.2472 32.7287 39.7843 33.8693 39.3214C33.9696 39.2805 34.0722 39.2457 34.1749 39.2109L34.1751 39.2108L34.1753 39.2108L34.1755 39.2107L34.1757 39.2106L34.1758 39.2106C34.225 39.1939 34.2742 39.1772 34.3232 39.1598C34.4363 39.1077 34.5493 39.0622 34.6658 39.0185C34.9062 38.9217 35.1466 38.8245 35.387 38.7273C35.6275 38.6301 35.868 38.5329 36.1085 38.4361C36.1548 38.4126 36.2041 38.3958 36.2533 38.3789C36.3208 38.3559 36.3881 38.3329 36.4476 38.293C36.5606 38.2515 36.6707 38.2026 36.7807 38.1536L36.7807 38.1536L36.7807 38.1536C36.9564 38.0754 37.1321 37.9973 37.32 37.9496C37.3635 37.9293 37.4093 37.9138 37.4552 37.8982L37.4552 37.8982C37.5268 37.874 37.5987 37.8497 37.6625 37.8066C38.6046 37.426 39.5471 37.0454 40.4896 36.6647C41.431 36.2846 42.3724 35.9044 43.3134 35.5242C43.4248 35.472 43.5412 35.4266 43.6559 35.3828C43.6939 35.3668 43.7322 35.3509 43.7705 35.3349C43.809 35.3189 43.8474 35.3029 43.8854 35.2869C43.9338 35.2605 43.9859 35.2425 44.0381 35.2246C44.1024 35.2024 44.1668 35.1802 44.2246 35.1421L44.4542 35.0432C44.5848 34.9868 44.7142 34.931 44.8388 34.8779C44.8692 34.8062 44.8453 34.7548 44.8226 34.7062C44.8176 34.6955 44.8127 34.6849 44.8084 34.6742C44.5232 33.969 45.0126 33.2115 45.7719 33.2065C46.5476 33.2006 47.3234 33.2021 48.0986 33.2035H48.0989H48.0992H48.0996H48.0999H48.1002C48.4441 33.2042 48.7878 33.2048 49.1314 33.2048C49.1597 33.2048 49.1881 33.2043 49.2164 33.2039C49.2826 33.2028 49.3487 33.2018 49.4149 33.2065C49.5785 33.2183 49.673 33.1694 49.6528 32.9843C49.6458 32.9207 49.6476 32.8554 49.6494 32.7903V32.7902V32.7902V32.7901V32.7901C49.6503 32.7605 49.6511 32.7309 49.6511 32.7015C49.6511 29.2695 49.6511 25.8359 49.6528 22.4039C49.6528 22.3685 49.6523 22.3329 49.6518 22.2973V22.2972V22.297V22.2969V22.2967V22.2966C49.6486 22.0516 49.6454 21.8042 49.7911 21.5825L49.8124 21.5499C49.9075 21.4038 50.0016 21.2592 50.1995 21.2341C51.9813 21.1305 53.7638 21.1442 55.5462 21.1579C56.6601 21.1665 57.774 21.1751 58.8876 21.155C59.0078 21.1541 59.1209 21.1775 59.2326 21.2006C59.3311 21.2209 59.4284 21.241 59.5288 21.2442C59.5575 21.2434 59.5866 21.2421 59.6157 21.2408ZM64.9519 82.5601C64.0593 82.9288 63.1667 83.297 62.2741 83.6651C61.3815 84.0333 60.4888 84.4015 59.5962 84.7701C59.1518 84.9536 58.7076 85.1372 58.2635 85.3209L58.2452 85.3284C57.4932 85.6393 56.7413 85.9502 55.9887 86.2598C55.9589 86.2714 55.9257 86.2744 55.8857 86.278H55.8857C55.8624 86.2801 55.8367 86.2823 55.8082 86.2867V54.2896C56.0563 54.4912 56.2963 54.6854 56.5319 54.8759C56.8137 55.1039 57.089 55.3266 57.3639 55.5503C57.9488 56.0281 58.5334 56.5066 59.118 56.9852L59.119 56.986L59.12 56.9868L59.1209 56.9876L59.1219 56.9884L59.1229 56.9892C60.4358 58.0639 61.749 59.139 63.0671 60.206C63.4771 60.5376 63.9479 60.6537 64.4558 60.3911C64.5271 60.3539 64.6038 60.3272 64.6807 60.3005L64.6808 60.3004C64.7184 60.2873 64.7561 60.2742 64.7933 60.2598C64.9114 60.2211 65.0244 60.174 65.1341 60.1168C65.3495 60.0622 65.5514 59.9733 65.7536 59.8842C65.8381 59.847 65.9226 59.8098 66.0082 59.7751C66.1246 59.7347 66.2393 59.6893 66.349 59.632C66.5643 59.5774 66.7662 59.4886 66.9682 59.3996L66.9683 59.3996L66.9683 59.3996L66.9683 59.3995L66.9684 59.3995L66.9685 59.3995C67.053 59.3623 67.1375 59.3251 67.223 59.2903C67.3395 59.2499 67.4542 59.2045 67.5639 59.1473C67.7484 59.1038 67.9196 59.0262 68.0909 58.9486L68.0909 58.9486L68.091 58.9486L68.091 58.9486L68.091 58.9486L68.0911 58.9486C68.2047 58.8971 68.3185 58.8455 68.4362 58.8039C68.5527 58.7652 68.6691 58.7214 68.7754 58.6608C69.1021 58.533 69.4291 58.4059 69.7563 58.2786L69.7579 58.278L69.7583 58.2779C70.3784 58.0367 70.9987 57.7955 71.6169 57.5499C72.0814 57.3662 72.544 57.1775 73.0067 56.9887L73.0072 56.9885L73.008 56.9882C73.2995 56.8692 73.591 56.7503 73.883 56.6326C75.3814 56.0284 76.8814 55.4241 78.3815 54.8215C78.5856 54.7391 78.7906 54.6578 78.9956 54.5766C79.2007 54.4954 79.4057 54.4142 79.6098 54.3317C79.7398 54.2795 79.8191 54.2964 79.8224 54.4529L79.8225 54.4536C79.8241 54.5611 79.8258 54.6686 79.8258 54.7761C79.8258 61.842 79.8258 68.9063 79.8275 75.9722C79.8275 76.4126 79.8259 76.4133 79.4339 76.5734L79.4141 76.5815C79.1188 76.7021 78.8231 76.8218 78.5274 76.9415L78.5261 76.9421L78.526 76.9421C77.4551 77.3757 76.3838 77.8095 75.329 78.2815C75.2681 78.31 75.2046 78.3311 75.1411 78.3522C75.0658 78.3773 74.9904 78.4023 74.919 78.4397C74.7567 78.5059 74.5942 78.5715 74.4317 78.6372L74.4298 78.638L74.4279 78.6387L74.4261 78.6395L74.4242 78.6402C73.7491 78.913 73.0733 79.1861 72.4116 79.4917C72.3495 79.5227 72.284 79.5443 72.2185 79.5659C72.1452 79.5901 72.0719 79.6143 72.0033 79.6516L71.8308 79.7208L71.6291 79.8015C70.9118 80.0884 70.1957 80.3748 69.4942 80.7002C69.4207 80.7388 69.3424 80.7647 69.2641 80.7907C69.2023 80.8112 69.1404 80.8317 69.0808 80.8585C67.9115 81.3314 66.7438 81.8044 65.5745 82.2791C65.5203 82.3012 65.4697 82.3322 65.4195 82.3631C65.4009 82.3745 65.3823 82.386 65.3636 82.3969C65.2914 82.4366 65.2146 82.4626 65.1379 82.4886C65.0749 82.51 65.012 82.5313 64.9519 82.5601ZM32.0668 55.2331L32.0638 55.2318L32.0609 55.2305L32.058 55.2293C31.8214 55.1276 31.5849 55.0259 31.3484 54.9244C31.0768 54.914 31.1083 55.0729 31.1357 55.2108C31.1437 55.2511 31.1513 55.2896 31.1509 55.3216C31.1425 62.1166 31.1442 68.9132 31.1459 75.7081C31.1459 75.7401 31.1437 75.7725 31.1415 75.805C31.1346 75.9059 31.1277 76.0078 31.1864 76.102C31.8104 76.3834 32.4348 76.6643 33.0592 76.9452L33.0643 76.9475L33.0722 76.9511L33.084 76.9564C33.7177 77.2415 34.3513 77.5266 34.9846 77.8121C35.0384 77.8456 35.0973 77.8684 35.1562 77.8913C35.21 77.9121 35.2637 77.933 35.3136 77.9619C35.8184 78.1878 36.3237 78.4131 36.8293 78.6385C37.1789 78.7944 37.5287 78.9503 37.8784 79.1065C38.3109 79.2992 38.7435 79.4916 39.1759 79.684L39.176 79.6841L39.1761 79.6841L39.1764 79.6842L39.1766 79.6843L39.1769 79.6845L39.1771 79.6846C40.1378 80.112 41.0983 80.5392 42.0579 80.9697C43.0001 81.3919 43.9416 81.8158 44.8833 82.2397L44.8849 82.2405L44.8864 82.2412C45.5543 82.5419 46.2223 82.8426 46.8905 83.1427C46.9534 83.1701 47.0135 83.2031 47.0736 83.2361C47.1538 83.28 47.234 83.324 47.3208 83.3548C47.3391 83.3595 47.3579 83.363 47.3766 83.3664L47.3767 83.3664L47.3767 83.3665L47.3767 83.3665L47.3768 83.3665C47.4114 83.3729 47.446 83.3793 47.4777 83.3935C48.0982 83.6724 48.7186 83.9521 49.3389 84.2319L49.34 84.2324L49.3405 84.2326L49.3434 84.2339L49.3457 84.235C50.4453 84.7309 51.545 85.2268 52.646 85.7179C52.7451 85.762 52.8427 85.811 52.9406 85.8601C53.1975 85.989 53.4563 86.1189 53.7495 86.164V54.2124C53.719 54.2283 53.6927 54.2406 53.6698 54.2513C53.6318 54.2691 53.6026 54.2827 53.5774 54.3016C52.7339 54.9181 51.8912 55.5349 51.0484 56.1518L51.0459 56.1537L51.0434 56.1555L51.0341 56.1623C50.1858 56.7833 49.3375 57.4042 48.4884 58.0248C47.4946 58.7519 46.4973 59.479 45.4967 60.1978C45.1289 60.462 44.7324 60.5697 44.2835 60.3694C43.8967 60.1974 43.506 60.036 43.115 59.8746C42.9246 59.7959 42.734 59.7172 42.5439 59.6373C41.6377 59.2563 40.731 58.8758 39.8244 58.4953L39.8207 58.4938L39.8171 58.4922L39.8134 58.4907C38.909 58.1111 38.0045 57.7315 37.1005 57.3515C36.9824 57.3128 36.8677 57.2674 36.7597 57.2068C36.4914 57.0955 36.2228 56.9846 35.9542 56.8737L35.9539 56.8736L35.9538 56.8735L35.9537 56.8735L35.9536 56.8734C35.3606 56.6286 34.7673 56.3836 34.1763 56.1346C33.4717 55.8371 32.769 55.535 32.0668 55.2331ZM67.6281 46.2053C67.5884 46.2197 67.5492 46.2344 67.51 46.2491C67.4707 46.2638 67.4315 46.2786 67.3919 46.2929C67.3374 46.3153 67.2813 46.3338 67.2251 46.3524C67.142 46.38 67.0587 46.4076 66.9802 46.4477L66.9272 46.468L66.8619 46.4932C66.8227 46.5084 66.7835 46.5235 66.7439 46.5386C66.7028 46.5533 66.6611 46.5668 66.6193 46.5803L66.6192 46.5803C66.5221 46.6116 66.4247 46.643 66.3339 46.6901C66.2943 46.7052 66.2546 46.72 66.215 46.7347C66.1753 46.7494 66.1357 46.7642 66.096 46.7793C66.0514 46.7958 66.0061 46.8106 65.9607 46.8255C65.867 46.8563 65.7729 46.8871 65.6843 46.9325L65.2413 47.0989L64.9182 47.2203L64.1522 47.5081C64.1135 47.5218 64.0745 47.5344 64.0356 47.547C63.9354 47.5793 63.8357 47.6116 63.7421 47.6613L62.6505 48.0709L61.5621 48.4793C61.499 48.5202 61.4272 48.5386 61.3553 48.5571C61.285 48.5752 61.2146 48.5934 61.1521 48.6325C61.0046 48.6888 60.8571 48.7447 60.7096 48.8006L60.5265 48.8701C60.4397 48.903 60.353 48.936 60.2662 48.9691C60.1582 49.028 60.0435 49.0735 59.9237 49.1071L59.0086 49.4456L59.0051 49.4469L58.999 49.4491L58.9925 49.4515C58.2754 49.7166 57.5586 49.9817 56.8426 50.2483C56.7252 50.2921 56.6077 50.3357 56.4902 50.3793C56.0433 50.5451 55.5961 50.711 55.1552 50.8896C54.8633 51.0074 54.6102 50.9182 54.3504 50.8139C54.2828 50.7743 54.2085 50.7501 54.1341 50.7259C54.0692 50.7048 54.0043 50.6837 53.9437 50.6523L53.6335 50.5245C53.2791 50.3785 52.9242 50.2323 52.5702 50.0851C52.5216 50.0608 52.471 50.041 52.4203 50.0212L52.4202 50.0211C52.3583 49.9969 52.2963 49.9727 52.2378 49.9403L50.1523 49.1071C50.0443 49.0449 49.9295 48.9994 49.8114 48.9624C48.1511 48.2622 46.4857 47.5771 44.8068 46.9241C44.6988 46.8651 44.584 46.818 44.4659 46.781L43.3444 46.3239L43.338 46.3213C42.0457 45.7946 40.754 45.2681 39.4613 44.7427C39.3516 44.6838 39.2385 44.6349 39.1187 44.6013C38.9846 44.5457 38.8504 44.4906 38.7163 44.4355C38.5821 44.3804 38.448 44.3252 38.3139 44.2697C38.2378 44.2278 38.1552 44.2006 38.0728 44.1736C38.0162 44.155 37.9598 44.1365 37.9055 44.1132C37.6732 44.0167 37.441 43.9197 37.2088 43.8227C36.7159 43.6167 36.2227 43.4107 35.7272 43.2093C35.0861 42.9478 34.4432 42.6909 33.7998 42.4338L33.7995 42.4337C33.5776 42.345 33.3557 42.2563 33.1337 42.1674C33.0879 42.0481 33.1602 42.0111 33.2325 41.9741L33.2325 41.9741C33.2561 41.9621 33.2796 41.95 33.2991 41.9351C33.8239 41.7171 34.3487 41.4996 34.8735 41.282L34.875 41.2814L34.8765 41.2808C35.4002 41.0637 35.9239 40.8465 36.4477 40.629C36.5658 40.5903 36.6805 40.5432 36.7902 40.4859C38.0641 39.9978 39.3229 39.4676 40.5783 38.9341C40.6964 38.8953 40.8111 38.8499 40.9191 38.7893C42.1947 38.3012 43.4518 37.7693 44.7089 37.2374C44.827 37.1987 44.9417 37.1533 45.0497 37.0944C45.1949 37.0363 45.34 36.9778 45.4852 36.9193L45.486 36.9189C45.6308 36.8606 45.7756 36.8022 45.9204 36.7443C45.9938 36.7024 46.072 36.6726 46.1505 36.6427L46.1505 36.6427L46.1506 36.6427C46.1858 36.6292 46.2212 36.6158 46.2562 36.6012C46.4123 36.566 46.4811 36.6692 46.545 36.7652L46.5451 36.7652C46.5606 36.7885 46.5758 36.8114 46.592 36.8318C47.0127 37.362 47.4278 37.8967 47.8428 38.4313L48.1156 38.7826C48.1816 38.8672 48.2456 38.9531 48.3097 39.0391C48.3489 39.0916 48.3881 39.1443 48.4278 39.1966C48.4744 39.2312 48.5035 39.2798 48.5326 39.3282C48.553 39.3623 48.5735 39.3964 48.5999 39.4255C48.9655 39.8963 49.3311 40.3667 49.6966 40.8371C50.0617 41.3067 50.4267 41.7764 50.7918 42.2465C51.1555 42.7147 51.519 43.1831 51.8825 43.6515C52.6101 44.5891 53.3378 45.5268 54.0669 46.4629C54.1648 46.5874 54.2812 46.6968 54.4078 46.7978C54.86 47.158 55.5265 47.089 55.9011 46.6059C56.7109 45.5566 57.5333 44.5162 58.3558 43.4756L58.3562 43.4751L58.3567 43.4744C58.6632 43.0866 58.9698 42.6988 59.2757 42.3105C59.3998 42.1531 59.5238 41.9953 59.6478 41.8375C59.7718 41.6797 59.8958 41.5219 60.0199 41.3646C60.0471 41.3353 60.0674 41.3011 60.0877 41.2669C60.1165 41.2185 60.1452 41.1702 60.1937 41.1356C60.1986 41.1284 60.2037 41.1211 60.2088 41.1139C60.2149 41.1052 60.2212 41.0964 60.2274 41.0877L60.2422 41.0669L60.2612 41.0397C60.2929 40.9959 60.3268 40.9538 60.3606 40.9116L60.3607 40.9116L60.3607 40.9115C60.4115 40.8484 60.4623 40.7852 60.5058 40.7165C61.1352 39.9221 61.7646 39.1259 62.3923 38.3315C62.4883 38.2099 62.5846 38.0886 62.6809 37.9674L62.682 37.966C62.9506 37.6275 63.2192 37.2891 63.4823 36.9462C63.5077 36.9132 63.5289 36.8837 63.5476 36.8576C63.6684 36.6892 63.6862 36.6644 64.0543 36.7897C64.3808 36.9009 64.701 37.0317 65.0208 37.1623C65.1704 37.2234 65.3199 37.2844 65.47 37.3435C65.7202 37.4423 65.9712 37.5397 66.2219 37.6371L66.2222 37.6372L66.2224 37.6373L66.2236 37.6377C66.3696 37.6944 66.5155 37.7511 66.6612 37.808C66.7396 37.8539 66.8258 37.8817 66.9117 37.9094C66.9645 37.9264 67.0172 37.9434 67.0679 37.9646C67.2138 38.0217 67.3596 38.0785 67.5055 38.1353C67.6516 38.1921 67.7976 38.249 67.9436 38.3062C68.0516 38.3651 68.1664 38.4123 68.2845 38.4476C69.1437 38.7844 70.0029 39.1208 70.8621 39.4572L70.8737 39.4617L70.8854 39.4663C71.7446 39.8027 72.6037 40.139 73.4629 40.4758C73.539 40.5178 73.6216 40.5449 73.704 40.572C73.7606 40.5905 73.817 40.6091 73.8713 40.6324C74.0159 40.6894 74.161 40.746 74.306 40.8027L74.3075 40.8032C74.453 40.86 74.5985 40.9168 74.7436 40.9741C74.855 41.0296 74.968 41.0801 75.0862 41.1154L75.093 41.1182C76.0356 41.4926 76.9784 41.8671 77.9749 42.2617C77.7475 42.4153 77.5209 42.495 77.304 42.5715C77.2118 42.6039 77.1214 42.6357 77.0334 42.6724C76.9237 42.7279 76.8106 42.7717 76.6942 42.8104L76.6913 42.8115C76.1574 43.008 75.6235 43.2046 75.0912 43.3995C74.9816 43.4534 74.8668 43.4954 74.7521 43.5375L74.7521 43.5375C74.4517 43.6301 74.1564 43.7395 73.8713 43.8725C73.8131 43.8961 73.7537 43.9161 73.6944 43.936C73.6144 43.963 73.5345 43.9899 73.4579 44.0256C72.9483 44.2175 72.4387 44.4094 71.9275 44.6013C71.877 44.6206 71.8256 44.6375 71.7742 44.6545L71.7741 44.6545C71.6864 44.6835 71.5987 44.7124 71.5157 44.7528L71.0745 44.9194L70.6333 45.086C70.5872 45.1031 70.5404 45.1183 70.4935 45.1336C70.4013 45.1638 70.3088 45.194 70.2215 45.2375L70.1653 45.2591L70.1036 45.2829L70.0293 45.3116L69.9853 45.3284C69.9367 45.347 69.8872 45.3632 69.8377 45.3794C69.7481 45.4088 69.6584 45.4382 69.5736 45.4816L69.3832 45.5533C69.1519 45.6404 68.9212 45.7273 68.6894 45.8132C68.6452 45.8295 68.6002 45.8441 68.5552 45.8587C68.4613 45.8892 68.3673 45.9197 68.2794 45.9663C68.2398 45.9815 68.2002 45.9962 68.1606 46.0109L68.1605 46.0109L68.1603 46.011L68.1602 46.011L68.16 46.0111C68.1205 46.0258 68.081 46.0404 68.0415 46.0555C67.9991 46.0705 67.9562 46.0842 67.9133 46.0979L67.9132 46.0979C67.8162 46.1289 67.7193 46.1598 67.6281 46.2053ZM33.1032 53.5134C33.3269 53.6109 33.5506 53.7085 33.7748 53.8052C33.8912 53.8473 34.006 53.8927 34.1173 53.9516C34.9863 54.2832 35.8401 54.6485 36.6905 55.0221C36.8087 55.0592 36.9234 55.1029 37.0297 55.1669C38.4639 55.7442 39.8897 56.3417 41.3071 56.9594C41.4252 56.9982 41.54 57.0436 41.648 57.1042C41.8822 57.1996 42.117 57.2933 42.3517 57.387L42.3525 57.3873C42.9123 57.6106 43.4718 57.8339 44.0221 58.0804C44.3764 58.2387 44.6227 58.2387 44.9552 57.9912C46.5585 56.7952 48.1732 55.6172 49.7886 54.4388L49.7894 54.4381L49.7932 54.4354C50.3269 54.0461 50.8606 53.6567 51.3941 53.2666C51.4958 53.1922 51.5974 53.1176 51.6991 53.0429L51.7004 53.042L51.7007 53.0417C51.9322 52.8716 52.1639 52.7014 52.398 52.5344C52.5263 52.4435 52.5701 52.3627 52.4065 52.2668C52.29 52.2247 52.177 52.1759 52.0639 52.1237C51.7855 52.0116 51.507 51.8997 51.2284 51.7878C50.553 51.5164 49.8772 51.2448 49.2022 50.9707C48.5459 50.7041 47.8904 50.4349 47.2345 50.1656C46.963 50.0541 46.6915 49.9426 46.4198 49.8312C46.3675 49.8009 46.3114 49.7791 46.2553 49.7572C46.1991 49.7353 46.143 49.7134 46.0907 49.6831C45.6599 49.5073 45.2286 49.3315 44.7973 49.1557L44.7915 49.1534C44.3616 48.9782 43.9318 48.803 43.5024 48.6278C43.4463 48.5931 43.385 48.5716 43.3237 48.5501C43.269 48.5309 43.2142 48.5116 43.1632 48.483C43.1253 48.467 43.0869 48.4511 43.0485 48.4351C43.0101 48.4191 42.9717 48.4031 42.9337 48.3871C42.8794 48.3621 42.8225 48.3437 42.7655 48.3252C42.6844 48.299 42.6031 48.2727 42.5288 48.2272C42.4404 48.1934 42.3518 48.1599 42.2632 48.1265L42.2631 48.1265L42.263 48.1265L42.2629 48.1264L42.2628 48.1264C42.0383 48.0417 41.8136 47.957 41.5923 47.8653C41.1202 47.6702 40.6487 47.4733 40.1772 47.2764L40.1767 47.2762L40.1762 47.276L40.1759 47.2758L40.1755 47.2757C39.5369 47.009 38.8983 46.7423 38.2581 46.48C37.5881 46.2058 36.9163 45.9348 36.2445 45.6639C35.6508 45.4244 35.0571 45.185 34.4649 44.9433C33.1893 44.4232 31.9137 43.9014 30.6448 43.3662C30.4119 43.2686 30.2668 43.2871 30.0812 43.4756C28.7041 44.8823 27.3211 46.2833 25.9382 47.6843L25.938 47.6844L25.9378 47.6846L25.9374 47.6851C25.3449 48.2853 24.7524 48.8855 24.1603 49.4862C24.1436 49.5032 24.1252 49.5191 24.1064 49.5353C24.0341 49.5979 23.9564 49.6651 23.9511 49.8161C24.3628 49.979 24.7772 50.1433 25.1932 50.3081L25.1956 50.3091C25.7028 50.5101 26.2123 50.7121 26.7217 50.9135C26.7845 50.943 26.8484 50.9681 26.9122 50.9932C26.9615 51.0126 27.0106 51.0319 27.0592 51.0532C27.206 51.1104 27.3523 51.1677 27.4987 51.2249C27.6451 51.2821 27.7915 51.3393 27.9383 51.3966C27.9983 51.4265 28.0609 51.4512 28.1235 51.476C28.1735 51.4957 28.2236 51.5155 28.2724 51.538C28.5944 51.6665 28.9167 51.7945 29.239 51.9226C30.0179 52.2319 30.7971 52.5414 31.5728 52.8593C32.0861 53.0697 32.5946 53.2915 33.1032 53.5134ZM79.7904 43.8727C79.8277 43.8612 79.8667 43.8525 79.9057 43.8439C79.9867 43.826 80.0675 43.8081 80.1313 43.7649C80.5616 43.467 80.8197 43.664 81.1285 44.0023C82.3404 45.329 83.5683 46.6417 84.796 47.9543C85.1648 48.3486 85.5336 48.7429 85.902 49.1376C85.9208 49.1576 85.9454 49.1726 85.9695 49.1874L85.9697 49.1875C85.98 49.1938 85.9902 49.2001 85.9999 49.2066C86.0122 49.2218 86.0254 49.2369 86.0386 49.252C86.1368 49.3648 86.2347 49.4772 85.9982 49.587C85.8015 49.6277 85.6194 49.7074 85.4375 49.787C85.3104 49.8427 85.1834 49.8983 85.0516 49.9405C84.9744 49.9814 84.8929 50.0128 84.812 50.044C84.7797 50.0565 84.7476 50.0689 84.7158 50.0819C83.538 50.5515 82.3586 51.0211 81.1791 51.489C80.7258 51.669 80.2719 51.847 79.8177 52.0251L79.8169 52.0255C79.5494 52.1304 79.2818 52.2353 79.0143 52.3407C78.3331 52.6091 77.6536 52.8792 76.9741 53.1493L76.9692 53.1513L76.9675 53.152C76.6224 53.289 76.2781 53.4274 75.9335 53.5659C75.7321 53.6468 75.5307 53.7277 75.3291 53.8084C75.2806 53.8278 75.2308 53.8438 75.181 53.8599L75.181 53.86C75.092 53.8887 75.0029 53.9175 74.9208 53.9649C74.7866 54.0196 74.652 54.0744 74.5175 54.1291C74.3829 54.1838 74.2483 54.2385 74.1142 54.2932C74.0627 54.3153 74.0092 54.3324 73.9556 54.3495C73.8705 54.3766 73.7852 54.4039 73.7076 54.4514C73.5724 54.5061 73.4377 54.5609 73.303 54.6157C73.1686 54.6703 73.0341 54.725 72.8993 54.7796C72.7812 54.8149 72.6665 54.8638 72.5585 54.9227C72.4123 54.9791 72.2667 55.036 72.121 55.0929C71.9756 55.1496 71.8302 55.2063 71.6844 55.2627C71.5663 55.2997 71.4533 55.3502 71.3419 55.4057C71.0491 55.4873 70.7722 55.6116 70.4958 55.7356L70.4958 55.7356L70.4695 55.7474C70.4167 55.7701 70.3618 55.7878 70.3068 55.8054C70.2231 55.8323 70.1393 55.8592 70.0629 55.904C69.9284 55.9584 69.7944 56.0129 69.6603 56.0674C69.5253 56.1223 69.3902 56.1773 69.2547 56.2322C69.2013 56.2551 69.1458 56.2731 69.0904 56.2912C69.0071 56.3182 68.9239 56.3453 68.848 56.3887C68.713 56.4434 68.5784 56.4981 68.4439 56.5528C68.3093 56.6075 68.1747 56.6622 68.0398 56.7169C67.9864 56.7389 67.9314 56.7569 67.8765 56.7749C67.7924 56.8025 67.7083 56.8301 67.6297 56.8718C67.3876 56.9669 67.1451 57.0616 66.9025 57.1562C66.6599 57.2509 66.4174 57.3456 66.1752 57.4407C66.1158 57.4685 66.0537 57.4889 65.9918 57.5092C65.9147 57.5345 65.838 57.5597 65.7669 57.5989C65.7129 57.6258 65.6606 57.6528 65.6066 57.678C65.52 57.7218 65.4276 57.752 65.3356 57.7822C65.286 57.7984 65.2366 57.8146 65.1881 57.8329L64.9604 57.9238C64.9012 57.9518 64.8386 57.9723 64.7759 57.9928C64.6993 58.0179 64.6226 58.0431 64.552 58.082C64.2027 58.2671 63.9378 58.2368 63.5987 57.9541C62.3456 56.9108 61.0742 55.8892 59.8027 54.8675L59.8005 54.8658C59.3024 54.4656 58.8042 54.0653 58.3072 53.6637C58.0288 53.4387 57.7525 53.211 57.4761 52.9832L57.4759 52.9831C57.3201 52.8547 57.1642 52.7262 57.0079 52.5982C56.9341 52.4596 57.0154 52.4238 57.0968 52.3879L57.0969 52.3879C57.1272 52.3745 57.1576 52.3611 57.18 52.3424C57.8883 52.0774 58.5962 51.8119 59.3041 51.5464C60.3097 51.1693 61.3153 50.7922 62.3214 50.4168C62.9234 50.1928 63.5262 49.9708 64.1289 49.7488L64.1296 49.7486L64.1298 49.7485C65.1567 49.3703 66.1835 48.9922 67.2062 48.6041L67.4926 48.4955C69.3325 47.7977 71.1729 47.0998 73.0225 46.4277C73.1544 46.3802 73.2841 46.3268 73.414 46.2734C73.4819 46.2455 73.5498 46.2175 73.6181 46.1904C73.7261 46.1315 73.8409 46.0894 73.959 46.0507C74.2859 45.9313 74.6128 45.8114 74.9394 45.6916L74.9419 45.6906L75.5619 45.4633C75.6699 45.4043 75.7847 45.3623 75.9028 45.3236C76.2299 45.2042 76.557 45.0841 76.8837 44.9643L76.8863 44.9633L77.5058 44.7361C77.6138 44.6772 77.7285 44.6351 77.8466 44.5964C78.1733 44.4772 78.5 44.3573 78.8263 44.2375L78.8289 44.2366L79.4496 44.009C79.5576 43.9535 79.6723 43.9114 79.7904 43.8727ZM53.0093 41.6102C53.2392 41.9044 53.4691 42.1985 53.699 42.4925C53.7298 42.5334 53.7621 42.5734 53.7942 42.6133C53.8466 42.6782 53.8987 42.7428 53.9437 42.8106C54.0106 42.8955 54.0775 42.9803 54.1444 43.0652C54.3824 43.3673 54.6201 43.669 54.8599 43.9686C55.0185 44.1672 55.059 44.1672 55.2176 43.9703C55.4019 43.7401 55.5843 43.508 55.7667 43.276C55.8884 43.1212 56.01 42.9665 56.1322 42.8123C56.1827 42.7306 56.2436 42.6559 56.3043 42.5812C56.3287 42.5512 56.3531 42.5212 56.3769 42.4908C56.3878 42.4748 56.3992 42.4588 56.4106 42.4428C56.422 42.4268 56.4334 42.4108 56.4443 42.3949C56.4876 42.3611 56.5151 42.3153 56.5427 42.2694C56.5646 42.233 56.5866 42.1965 56.6165 42.1659C56.7261 42.0313 56.8341 41.8983 56.9421 41.762C57.5607 40.9802 58.1792 40.2001 58.7978 39.42L58.7999 39.4173C58.8292 39.3881 58.8499 39.3522 58.8707 39.3162C58.8979 39.2691 58.9252 39.2218 58.972 39.1884C59.2054 38.8892 59.4389 38.5899 59.6724 38.2906C60.3202 37.4604 60.9682 36.6299 61.6144 35.7985C61.6399 35.7657 61.6668 35.7336 61.6941 35.7012C61.7911 35.5858 61.8913 35.4665 61.94 35.2969C61.6478 35.2969 61.3592 35.2976 61.073 35.2982C60.4372 35.2997 59.8139 35.3011 59.1913 35.2953C58.7324 35.2919 58.454 35.068 58.2819 34.6472C58.1924 34.429 58.1924 34.2092 58.1924 33.9861V33.974V23.7218C58.1924 23.692 58.1914 23.6621 58.1904 23.6322C58.1882 23.5673 58.186 23.5024 58.1941 23.439C58.2228 23.2168 58.1131 23.1529 57.914 23.1798C57.8766 23.1856 57.8393 23.1842 57.8019 23.1828C57.7853 23.1821 57.7687 23.1815 57.752 23.1815C57.3003 23.1815 56.8485 23.1814 56.3967 23.1813C55.0413 23.181 53.686 23.1807 52.3306 23.1832C52.0782 23.184 51.9664 23.1646 51.9178 23.2112C51.8691 23.2578 51.8834 23.3701 51.8834 23.6343C51.8818 27.0528 51.8818 30.4696 51.8818 33.8864C51.8818 33.9201 51.8821 33.9538 51.8824 33.9876C51.8833 34.089 51.8843 34.1907 51.8767 34.2904C51.8278 34.8862 51.4296 35.3205 50.8086 35.3054C50.2065 35.2898 49.6054 35.2942 49.0037 35.2986C48.823 35.2999 48.6423 35.3012 48.4615 35.302C48.4387 35.3024 48.4156 35.3014 48.392 35.3004C48.3106 35.2969 48.2234 35.2932 48.124 35.3441C48.3208 35.6006 48.5137 35.853 48.7047 36.1029C48.9135 36.3761 49.1201 36.6463 49.3271 36.9161C49.3619 36.9659 49.3997 37.0129 49.4375 37.06C49.4841 37.118 49.5308 37.1761 49.5718 37.2393C49.8272 37.5638 50.0821 37.8884 50.3371 38.2129C50.5925 38.5381 50.848 38.8632 51.1039 39.1884C51.1477 39.2219 51.1745 39.2677 51.2014 39.3136C51.2232 39.3508 51.245 39.3881 51.276 39.419C51.2936 39.4388 51.3117 39.4584 51.3299 39.478C51.3659 39.5169 51.4021 39.5561 51.4346 39.5974C51.9601 40.2679 52.4848 40.9392 53.0093 41.6102Z" fill="white"/>
</svg>
